<?xml version="1.0" encoding="utf-8"?>
<!-- Generator: Adobe Illustrator 27.2.0, SVG Export Plug-In . SVG Version: 6.00 Build 0)  -->
<svg version="1.1" id="Слой_1" xmlns="http://www.w3.org/2000/svg" xmlns:xlink="http://www.w3.org/1999/xlink" x="0px" y="0px"
	 viewBox="0 0 110 40" enable-background="new 0 0 110 40" xml:space="preserve">
<g>
	<path fill="#21A038" d="M16.2819405,25.8138924c0.338047,0.4447975,0.6227169,0.9251785,0.8540115,1.4233532l-6.4584656,4.8216076
		l-2.704371-1.7080231v-2.0638618l2.704371,1.7080231l5.604454-4.1988907V25.8138924z"/>
	
		<linearGradient id="SVGID_1_" gradientUnits="userSpaceOnUse" x1="-196.3712921" y1="-872.0309448" x2="-198.2038574" y2="-866.8001709" gradientTransform="matrix(1 0 0 -1 202.3622131 -836.9448853)">
		<stop  offset="0.14" style="stop-color:#F1E813"/>
		<stop  offset="0.3" style="stop-color:#E6E418"/>
		<stop  offset="0.58" style="stop-color:#C9DA26"/>
		<stop  offset="0.89" style="stop-color:#A2CC39"/>
	</linearGradient>
	<path fill="url(#SVGID_1_)" d="M5.2153687,30.2084942c0-0.0889587,0-0.1779175,0-0.2846699l-1.6368563-0.071167
		c0,0.1245422,0,0.2312946,0,0.3558369c0,0.9429722,0.1779191,1.8859425,0.5337574,2.7577496
		c0.3558383,0.8718033,0.8718038,1.6724396,1.5301051,2.3307381l1.1564746-1.174263
		c-0.5159655-0.5159683-0.9073877-1.1208916-1.1920586-1.7969856c-0.2668786-0.6760921-0.409214-1.3877678-0.409214-2.1172371
		L5.2153687,30.2084942z"/>
	
		<linearGradient id="SVGID_00000027588935307201701830000004812057175533618840_" gradientUnits="userSpaceOnUse" x1="-196.2361603" y1="-862.3583374" x2="-191.61026" y2="-860.6146851" gradientTransform="matrix(1 0 0 -1 202.3622131 -836.9448853)">
		<stop  offset="0.06" style="stop-color:#0FA7DF"/>
		<stop  offset="0.54" style="stop-color:#0098F8"/>
		<stop  offset="0.92" style="stop-color:#0290EA"/>
	</linearGradient>
	<path fill="url(#SVGID_00000027588935307201701830000004812057175533618840_)" d="M10.6774874,24.675209
		c0.0889597,0,0.1779194,0,0.2668781,0l0.0889597-1.6546478c-0.1245432,0-0.2312946,0-0.3558378,0
		c-0.9251795,0-1.8503599,0.1779194-2.7221632,0.551548c-0.854012,0.3558388-1.6368566,0.8895969-2.2951574,1.5656891
		l1.1564746,1.1742668c0.4981737-0.5159645,1.1030989-0.9251785,1.7613997-1.2098503
		c0.6583004-0.2846699,1.369977-0.4270058,2.0816545-0.4270058H10.6774874z"/>
	
		<linearGradient id="SVGID_00000044161260720013497870000014810675597118435774_" gradientUnits="userSpaceOnUse" x1="-192.1481323" y1="-873.3235474" x2="-186.9351044" y2="-872.149231" gradientTransform="matrix(1 0 0 -1 202.3622131 -836.9448853)">
		<stop  offset="0.12" style="stop-color:#A2CC39"/>
		<stop  offset="0.28" style="stop-color:#86C239"/>
		<stop  offset="0.87" style="stop-color:#219F38"/>
	</linearGradient>
	<path fill="url(#SVGID_00000044161260720013497870000014810675597118435774_)" d="M10.6774874,35.7417831
		c-0.0889597,0-0.1779194,0-0.2668791,0l-0.0889597,1.6546478c0.1245432,0,0.2312956,0,0.3558388,0
		c0.9251795,0,1.850359-0.1779213,2.7221632-0.5515518c0.8540115-0.3558388,1.6368561-0.889595,2.2951574-1.5656891
		l-1.1564751-1.1742668c-0.4981737,0.5159683-1.1030989,0.9251823-1.7613993,1.1920586
		c-0.6583014,0.2846718-1.369978,0.4270058-2.0816545,0.4270058L10.6774874,35.7417831z"/>
	
		<linearGradient id="SVGID_00000126304404948816937620000002264006094178714513_" gradientUnits="userSpaceOnUse" x1="-192.0399017" y1="-860.550415" x2="-187.5741272" y2="-861.9026489" gradientTransform="matrix(1 0 0 -1 202.3622131 -836.9448853)">
		<stop  offset="0.06" style="stop-color:#0290EA"/>
		<stop  offset="0.79" style="stop-color:#0C89CA"/>
	</linearGradient>
	<path fill="url(#SVGID_00000126304404948816937620000002264006094178714513_)" d="M13.7554884,25.6537647l1.3877697-1.0319309
		c-1.2810173-1.0497246-2.8467064-1.6012726-4.4657707-1.6012726v1.6546478c1.1030989,0,2.1706133,0.338047,3.078002,0.9607639
		L13.7554884,25.6537647z"/>
	<path fill="#21A038" d="M17.7764626,30.2084942c0-0.4270058-0.0355835-0.8718033-0.1067524-1.2810173l-1.5301037,1.1386833
		v0.142334c0,0.7650528-0.1601286,1.5301056-0.4625902,2.2417812c-0.3024626,0.7116776-0.7650518,1.3343964-1.3343935,1.8503609
		l1.1030979,1.2276421c0.7294693-0.6760941,1.3166027-1.4945221,1.7258167-2.4197006s0.6049252-1.9037361,0.6049252-2.9178734
		V30.2084942z"/>
	
		<linearGradient id="SVGID_00000034063405495208266430000007249527938564606127_" gradientUnits="userSpaceOnUse" x1="-196.5356293" y1="-871.7800293" x2="-191.6606445" y2="-873.5769043" gradientTransform="matrix(1 0 0 -1 202.3622131 -836.9448853)">
		<stop  offset="0.13" style="stop-color:#F1E813"/>
		<stop  offset="0.3" style="stop-color:#EAE616"/>
		<stop  offset="0.53" style="stop-color:#D8DF1F"/>
		<stop  offset="0.8" style="stop-color:#BAD52D"/>
		<stop  offset="0.98" style="stop-color:#A2CC39"/>
	</linearGradient>
	<path fill="url(#SVGID_00000034063405495208266430000007249527938564606127_)" d="M10.6774874,35.7417831
		c-0.7650528,0-1.5123129-0.1601295-2.2061977-0.4803848c-0.6938848-0.3202515-1.3166018-0.765049-1.8325677-1.3521843
		l-1.2098503,1.1208916c0.6583009,0.747261,1.4767289,1.3343925,2.3841171,1.7436066s1.8859429,0.6227188,2.8822904,0.6227188
		v-1.6546478H10.6774874z"/>
	
		<linearGradient id="SVGID_00000108296151021829635680000011658898756292280964_" gradientUnits="userSpaceOnUse" x1="-198.2018585" y1="-867.3470459" x2="-196.2091675" y2="-862.2230225" gradientTransform="matrix(1 0 0 -1 202.3622131 -836.9448853)">
		<stop  offset="0.07" style="stop-color:#A2CC39"/>
		<stop  offset="0.26" style="stop-color:#81C45E"/>
		<stop  offset="0.92" style="stop-color:#0FA7DF"/>
	</linearGradient>
	<path fill="url(#SVGID_00000108296151021829635680000011658898756292280964_)" d="M7.0123525,26.116354l-1.1030989-1.2276421
		c-0.7294688,0.6760921-1.3166022,1.4945202-1.7258162,2.4197006c-0.391422,0.9073887-0.6049249,1.9037361-0.6049249,2.9000816
		h1.6368563c0-0.7650509,0.1601272-1.5301037,0.4625897-2.2417812C5.9804211,27.2550373,6.4430113,26.6323204,7.0123525,26.116354z"
		/>
</g>
<g>
	<g>
		<path fill="#6880FF" d="M16.8134499,7.0998969H12.37815v4.8385663h4.4352999V7.0998969z"/>
		<path fill="#6880FF" d="M21.2487946,2.6645954h-4.4353447v4.4353018h4.4353447V2.6645954z"/>
		<path fill="#6880FF" fill-opacity="0.5" d="M16.8134499,7.0998969H12.37815l4.4352999-4.4353018V7.0998969z"/>
		<path fill="#7C5BFF" d="M19.6359558,13.954525h4.4353008V9.1159592h-4.4353008V13.954525z"/>
		<path fill="#7C5BFF" d="M15.6038399,18.3898258h4.0321159V13.954525h-4.0321159V18.3898258z"/>
		<path fill="#7C5BFF" fill-opacity="0.5" d="M19.6359558,13.954525h4.4353008l-4.4353008,4.4353008V13.954525z"/>
	</g>
	<g>
		<path fill="#FFFFFF" d="M39.3287888,7.3623762h2.3819847v11.0274496h-2.3819847v-1.5879154
			c-0.8968887,1.2497883-2.1834335,1.8747368-3.8596268,1.8747368c-1.5144005,0-2.8083878-0.5587673-3.8817253-1.6761913
			c-1.0733414-1.1321926-1.6100121-2.5070162-1.6100121-4.1243544c0-1.6321087,0.5366707-3.0068216,1.6100121-4.1243544
			c1.0733376-1.1174259,2.3673248-1.6761937,3.8817253-1.6761937c1.6761932,0,2.962738,0.6176195,3.8596268,1.8526397V7.3623762z
			 M33.3519058,15.4124317c0.6615982,0.661705,1.4923096,0.9925003,2.4922485,0.9925003
			c0.9998283,0,1.8305397-0.3307953,2.4921341-0.9925003c0.661705-0.676363,0.9925003-1.521843,0.9925003-2.5363302
			c0-1.0144892-0.3307953-1.8526411-0.9925003-2.5142355c-0.6615944-0.6763611-1.4923058-1.0145969-2.4921341-1.0145969
			c-0.999939,0-1.8306503,0.3382359-2.4922485,1.0145969c-0.661705,0.6615944-0.9925003,1.4997463-0.9925003,2.5142355
			C32.3594055,13.8905888,32.6902008,14.7360687,33.3519058,15.4124317z"/>
		<path fill="#FFFFFF" d="M53.2209625,7.3623762h2.3819809v11.0274496h-2.3819809v-1.5879154
			c-0.8968964,1.2497883-2.1834373,1.8747368-3.8596268,1.8747368c-1.5145187,0-2.8083878-0.5587673-3.8817291-1.6761913
			c-1.0733414-1.1321926-1.6100121-2.5070162-1.6100121-4.1243544c0-1.6321087,0.5366707-3.0068216,1.6100121-4.1243544
			c1.0733414-1.1174259,2.3672104-1.6761937,3.8817291-1.6761937c1.6761894,0,2.9627304,0.6176195,3.8596268,1.8526397V7.3623762z
			 M47.243969,15.4124317c0.661705,0.661705,1.4924164,0.9925003,2.4922447,0.9925003
			c0.9998322,0,1.8305435-0.3307953,2.4922485-0.9925003c0.661705-0.676363,0.9925003-1.521843,0.9925003-2.5363302
			c0-1.0144892-0.3307953-1.8526411-0.9925003-2.5142355c-0.661705-0.6763611-1.4924164-1.0145969-2.4922485-1.0145969
			c-0.9998283,0-1.8305397,0.3382359-2.4922447,1.0145969c-0.6615944,0.6615944-0.9923897,1.4997463-0.9923897,2.5142355
			C46.2515793,13.8905888,46.5823746,14.7360687,47.243969,15.4124317z"/>
		<path fill="#FFFFFF" d="M60.6288986,5.2671075c-0.2940407,0.2940416-0.6469383,0.4410634-1.0586853,0.4410634
			c-0.4116364,0-0.7719688-0.1470218-1.0806732-0.4410634c-0.2940407-0.3088098-0.4411697-0.6690331-0.4411697-1.0806694
			c0-0.4117465,0.1471291-0.764641,0.4411697-1.0586829c0.2940445-0.3088095,0.6542702-0.4631598,1.0806732-0.4631598
			s0.7866249,0.1543503,1.0806656,0.4631598c0.2941589,0.2940419,0.4411812,0.6469364,0.4411812,1.0586829
			C61.0920601,4.5980744,60.9375916,4.9582977,60.6288986,5.2671075z M58.3792763,18.3898258V7.3623762h2.3818703v11.0274496
			H58.3792763z"/>
		<path fill="#FFFFFF" d="M68.7318954,18.6766472c-1.6173325,0-2.9921646-0.5587673-4.1243515-1.6761913
			c-1.1320877-1.1175356-1.6981773-2.4922476-1.6981773-4.1243544c0-1.6321087,0.5660896-3.0068216,1.6981773-4.1243544
			c1.1321869-1.1174259,2.507019-1.6761937,4.1243515-1.6761937c1.6321106,0,3.0068207,0.5587678,4.1242447,1.6761937
			c1.1321945,1.1175327,1.698288,2.4922457,1.698288,4.1243544c0,1.6321068-0.5660934,3.0068188-1.698288,4.1243544
			C71.7387161,18.1178799,70.364006,18.6766472,68.7318954,18.6766472z M66.2837296,15.3683472
			c0.6617126,0.6615944,1.4777679,0.9925003,2.4481659,0.9925003s1.7864609-0.3309059,2.4480591-0.9925003
			c0.6616974-0.6617041,0.9924927-1.4924164,0.9924927-2.4922457c0-0.9998322-0.3307953-1.8305435-0.9924927-2.4922476
			c-0.6615982-0.6615944-1.4776611-0.9925003-2.4480591-0.9925003s-1.7864532,0.3309059-2.4481659,0.9925003
			c-0.6615906,0.6617041-0.9924927,1.4924154-0.9924927,2.4922476
			C65.2912369,13.8759308,65.622139,14.7066431,66.2837296,15.3683472z"/>
		<path fill="#FFFFFF" d="M78.4277344,18.1692924c-0.3235779,0.3234692-0.7131195,0.48526-1.1689453,0.48526
			c-0.4558334,0-0.8454819-0.1617908-1.1689529-0.48526c-0.3234711-0.3234673-0.4852524-0.7131157-0.4852524-1.1688366
			c0-0.4558315,0.1544571-0.8454819,0.46315-1.1689501c0.3235855-0.3234663,0.7205658-0.4852562,1.1910553-0.4852562
			c0.4558258,0,0.8453674,0.1617899,1.1689453,0.4852562c0.3234634,0.3234682,0.4851532,0.7131186,0.4851532,1.1689501
			C78.9128876,17.4561768,78.7511978,17.8458252,78.4277344,18.1692924z"/>
		<path fill="#FFFFFF" d="M83.696312,5.2671075c-0.2941513,0.2940416-0.6470413,0.4410634-1.0586777,0.4410634
			c-0.4117508,0-0.7719727-0.1470218-1.0806732-0.4410634c-0.2941513-0.3088098-0.4411774-0.6690331-0.4411774-1.0806694
			c0-0.4117465,0.1470261-0.764641,0.4411774-1.0586829c0.2940445-0.3088095,0.6542664-0.4631598,1.0806732-0.4631598
			s0.7866287,0.1543503,1.0806656,0.4631598c0.2940445,0.2940419,0.4411697,0.6469364,0.4411697,1.0586829
			C84.1594696,4.5980744,84.0050201,4.9582977,83.696312,5.2671075z M81.446701,18.3898258V7.3623762h2.3818665v11.0274496
			H81.446701z"/>
		<path fill="#FFFFFF" d="M91.7993164,18.6766472c-1.6174469,0-2.992157-0.5587673-4.1243591-1.6761913
			c-1.1321869-1.1175356-1.6981735-2.4922476-1.6981735-4.1243544c0-1.6321087,0.5659866-3.0068216,1.6981735-4.1243544
			c1.1322021-1.1174259,2.5069122-1.6761937,4.1243591-1.6761937c1.6319962,0,3.0068207,0.5587678,4.1242447,1.6761937
			c1.1321945,1.1175327,1.698288,2.4922457,1.698288,4.1243544c0,1.6321068-0.5660934,3.0068188-1.698288,4.1243544
			C94.8061371,18.1178799,93.4313126,18.6766472,91.7993164,18.6766472z M89.3511581,15.3683472
			c0.6616974,0.6615944,1.4777527,0.9925003,2.4481583,0.9925003s1.7864609-0.3309059,2.4480515-0.9925003
			c0.6616974-0.6617041,0.9925079-1.4924164,0.9925079-2.4922457c0-0.9998322-0.3308105-1.8305435-0.9925079-2.4922476
			c-0.6615906-0.6615944-1.4776459-0.9925003-2.4480515-0.9925003s-1.7864609,0.3309059-2.4481583,0.9925003
			c-0.6616058,0.6617041-0.9925079,1.4924154-0.9925079,2.4922476
			C88.3586502,13.8759308,88.6895523,14.7066431,89.3511581,15.3683472z"/>
	</g>
</g>
<g>
	<path fill="#FFDD2D" d="M28.3938427,37.396431l-4.5858746-2.6509933c-1.6043663-0.9226837-2.5890217-2.6372223-2.5890217-4.4894753
		v-7.223093h-0.0068836H35.568737v7.2230949c0,1.8522511-0.9846535,3.5599041-2.5890198,4.4894733L28.3938427,37.396431"/>
	<path fill-rule="evenodd" clip-rule="evenodd" fill="#333333" d="M25.1506805,26.8337727v2.2447376
		c0.3098564-0.344286,0.8675976-0.5783978,1.5010815-0.5783978h0.6954556v2.6096783
		c0,0.6954556-0.1859131,1.3013954-0.4682274,1.6387939h3.0159359c-0.2823143-0.3373985-0.4682274-0.9433384-0.4682274-1.6387939
		v-2.6096783h0.6954556c0.6403694,0,1.1981106,0.2341118,1.5010815,0.5783978v-2.2447376H25.1506805z"/>
</g>
<g id="Page-1">
	<g id="Artboard" transform="translate(-91.000000, -154.000000)">
		<g id="Group" transform="translate(91.000000, 154.000000)">
			<path id="Combined-Shape" fill-rule="evenodd" clip-rule="evenodd" fill="#37A72E" d="M81.9932632,25.8909492v3.468235h1.926796
				v-2.0552502h2.1837006c0.9190674-0.0068245,1.6997833-0.5939102,1.9941788-1.4129848H81.9932632z"/>
			
				<linearGradient id="Combined-Shape_00000173864180430966298290000007971392913162843312_" gradientUnits="userSpaceOnUse" x1="-1343.3621826" y1="-27.0594769" x2="-1343.3300781" y2="-27.0594769" gradientTransform="matrix(201.7633057 0 0 79 271122.9375 2162)">
				<stop  offset="0" style="stop-color:#00A0E5"/>
				<stop  offset="1" style="stop-color:#0077C3"/>
			</linearGradient>
			
				<path id="Combined-Shape_00000071547496215866313520000016141875339336809856_" fill-rule="evenodd" clip-rule="evenodd" fill="url(#Combined-Shape_00000173864180430966298290000007971392913162843312_)" d="
				M81.7363586,23.0328693c0.112236,1.4176216,1.4533768,2.5369473,3.0913315,2.5369473c0.0053482,0,3.3502884,0,3.3502884,0
				c0.0247192-0.1300125,0.0376587-0.264204,0.0376587-0.4014168c0-1.1743221-0.9474411-2.1268444-2.1194763-2.1354733
				L81.7363586,23.0328693z"/>
			
				<path id="Combined-Shape_00000028285111021099417510000002401441004985745055_" fill-rule="evenodd" clip-rule="evenodd" fill="#37A72E" d="
				M78.8846893,25.5360832L78.8862,25.5328484l0.000206,0.0000477c0.0197449-0.0354424,0.0576019-0.0594196,0.1010513-0.0594196
				c0.0627747,0,0.1138611,0.0500278,0.1155624,0.1123867l0.0000534,0.0000095v3.7411957h1.9267883v-6.294199h-1.9267883
				c-0.2443466,0.008131-0.520401,0.1874313-0.6230392,0.4075241l-1.5333557,3.2882996
				c-0.0037918,0.013443-0.0097122,0.0259895-0.0173721,0.0372562l-0.0005188,0.0010967l-0.0001907-0.0000629
				c-0.023201,0.033392-0.0618286,0.0552521-0.1055756,0.0552521c-0.0709381,0-0.1284485-0.0575123-0.1284485-0.1284542v-3.6609116
				h-1.9268036v6.294199h1.9268036v-0.0007172c0.2416611-0.0126209,0.5112457-0.1899033,0.612381-0.4068069l1.5737839-3.3749809
				C78.8819427,25.5416756,78.8832626,25.5388451,78.8846893,25.5360832L78.8846893,25.5360832z"/>
			
				<path id="Combined-Shape_00000067918256371910138230000003614688541560293807_" fill-rule="evenodd" clip-rule="evenodd" fill="#37A72E" d="
				M71.689827,25.6436729l-1.1261368,3.6833954h-1.3860855l-1.1268158-3.6856289
				c-0.0108643-0.059021-0.0625839-0.103735-0.1247482-0.103735c-0.0700531,0-0.1268463,0.0567913-0.1268463,0.1268463
				c0,0.000536,0,0.00107,0.0000076,0.0016041l-0.0000076,3.6609135h-1.926796v-6.294199h1.6538315h0.4925461
				c0.354538,0,0.7260666,0.2751389,0.8296738,0.6140137l0.9377213,3.067152c0.0466537,0.1526051,0.1223526,0.152441,0.1689529,0
				l0.9377213-3.067152c0.1036758-0.3391113,0.47509-0.6140137,0.8296738-0.6140137h0.4923935h1.6536942v6.294199H71.941803
				v-3.6609116c0-0.000536,0-0.00107,0-0.001606c0-0.070055-0.0567856-0.1268463-0.1268463-0.1268463
				C71.7520142,25.5377045,71.6997757,25.5835514,71.689827,25.6436729L71.689827,25.6436729z"/>
		</g>
	</g>
</g>
<g>
	<path fill="#2566AF" d="M74.2084503,37.7802582h-1.6434479l1.0271378-6.3124161h1.6436157L74.2084503,37.7802582z
		 M71.1824265,31.4678421l-1.5667877,4.3417282l-0.1854019-0.9349442l0.0001678,0.0003395l-0.5529938-2.8387642
		c0,0-0.066864-0.5683594-0.7795944-0.5683594h-2.59021l-0.0303955,0.106884c0,0,0.7920914,0.1648006,1.7190933,0.721508
		l1.4278259,5.4841919h1.7123413l2.6146927-6.3125839H71.1824265L71.1824265,31.4678421z M84.1089935,37.7802582h1.5090485
		l-1.3157043-6.3125858h-1.3211136c-0.6100616,0-0.7586594,0.4704266-0.7586594,0.4704266l-2.4510727,5.8421593h1.7131882
		l0.342598-0.937645h2.0892258L84.1089935,37.7802582L84.1089935,37.7802582z M82.3005753,35.5473404l0.8635178-2.3622589
		l0.4857864,2.3622589H82.3005753z M79.8999863,32.9858322l0.2345428-1.3555546c0,0-0.7237091-0.2752304-1.4781418-0.2752304
		c-0.815567,0-2.7523117,0.3564491-2.7523117,2.0897312c0,1.6307831,2.2731018,1.6510468,2.2731018,2.507637
		c0,0.8565941-2.0389023,0.7031059-2.7117844,0.1629448l-0.2443314,1.4173546c0,0,0.7338409,0.3564491,1.8550262,0.3564491
		c1.121521,0,2.8134384-0.5806885,2.8134384-2.1611519c0-1.6412582-2.293541-1.7940674-2.293541-2.5076408
		c0.0001678-0.7137451,1.6007309-0.6220551,2.3040085-0.234539H79.8999863z"/>
	<path fill="#E6A540" d="M69.4304047,34.874794l-0.5529938-2.8387604c0,0-0.066864-0.5683613-0.7795944-0.5683613h-2.59021
		l-0.0303955,0.1068859c0,0,1.244957,0.2580051,2.4390869,1.2246895
		C69.0580826,33.7232132,69.4304047,34.874794,69.4304047,34.874794z"/>
</g>
<g>
	<path fill="#FFFFFF" d="M98.8820038,23.0328693c-3.8668747,0-7.0346222,3.0088615-7.3354568,6.8323059l3.9452591,1.6461086
		c0.334198-0.2309227,0.7383118-0.365448,1.1726151-0.365448c0.0391922,0,0.077858,0.0010586,0.1159897,0.0031776
		l1.7546844-2.566618V28.546381c0-1.5444202,1.2451782-2.8012447,2.7758255-2.8012447s2.7758179,1.2568245,2.7758179,2.8012447
		s-1.2451706,2.801775-2.7758179,2.801775c-0.0211868,0-0.0418472-0.0005302-0.0630341-0.0010586l-2.5025253,1.8012905
		c0.0015945,0.0333672,0.0026474,0.0667381,0.0026474,0.0995712c0,1.1599045-0.9348068,2.1031876-2.0835876,2.1031876
		c-1.0084305,0-1.8521423-0.7266617-2.0428085-1.6884804l-2.8218994-1.1773796
		c0.8739014,3.1179657,3.7127457,5.4038773,7.0822906,5.4038773c4.0654907,0,7.3608856-3.3261147,7.3608856-7.4281483
		C106.2428894,26.3584538,102.9474945,23.0328693,98.8820038,23.0328693z M96.1593552,34.3038445l-0.9040833-0.3771019
		c0.1599503,0.3368492,0.4374771,0.618618,0.8055801,0.7732697c0.7955017,0.3347282,1.7128372-0.0460815,2.0443878-0.8495369
		c0.1604767-0.3887558,0.1615372-0.8177567,0.002655-1.2075691c-0.1588898-0.3898125-0.459198-0.6938248-0.8442459-0.8558941
		c-0.3829269-0.1604786-0.7928696-0.1546535-1.1530228-0.0174751l0.9342804,0.3898106
		c0.5868378,0.2468109,0.8643723,0.9268608,0.6196747,1.5189972C97.4204254,34.2704811,96.7461929,34.5506554,96.1593552,34.3038445
		z M103.160614,28.5464344c0-1.0290852-0.8299332-1.8669701-1.8494873-1.8669701
		c-1.0200729,0-1.8500137,0.8378849-1.8500137,1.8669701s0.8299408,1.866436,1.8500137,1.866436
		C102.3306808,30.4128704,103.160614,29.5755177,103.160614,28.5464344z M99.9245377,28.5432568
		c0-0.7743282,0.6223297-1.401947,1.3892365-1.401947c0.7674484,0,1.3897705,0.6276188,1.3897705,1.401947
		s-0.6223221,1.401947-1.3897705,1.401947C100.5468674,29.9452038,99.9245377,29.317585,99.9245377,28.5432568z"/>
</g>
<g>
	<path fill="#FFFFFF" d="M47.9402809,27.3287926c-0.3551941-0.6286278-0.875103-1.14851-1.5037117-1.5037041
		c-0.6268997-0.3639259-1.35606-0.5458889-2.1875725-0.5458889c-0.8198395,0-1.5491943,0.1822968-2.1880684,0.5468903
		c-0.6281281,0.3550663-1.1476364,0.8745728-1.5027008,1.5027027c-0.3645935,0.6385384-0.5468903,1.3622284-0.5468903,2.1710529
		c0,0.8088493,0.1822968,1.5322075,0.5468903,2.1700726c0.3547821,0.6286049,0.8743324,1.1485138,1.5027008,1.5037079
		c0.6378746,0.3665848,1.3668976,0.5488739,2.1870651,0.5469131c0.8331566,0,1.5623589-0.1823349,2.1875534-0.5469131
		c0.6287346-0.3550644,1.1486435-0.8749733,1.5037079-1.5037079c0.3645821-0.6378651,0.5469131-1.3612232,0.5469131-2.1700726
		C48.4861679,28.691021,48.3041763,27.9673309,47.9402809,27.3287926z M46.0776215,30.7231026
		c-0.1715813,0.3403473-0.4303207,0.629076-0.7498474,0.8368359c-0.3247337,0.1955566-0.6977196,0.2963638-1.0767822,0.290947
		c-0.3788795,0.005331-0.7516975-0.0954342-1.0762863-0.290947c-0.3196449-0.2075882-0.5784149-0.4964027-0.7498474-0.8368359
		c-0.1852989-0.3632565-0.2777786-0.7876472-0.2774467-1.2732334c0.0003319-0.4855709,0.0914841-0.9093208,0.2734489-1.271246
		c0.1648254-0.344883,0.4250488-0.6352978,0.7498474-0.8368359c0.3249626-0.1965599,0.6985321-0.2980499,1.078289-0.2929382
		c0.379055-0.0054054,0.752037,0.0953712,1.0767708,0.2909374c0.3248215,0.2015419,0.5850525,0.4919529,0.7498512,0.8368359
		c0.1826286,0.3639259,0.2737961,0.7883415,0.2734566,1.2732468C46.348732,29.9347725,46.2582474,30.3592052,46.0776215,30.7231026z
		"/>
	<path fill="#FFFFFF" d="M61.3066025,29.2516117c-0.35532-0.6285191-0.8751869-1.1483669-1.5037079-1.5037022
		c-0.6268578-0.3645916-1.35606-0.5468903-2.1875648-0.5468903c-0.8201523,0-1.5491867,0.1822987-2.1870499,0.5468903
		c-0.6292038,0.3549767-1.1496239,0.874876-1.5052032,1.5037022c-0.3649178,0.6378555-0.5472527,1.3612118-0.5469093,2.1700611
		c0.0003395,0.8088493,0.1826286,1.5323792,0.5469093,2.1705856c0.3551941,0.6286049,0.875061,1.1485138,1.5037117,1.5037079
		c0.6378632,0.3645782,1.3668938,0.5468674,2.1870499,0.5468674c0.8331642,0,1.5623665-0.1822891,2.187561-0.5468674
		c0.6290779-0.3551521,1.1494522-0.8750153,1.5052032-1.5037079c0.3642807-0.637867,0.5463982-1.361393,0.5463982-2.1705856
		C61.8530006,30.6125259,61.6708832,29.8891678,61.3066025,29.2516117z M59.4439888,32.645443
		c-0.1717529,0.3400917-0.4304924,0.6286087-0.7498512,0.8363228c-0.3266945,0.1908646-0.6982307,0.2914162-1.0765457,0.2914162
		c-0.3783607,0-0.7498932-0.1005516-1.0765457-0.2914162c-0.3194885-0.2075882-0.5782242-0.4961472-0.7498474-0.8363228
		c-0.1822929-0.3639412-0.2734604-0.7885017-0.2734604-1.2737675c0-0.4852238,0.0911674-0.9096565,0.2734604-1.2732124
		c0.1650085-0.3447857,0.4251976-0.6351776,0.7498474-0.836853c0.3267822-0.1905537,0.6982727-0.2909546,1.0765457-0.2909546
		s0.7497635,0.1004009,1.0765457,0.2909546c0.3245201,0.2018452,0.5846672,0.4921532,0.7498512,0.836853
		c0.1819458,0.3638954,0.2731133,0.7883301,0.2734146,1.2732124c0.0003395,0.4849262-0.0912971,0.9094868-0.2749519,1.2737675
		H59.4439888z"/>
	<path fill="#FFFFFF" d="M48.5185051,35.4722786l2.5520134-10.0260181h2.3070145l-2.5519714,10.0260181H48.5185051z"/>
</g>
</svg>
