<?xml version="1.0" encoding="utf-8"?>
<!-- Generator: Adobe Illustrator 27.2.0, SVG Export Plug-In . SVG Version: 6.00 Build 0)  -->
<svg version="1.1" id="Слой_1" xmlns="http://www.w3.org/2000/svg" xmlns:xlink="http://www.w3.org/1999/xlink" x="0px" y="0px"
	 viewBox="0 0 110 40" enable-background="new 0 0 110 40" xml:space="preserve">
<g>
	<path fill="#FFFFFF" d="M16.0048828,11.5981445L24.1230469,29.71875h-6.0161133l-6.5717773-15.6801758h1.5219727
		L6.4614258,29.71875H0.4697266l8.09375-18.1206055H16.0048828z M5.9780273,26.4570312v-4.4931641h12.4189453v4.4931641H5.9780273z"
		/>
	<path fill="#FFFFFF" d="M34.9951172,11.5981445c2.1743164,0,4.0791016,0.3745117,5.7138672,1.1235352
		s2.9072266,1.7998047,3.8173828,3.152832s1.3652344,2.9477539,1.3652344,4.7841797
		c0,1.8208008-0.4550781,3.4106445-1.3652344,4.7719727s-2.1826172,2.4160156-3.8173828,3.1650391
		S37.1694336,29.71875,34.9951172,29.71875h-9.3261719V11.5981445H34.9951172z M31.25,27.2783203l-2.5849609-2.5605469h6.7651367
		c0.9819336,0,1.8320312-0.1650391,2.5488281-0.4951172c0.7163086-0.3300781,1.2685547-0.8017578,1.6547852-1.4140625
		c0.3867188-0.6123047,0.5800781-1.3291016,0.5800781-2.1499023c0-0.8374023-0.1933594-1.5585938-0.5800781-2.1625977
		c-0.3862305-0.6040039-0.9384766-1.0708008-1.6547852-1.4013672c-0.7167969-0.3300781-1.5668945-0.4951172-2.5488281-0.4951172
		h-6.7651367L31.25,14.0385742V27.2783203z"/>
	<path fill="#FFFFFF" d="M75.4882812,11.5981445V29.71875H70.125V13.6757812l1.1113281,0.1210938L64.6875,29.71875h-5.6054688
		l-6.5712891-15.8735352l1.1118164-0.1450195V29.71875h-5.3398438V11.5981445h8.6743164l5.9667969,15.1489258h-2.0527344
		l5.9179688-15.1489258H75.4882812z"/>
	<path fill="#FFFFFF" d="M78.6044922,11.5981445h5.6298828V29.71875h-5.6298828V11.5981445z"/>
	<path fill="#FFFFFF" d="M104.1425781,25.7080078l-1.6191406,0.3378906V11.5981445h5.4609375V29.71875h-7.0556641
		l-9.7363281-14.4482422l1.5947266-0.3378906V29.71875h-5.4365234V11.5981445h7.2724609L104.1425781,25.7080078z"/>
</g>
</svg>
