<?xml version="1.0" encoding="utf-8"?>
<!-- Generator: Adobe Illustrator 27.2.0, SVG Export Plug-In . SVG Version: 6.00 Build 0)  -->
<svg version="1.1" id="Слой_1" xmlns="http://www.w3.org/2000/svg" xmlns:xlink="http://www.w3.org/1999/xlink" x="0px" y="0px"
	 viewBox="0 0 110 40" enable-background="new 0 0 110 40" xml:space="preserve">
<g id="Layer_x0020_1">
	<g id="_1421344023328">
		<path fill="#F7931A" d="M106.0600128,31.0802364c-0.9664459,3.8765621-4.8927765,6.2357616-8.7697906,5.2690716
			c-3.8753967-0.9664459-6.2345963-4.8930206-5.2677307-8.7692642c0.9660187-3.8769875,4.8923492-6.2363625,8.7681656-5.2699203
			c3.8767395,0.966444,6.2357941,4.8934441,5.269249,8.7701836l0.0000687-0.0000706H106.0600128z"/>
		<path fill="#FFFFFF" d="M102.2319794,28.2987919c0.1440201-0.9629765-0.5891266-1.4806137-1.5916443-1.8259277
			l0.3252258-1.3044376l-0.7940521-0.1978588l-0.316597,1.270092c-0.2087479-0.0520611-0.4231262-0.1011219-0.6361923-0.1497536
			l0.3188934-1.2784767l-0.7935562-0.1978588l-0.3254089,1.3040142c-0.1727448-0.0393314-0.3424149-0.0782032-0.507019-0.1191616
			l0.0009155-0.0041027l-1.0950089-0.2734432l-0.2112274,0.8480968c0,0,0.589119,0.1350422,0.5767059,0.1433525
			c0.3215485,0.0802555,0.3796921,0.293108,0.3700333,0.4618225l-0.3704605,1.486063
			c0.0221405,0.0056229,0.0508652,0.0137596,0.0825577,0.0264912c-0.0264969-0.0065784-0.0546875-0.0137596-0.0839386-0.0207634
			l-0.5192642,2.0817623c-0.0392914,0.0976887-0.1390381,0.244297-0.3638458,0.1886253
			c0.0079575,0.0115299-0.5771332-0.1440258-0.5771332-0.1440258l-0.3942261,0.9089317l1.0333252,0.2575989
			c0.1922379,0.0482101,0.3806152,0.0986481,0.566124,0.1460762l-0.3285828,1.3193989l0.7931366,0.1978607l0.3254013-1.3053932
			c0.2166748,0.0588188,0.4269485,0.1130791,0.6327972,0.1642189l-0.3243027,1.2992401l0.7940903,0.1978607l0.3285446-1.316925
			c1.3540268,0.2562523,2.3721466,0.1529388,2.8006821-1.0717754c0.3453217-0.9860382-0.017189-1.5547829-0.729538-1.9256706
			c0.5188446-0.1196575,0.9096451-0.4609051,1.0138397-1.165823l-0.0002441-0.0001774L102.2319794,28.2987919z
			 M100.4177551,30.8428001c-0.2453995,0.9860363-1.9055862,0.4530144-2.44384,0.3193531l0.4360352-1.7479725
			c0.5382233,0.134367,2.264267,0.40028,2.007843,1.4286194H100.4177551z M100.6633224,28.2845039
			c-0.2238541,0.8969059-1.6056442,0.4412365-2.0538864,0.3295059l0.3953323-1.58531
			c0.4482422,0.1117344,1.8917542,0.3202744,1.6586227,1.2558041H100.6633224z"/>
	</g>
</g>
<g>
	<g>
		<polygon fill="#5B57A2" points="65.9430695,25.2438602 67.701767,28.3768234 67.7017746,30.2869625 65.9459534,33.4138145 		"/>
		<polygon fill="#D90751" points="72.6937027,27.2366486 74.3409882,26.2300777 77.7117233,26.2275314 72.693718,29.2924252 		"/>
		<polygon fill="#FAB718" points="72.6845703,25.2258034 72.6936951,29.3728981 70.9315033,28.2938385 70.9315033,22.0935936 		"/>
		<polygon fill="#ED6F26" points="77.7117233,26.2275314 74.3409882,26.2300777 72.6845703,25.2258034 70.9315033,22.0935936 		"/>
		<polygon fill="#63B22F" points="72.6936951,33.4313927 72.6936951,31.4189262 70.9317093,30.3602524 70.9319916,36.5659485 		"/>
		<polygon fill="#1487C9" points="74.3368454,32.4340515 67.701767,28.3768234 65.9430695,25.2438602 77.7050018,32.4301071 		"/>
		<polygon fill="#017F36" points="70.9319916,36.5659485 72.6936951,33.4313927 74.3368454,32.4340515 77.7050018,32.4301071 		"/>
		<polygon fill="#984995" points="65.9459534,33.4138145 70.9454117,30.3602524 69.2642136,29.3322334 67.7017746,30.2869625 		"/>
	</g>
</g>
<g>
	<path fill="#8B3FFD" d="M16.5279617,22.1755447c-3.9694281,0-7.1579857,3.2110634-7.1579857,7.1356754
		c0,3.9570599,3.2210932,7.1356831,7.1579857,7.1356831s7.1579895-3.2110519,7.1579895-7.1356831
		C23.6859512,25.3866081,20.4648533,22.1755447,16.5279617,22.1755447z M16.5279617,31.9708862
		c-1.7746248,0-3.1668568-1.7630672-2.496542-3.6142902c0.2555599-0.7057858,0.8305359-1.2785854,1.5366297-1.5332966
		c1.8578615-0.6701927,3.6278906,0.7180996,3.6278906,2.4879208C19.1634026,30.7707863,17.9920959,31.9708862,16.5279617,31.9708862
		z"/>
	<path fill="#8B3FFD" d="M9.369976,24.2486362V34.6278H6.8321438L3.5785124,24.2486362H9.369976z"/>
</g>
<g id="Page-1">
	<g id="Artboard" transform="translate(-91.000000, -154.000000)">
		<g id="Group" transform="translate(91.000000, 154.000000)">
			<path id="Combined-Shape" fill-rule="evenodd" clip-rule="evenodd" fill="#37A72E" d="M48.4311981,24.9836731v3.3136311H50.27211
				v-1.9636345h2.0863571c0.8780975-0.0065193,1.6240082-0.5674362,1.9052811-1.3499966H48.4311981z"/>
			
				<linearGradient id="Combined-Shape_00000139973149872603304590000005742599355873806752_" gradientUnits="userSpaceOnUse" x1="-1785.3278809" y1="542.0067749" x2="-1785.2972412" y2="542.0067749" gradientTransform="matrix(201.7633057 0 0 -79 360261.84375 42842)">
				<stop  offset="0" style="stop-color:#00A0E5"/>
				<stop  offset="1" style="stop-color:#0077C3"/>
			</linearGradient>
			
				<path id="Combined-Shape_00000071547496215866313520000016141875339336809856_" fill-rule="evenodd" clip-rule="evenodd" fill="url(#Combined-Shape_00000139973149872603304590000005742599355873806752_)" d="
				M48.1857452,22.2529964c0.1072311,1.3544273,1.3885956,2.4238586,2.9535294,2.4238586c0.0051117,0,3.200943,0,3.200943,0
				c0.0236206-0.124218,0.0359802-0.2524281,0.0359802-0.3835239c0-1.1219749-0.9052048-2.0320358-2.0249939-2.0402813
				L48.1857452,22.2529964z"/>
			
				<path id="Combined-Shape_00000028285111021099417510000002401441004985745055_" fill-rule="evenodd" clip-rule="evenodd" fill="#37A72E" d="
				M45.4611969,24.6446247l0.001442-0.0030918l0.0001984,0.0000477c0.0188599-0.033865,0.0550308-0.0567722,0.0965424-0.0567722
				c0.0599747,0,0.1087875,0.0477982,0.1104126,0.1073761l0.0000534,0.0000114v3.5744247h1.8408966v-6.0136242h-1.8408966
				c-0.2334518,0.0077686-0.4972076,0.1790752-0.5952682,0.3893585l-1.465004,3.141716
				c-0.003624,0.0128441-0.0092773,0.0248318-0.0165939,0.0355949l-0.0004959,0.001049l-0.0001831-0.000061
				c-0.022171,0.0319042-0.0590744,0.0527897-0.1008682,0.0527897c-0.0677795,0-0.1227264-0.0549469-0.1227264-0.1227283v-3.4977188
				h-1.8409042v6.0136242h1.8409042V28.265934c0.2308884-0.0120583,0.4884567-0.1814365,0.585083-0.3886738l1.5036316-3.224535
				C45.4585724,24.6499672,45.4598312,24.6472645,45.4611969,24.6446247L45.4611969,24.6446247z"/>
			
				<path id="Combined-Shape_00000067918256371910138230000003614688541560293807_" fill-rule="evenodd" clip-rule="evenodd" fill="#37A72E" d="
				M38.5870552,24.7474194l-1.0759315,3.5192013H36.186821l-1.0765839-3.5213375
				c-0.0103836-0.0563889-0.0597916-0.0991096-0.1191864-0.0991096c-0.0669327,0-0.1211929,0.0542583-0.1211929,0.1211929
				c0,0.0005112,0,0.0010223,0.0000076,0.0015316l-0.0000076,3.4977226h-1.8409042v-6.0136242h1.5801125h0.4705849
				c0.3387375,0,0.6937027,0.2628746,0.7926865,0.5866413l0.8959236,2.9304295c0.0445747,0.1458015,0.1168976,0.1456451,0.1614189,0
				l0.8959274-2.9304295c0.0990524-0.3239937,0.4539108-0.5866413,0.7926865-0.5866413h0.4704437h1.5799789v6.0136242h-1.8409119
				v-3.4977207c0-0.0005112,0-0.0010223,0-0.0015335c0-0.0669346-0.0542564-0.1211929-0.1211929-0.1211929
				C38.6464691,24.6461735,38.5965652,24.6899776,38.5870552,24.7474194L38.5870552,24.7474194z"/>
		</g>
	</g>
</g>
<g>
	<path fill="#2566AF" d="M42.234436,36.4511223h-1.7327194l1.0829315-6.6552792h1.7328873L42.234436,36.4511223z
		 M39.0440521,29.7958431l-1.6518936,4.5775509l-0.1954689-0.9857216l0.0001793,0.0003548l-0.5830307-2.9929523
		c0,0-0.0705032-0.5992317-0.8219414-0.5992317h-2.7309036l-0.0320396,0.1126919c0,0,0.8351135,0.1737518,1.8124695,0.7606983
		l1.5053787,5.7820683h1.8053436l2.7567139-6.6554585H39.0440521L39.0440521,29.7958431z M52.6727371,36.4511223h1.591011
		l-1.3871689-6.6554565h-1.392868c-0.6432037,0-0.7998657,0.4959774-0.7998657,0.4959774l-2.5842133,6.1594791h1.8062439
		l0.3612137-0.9885712h2.2026978L52.6727371,36.4511223L52.6727371,36.4511223z M50.7660904,34.0969238l0.9104233-2.4905682
		l0.5121689,2.4905682H50.7660904z M48.2351151,31.3962879l0.2472763-1.429184c0,0-0.7630157-0.2901802-1.5584259-0.2901802
		c-0.8598633,0-2.9018097,0.3758087-2.9018097,2.2032337c0,1.7193642,2.3965683,1.7407265,2.3965683,2.6438446
		s-2.1496429,0.7412949-2.8590698,0.1717949l-0.2576065,1.494339c0,0,0.7736969,0.3758125,1.95578,0.3758125
		c1.1824417,0,2.9662552-0.6122322,2.9662552-2.2785416c0-1.7304001-2.4181137-1.89151-2.4181137-2.6438446
		C45.8061447,30.8910522,47.4936447,30.9877205,48.2351151,31.3962879L48.2351151,31.3962879z"/>
	<path fill="#E6A540" d="M37.1968689,33.3878479l-0.5830307-2.9929504c0,0-0.0705032-0.5992317-0.8219414-0.5992317h-2.7309036
		l-0.0320396,0.11269c0,0,1.3125763,0.2720222,2.5715637,1.2912121
		C36.8043213,32.1737175,37.1968689,33.3878479,37.1968689,33.3878479z"/>
</g>
<path id="Shape_5_copy_16" fill-rule="evenodd" clip-rule="evenodd" fill="#F4A800" d="M10.1324129,11.8235493
	c-0.4850569-0.4786367-1.2647009-0.4786367-1.7497568,0c-0.4790878,0.4732609-0.4838104,1.2452927-0.0105495,1.7243795
	c0.0034952,0.0035372,0.0070114,0.0070543,0.0105495,0.0105486l4.7838058,4.7427311l1.7497578-1.7349281L10.1324129,11.8235493z"/>
<path id="Shape_5_copy_15" fill-rule="evenodd" clip-rule="evenodd" fill="#F4A800" d="M15.1075048,9.1046047l-4.7848434-4.7421384
	L8.5729046,6.0973949l4.7841024,4.7421379c0.4854155,0.4777584,1.2643414,0.4777584,1.7497568,0
	c0.47929-0.4728231,0.4845314-1.2446632,0.0117083-1.7239523C15.1148396,9.1118984,15.1111841,9.1082401,15.1075048,9.1046047z"/>
<path id="Shape_5_copy_6" fill-rule="evenodd" clip-rule="evenodd" fill="#FFBB13" d="M10.5016403,4.6172194L10.322958,4.3624663
	l-6.3809781,6.3096538c-0.4796536,0.4726868-0.485301,1.2447119-0.0126138,1.7243652
	c0.0034912,0.0035429,0.0070038,0.0070629,0.0105379,0.0105629c0.4848726,0.4789801,1.2644913,0.4799051,1.7504985,0.0020761
	l4.7778745-4.7250853C11.4884739,6.6757045,10.9361143,5.2373452,10.5016403,4.6172194z"/>
<path id="Shape_5_copy_4" fill-rule="evenodd" clip-rule="evenodd" fill="#FFBB13" d="M19.5495148,10.2560329
	c-0.484972-0.4790154-1.2646866-0.4799395-1.7507935-0.0020752l-4.7775784,4.7246408
	c-1.02005,1.0083351-0.4678373,2.4466944-0.0332155,3.0674124l0.1785345,0.2551975l6.3809795-6.3099499
	c0.4797363-0.4735374,0.4847603-1.2463169,0.0112247-1.7260532C19.5556316,10.2621317,19.5525818,10.2590742,19.5495148,10.2560329z
	"/>
<g>
	<path fill="#FFFFFF" d="M34.0512695,6.2324219l5.0273438,11.2211914h-3.7255859l-4.0698242-9.7104492h0.9428711
		l-4.0844727,9.7104492h-3.7109375l5.012207-11.2211914H34.0512695z M27.8422852,15.4335938v-2.7827148h7.6904297v2.7827148
		H27.8422852z"/>
	<path fill="#FFFFFF" d="M50.4345703,14.9697266l-1.0024414,0.2094727V6.2324219h3.3813477v11.2211914h-4.3686523
		l-6.0297852-8.9472656l0.9873047-0.2094727v9.1567383h-3.3662109V6.2324219h4.503418L50.4345703,14.9697266z"/>
	<path fill="#FFFFFF" d="M53.815918,6.2324219h3.8295898l3.9052734,4.9970703h-1.4960938l3.890625-4.9970703h3.8291016
		l-5.8496094,7.4658203l-2.2441406,0.0449219L53.815918,6.2324219z M59.0673828,17.4536133v-5.5058594h3.4863281v5.5058594
		H59.0673828z"/>
	<path fill="#FFFFFF" d="M75.2255859,6.2324219c0.9765625,0,1.8173828,0.1645508,2.5205078,0.4936523
		s1.2392578,0.7905273,1.6083984,1.3837891c0.3691406,0.59375,0.5537109,1.2944336,0.5537109,2.1020508
		c0,0.7983398-0.1845703,1.4960938-0.5537109,2.0947266s-0.9052734,1.0625-1.6083984,1.3916016
		s-1.5439453,0.4936523-2.5205078,0.4936523h-4.8027344v-2.7529297h4.578125c0.4384766,0,0.7802734-0.1098633,1.0244141-0.3291016
		s0.3671875-0.5185547,0.3671875-0.8979492c0-0.3989258-0.1230469-0.703125-0.3671875-0.9125977
		s-0.5859375-0.3139648-1.0244141-0.3139648h-4.2792969l1.5712891-1.5859375v10.0541992h-3.4863281V6.2324219H75.2255859z"/>
	<path fill="#FFFFFF" d="M88.5263672,6.2324219l5.0273438,11.2211914H89.828125l-4.0693359-9.7104492h0.9423828
		l-4.0849609,9.7104492H78.90625l5.0117188-11.2211914H88.5263672z M82.3173828,15.4335938v-2.7827148h7.6904297v2.7827148
		H82.3173828z"/>
	<path fill="#FFFFFF" d="M91.1601562,6.2324219h3.8300781l3.9052734,4.9970703h-1.4960938l3.8896484-4.9970703h3.8300781
		l-5.8496094,7.4658203l-2.2441406,0.0449219L91.1601562,6.2324219z M96.4121094,17.4536133v-5.5058594h3.4853516v5.5058594
		H96.4121094z"/>
</g>
</svg>
