<?xml version="1.0" encoding="utf-8"?>
<!-- Generator: Adobe Illustrator 27.2.0, SVG Export Plug-In . SVG Version: 6.00 Build 0)  -->
<svg version="1.1" id="Слой_1" xmlns="http://www.w3.org/2000/svg" xmlns:xlink="http://www.w3.org/1999/xlink" x="0px" y="0px"
	 viewBox="0 0 110 40" enable-background="new 0 0 110 40" xml:space="preserve">
<g>
	<path fill="#FFFFFF" d="M28.6954689,7.3217931v0.4536376h-3.241663V7.7040658c0-0.5402775-0.4383316-0.9786091-0.9786091-0.9786091
		h-4.5668945c-0.5402775,0-0.9786091,0.4383316-0.9786091,0.9786091v8.3641415c0,0.5402775,0.4383316,0.9786091,0.9786091,0.9786091
		h4.5668945c0.5402775,0,0.9786091-0.4383316,0.9786091-0.9786091v-0.0662632h3.241663v0.4536381
		c0,1.8348961-1.488306,3.3181-3.3181305,3.3181h-6.3151188c-1.8298264,0-3.3130293-1.4832039-3.3130293-3.3181V7.3217931
		c0-1.8348961,1.4832029-3.318131,3.3130293-3.318131h6.3151188C27.2071629,4.0036621,28.6954689,5.486897,28.6954689,7.3217931z"/>
	<path fill="#FFFFFF" d="M28.6954689,8.417654v2.9766111h-8.3437328V8.534874c0-0.0662632,0.0509872-0.1172199,0.1172504-0.1172199
		h3.0887623c0.061161,0,0.1121178,0.0509567,0.1121178,0.1172199v2.0489912h1.7839394V8.417654H28.6954689z"/>
	<path fill="#FFFFFF" d="M28.6954689,12.0415907v3.3130283h-3.241663v-2.3802748h-1.7839394v2.268157
		c0,0.061161-0.0509567,0.1121178-0.1121178,0.1121178h-3.0887623c-0.0662632,0-0.1172504-0.0509567-0.1172504-0.1121178v-3.2009106
		H28.6954689z"/>
</g>
<g>
	<path fill="#FFFFFF" d="M44.6806641,12.7299061c-0.0961914,0.800293-0.3740234,1.5043945-0.8339844,2.1123047
		s-1.0678711,1.0795898-1.8242188,1.4160156c-0.7558594,0.3359375-1.6220703,0.5039062-2.5976562,0.5039062
		c-1.0561523,0-1.9799805-0.1962891-2.7719727-0.5878906c-0.7919922-0.3920898-1.4082031-0.9399414-1.8481445-1.644043
		s-0.6601562-1.5283203-0.6601562-2.472168s0.2202148-1.7680664,0.6601562-2.472168
		c0.4399414-0.7036133,1.0561523-1.2519531,1.8481445-1.644043c0.7919922-0.3916016,1.7158203-0.5878906,2.7719727-0.5878906
		c0.9755859,0,1.8417969,0.1679688,2.5976562,0.5039062c0.7563477,0.3364258,1.3642578,0.8061523,1.8242188,1.4101562
		s0.737793,1.3100586,0.8339844,2.1181641h-2.8081055c-0.0800781-0.3442383-0.2260742-0.6381836-0.4379883-0.8823242
		c-0.2119141-0.2436523-0.4858398-0.4316406-0.8217773-0.5639648c-0.3364258-0.1318359-0.7324219-0.1977539-1.1879883-0.1977539
		c-0.512207,0-0.9521484,0.0917969-1.3203125,0.2758789s-0.6518555,0.4501953-0.8520508,0.7978516
		c-0.199707,0.3481445-0.2998047,0.762207-0.2998047,1.2421875s0.1000977,0.8920898,0.2998047,1.2358398
		c0.2001953,0.3442383,0.4838867,0.6103516,0.8520508,0.7983398s0.8081055,0.2817383,1.3203125,0.2817383
		c0.4555664,0,0.8515625-0.0620117,1.1879883-0.1860352c0.3359375-0.1240234,0.6098633-0.3100586,0.8217773-0.5581055
		c0.2119141-0.2475586,0.3579102-0.5478516,0.4379883-0.8999023H44.6806641z"/>
	<path fill="#FFFFFF" d="M45.4604492,13.6058826h2.8320312c0.03125,0.2084961,0.1328125,0.3901367,0.3066406,0.5463867
		c0.171875,0.1557617,0.4042969,0.2758789,0.7011719,0.3598633s0.6445312,0.1259766,1.0449219,0.1259766
		c0.5507812,0,0.9804688-0.0639648,1.2890625-0.1918945s0.4628906-0.3242188,0.4628906-0.5883789
		c0-0.1835938-0.0898438-0.3339844-0.265625-0.449707c-0.1757812-0.1162109-0.5234375-0.1938477-1.0429688-0.2338867
		l-1.5839844-0.1323242c-1.296875-0.0957031-2.234375-0.3779297-2.8144531-0.8457031
		c-0.5800781-0.4682617-0.8691406-1.0981445-0.8691406-1.8901367c0-0.6479492,0.1875-1.1899414,0.5625-1.6259766
		c0.3769531-0.4360352,0.9003906-0.7661133,1.5722656-0.9902344c0.671875-0.2236328,1.4648438-0.3359375,2.3769531-0.3359375
		c0.8789062,0,1.6621094,0.1240234,2.3457031,0.3720703s1.2285156,0.5981445,1.6328125,1.0498047
		c0.4023438,0.4521484,0.625,0.9780273,0.6660156,1.578125h-2.8320312
		c-0.0332031-0.1757812-0.1230469-0.3300781-0.2714844-0.4619141s-0.3574219-0.2338867-0.6289062-0.3061523
		C50.6713867,9.5140858,50.3491211,9.477953,49.972168,9.477953c-0.4960938,0-0.890625,0.0600586-1.1816406,0.1801758
		c-0.2929688,0.1201172-0.4375,0.2998047-0.4375,0.5400391c0,0.1757812,0.0859375,0.3198242,0.2578125,0.4316406
		c0.171875,0.1123047,0.4902344,0.1884766,0.953125,0.2280273l1.7402344,0.144043
		c0.8632812,0.0644531,1.5625,0.1982422,2.09375,0.4023438c0.5332031,0.2036133,0.9179688,0.4799805,1.1582031,0.8276367
		c0.2402344,0.3481445,0.359375,0.7861328,0.359375,1.3139648c0,0.6401367-0.1914062,1.2021484-0.5761719,1.6860352
		c-0.3828125,0.484375-0.921875,0.8603516-1.6132812,1.1279297c-0.6914062,0.2680664-1.5019531,0.4023438-2.4296875,0.4023438
		c-0.953125,0-1.7871094-0.1323242-2.5078125-0.3959961c-0.7207031-0.2641602-1.2851562-0.6342773-1.6914062-1.1098633
		C45.6889648,14.7801991,45.4760742,14.2299061,45.4604492,13.6058826z"/>
	<path fill="#FFFFFF" d="M56.0927734,7.5580311h2.7958984v9h-2.7958984V7.5580311z M57.6640625,10.7382069h6.5644531v2.4716797
		h-6.5644531V10.7382069z M63.1005859,7.5580311h2.7958984v9h-2.7958984V7.5580311z"/>
	<path fill="#FFFFFF" d="M72.4970703,16.7621326c-1.0800781,0-2.0263672-0.1962891-2.8378906-0.5878906
		c-0.8125-0.3920898-1.4443359-0.9399414-1.8964844-1.644043s-0.6777344-1.5283203-0.6777344-2.472168
		s0.2255859-1.7680664,0.6777344-2.472168c0.4521484-0.7036133,1.0839844-1.2519531,1.8964844-1.644043
		c0.8115234-0.3916016,1.7578125-0.5878906,2.8378906-0.5878906s2.0253906,0.1962891,2.8378906,0.5878906
		c0.8115234,0.3920898,1.4433594,0.9404297,1.8955078,1.644043c0.4521484,0.7041016,0.6787109,1.5283203,0.6787109,2.472168
		s-0.2265625,1.7680664-0.6787109,2.472168s-1.0839844,1.2519531-1.8955078,1.644043
		C74.5224609,16.5658436,73.5771484,16.7621326,72.4970703,16.7621326z M72.4970703,14.2782459
		c0.5351562,0,0.9980469-0.090332,1.3857422-0.2700195c0.3876953-0.1801758,0.6855469-0.4360352,0.8935547-0.7680664
		s0.3125-0.7260742,0.3125-1.1821289s-0.1044922-0.8500977-0.3125-1.1821289
		c-0.2080078-0.331543-0.5058594-0.5878906-0.8935547-0.7680664c-0.3876953-0.1796875-0.8505859-0.2700195-1.3857422-0.2700195
		c-0.5361328,0-0.9980469,0.090332-1.3867188,0.2700195c-0.3876953,0.1801758-0.6855469,0.4365234-0.8935547,0.7680664
		c-0.2080078,0.3320312-0.3125,0.7260742-0.3125,1.1821289s0.1044922,0.8500977,0.3125,1.1821289
		s0.5058594,0.5878906,0.8935547,0.7680664C71.4990234,14.1879139,71.9609375,14.2782459,72.4970703,14.2782459z"/>
	<path fill="#FFFFFF" d="M78.7480469,13.6058826h2.8320312c0.0322266,0.2084961,0.1337891,0.3901367,0.3066406,0.5463867
		c0.171875,0.1557617,0.4052734,0.2758789,0.7021484,0.3598633c0.2958984,0.0839844,0.6435547,0.1259766,1.0439453,0.1259766
		c0.5517578,0,0.9814453-0.0639648,1.2900391-0.1918945c0.3076172-0.1279297,0.4619141-0.3242188,0.4619141-0.5883789
		c0-0.1835938-0.0888672-0.3339844-0.2646484-0.449707c-0.1757812-0.1162109-0.5234375-0.1938477-1.0439453-0.2338867
		l-1.5839844-0.1323242c-1.2958984-0.0957031-2.2333984-0.3779297-2.8134766-0.8457031
		c-0.5800781-0.4682617-0.8701172-1.0981445-0.8701172-1.8901367c0-0.6479492,0.1875-1.1899414,0.5634766-1.6259766
		s0.9003906-0.7661133,1.5722656-0.9902344c0.671875-0.2236328,1.4638672-0.3359375,2.3759766-0.3359375
		c0.8798828,0,1.6621094,0.1240234,2.3457031,0.3720703c0.6845703,0.2480469,1.2285156,0.5981445,1.6328125,1.0498047
		c0.4033203,0.4521484,0.625,0.9780273,0.6660156,1.578125h-2.8320312
		c-0.0322266-0.1757812-0.1220703-0.3300781-0.2705078-0.4619141s-0.3583984-0.2338867-0.6298828-0.3061523
		c-0.2724609-0.0717773-0.5957031-0.1079102-0.9716797-0.1079102c-0.4960938,0-0.890625,0.0600586-1.1826172,0.1801758
		s-0.4375,0.2998047-0.4375,0.5400391c0,0.1757812,0.0859375,0.3198242,0.2578125,0.4316406
		c0.171875,0.1123047,0.4902344,0.1884766,0.9541016,0.2280273l1.7402344,0.144043
		c0.8632812,0.0644531,1.5615234,0.1982422,2.09375,0.4023438c0.5322266,0.2036133,0.9179688,0.4799805,1.1582031,0.8276367
		c0.2392578,0.3481445,0.359375,0.7861328,0.359375,1.3139648c0,0.6401367-0.1914062,1.2021484-0.5761719,1.6860352
		c-0.3837891,0.484375-0.921875,0.8603516-1.6132812,1.1279297c-0.6923828,0.2680664-1.5019531,0.4023438-2.4306641,0.4023438
		c-0.9521484,0-1.7871094-0.1323242-2.5078125-0.3959961c-0.7197266-0.2641602-1.2841797-0.6342773-1.6914062-1.1098633
		C78.9765625,14.7801991,78.7646484,14.2299061,78.7480469,13.6058826z"/>
	<path fill="#FFFFFF" d="M88.5410156,7.5580311h9.4677734v2.4838867h-9.4677734V7.5580311z M91.8769531,8.7699451h2.7958984
		v7.7880859h-2.7958984V8.7699451z"/>
</g>
<g>
	<polygon fill="#FFFFFF" points="16.1396313,34.0705719 19.7139969,34.0705719 19.7139969,30.4962063 16.1396313,30.4962063 	"/>
	<path fill="#89AF39" d="M16.1396313,24.9517193v4.4468479h0.9569168c2.4767246,0,3.7432327,1.2665062,3.7432327,3.7432327
		v0.9569168h4.4468479v-9.1469975H16.1396313L16.1396313,24.9517193z M23.3727951,26.8374081L23.3727951,26.8374081
		c0,1.2102184,0,4.1372566,0,5.3474751c-0.3377342,0-0.3940239,0-0.7317581,0
		c-0.3095913-2.6455936-1.9701233-4.3061256-4.6157169-4.615715c0-0.3377361,0-0.3940258,0-0.73176
		C19.2355385,26.8374081,22.1625786,26.8374081,23.3727951,26.8374081L23.3727951,26.8374081z"/>
	<g>
		<path fill="#FFFFFF" d="M30.6671333,32.8322105v1.125782h-4.2216911c0.0562878-0.4221687,0.1970119-0.8161926,0.4221687-1.2102165
			c0.2251587-0.3940239,0.6754684-0.8724823,1.3509426-1.5198097c0.5347462-0.5066032,0.8724842-0.8443375,1.0132084-1.0413513
			c0.168869-0.2533016,0.2532997-0.5066013,0.2532997-0.73176c0-0.2814465-0.0844364-0.4784584-0.2251587-0.6191807
			c-0.1407223-0.1407242-0.3377342-0.2251568-0.5910378-0.2251568c-0.2532997,0-0.4503155,0.0844326-0.5910397,0.2251568
			c-0.1407223,0.1407223-0.2251568,0.3940239-0.2532997,0.7599049l-1.2102184-0.1125793
			c0.0844345-0.6754704,0.3095913-1.1539288,0.6754684-1.4353752c0.365881-0.2814465,0.8443394-0.4221687,1.4072304-0.4221687
			c0.6191807,0,1.0976391,0.1688671,1.4635201,0.5066032c0.3658791,0.3377342,0.5347443,0.7599049,0.5347443,1.2383614
			c0,0.2814465-0.0562878,0.5628929-0.1407223,0.8161945c-0.1125774,0.2533016-0.2532997,0.5347481-0.4784584,0.8161945
			c-0.1407223,0.1970119-0.4221687,0.4503117-0.7880497,0.8161926c-0.394022,0.3377361-0.6191807,0.5910358-0.73176,0.7036152
			c-0.1125774,0.1125793-0.1970119,0.2251587-0.2533016,0.337738h2.3641548V32.8322105z"/>
		<path fill="#FFFFFF" d="M33.8474693,33.9579926v-1.2665062h-2.5893021v-1.0694942l2.7300262-3.9965363h1.0132103v3.9965363
			h0.7880478v1.0694942h-0.7880478v1.2665062H33.8474693z M33.8474693,31.6219921v-2.1389904l-1.4353752,2.1389904H33.8474693z"/>
	</g>
</g>
<g>
	<path fill-rule="evenodd" clip-rule="evenodd" fill="#FFFFFF" d="M50.7364883,27.044632v-2.4769135
		c0-0.7006416-0.3749886-1.0361595-1.0065536-1.0361595c-0.5230141,0-0.9769516,0.3157806-1.1841812,0.6216946
		c-0.1282883-0.3947258-0.4440689-0.6216946-0.9473457-0.6216946c-0.5230141,0-0.9769516,0.3256493-1.1249733,0.5328808v-0.444067
		H45.575428v3.4242592h0.8980064v-2.3091545c0.1381531-0.1874962,0.3947258-0.4045963,0.7105103-0.4045963
		c0.3651199,0,0.5131454,0.2269688,0.5131454,0.5427494v2.1710014h0.9078712v-2.3190231
		c0.1282883-0.1874962,0.3947296-0.3947277,0.7105103-0.3947277c0.3651237,0,0.5131454,0.2269688,0.5131454,0.5427494v2.1710014
		H50.7364883z M53.2232704,27.1334457c-1.1249733,0-1.8157463-0.828928-1.8157463-1.8058777
		s0.6809082-1.7960091,1.8157463-1.7960091c1.1348419,0,1.8157463,0.8289261,1.8157463,1.7960091
		C55.0390167,26.3045177,54.3581123,27.1334457,53.2232704,27.1334457z M53.2232704,26.324255
		c0.5624886,0,0.8782692-0.4638062,0.8782692-1.0065556c0-0.5328808-0.3157806-0.9966869-0.8782692-0.9966869
		c-0.5624847,0-0.8782654,0.4638042-0.8782654,0.9966869C52.345005,25.8604488,52.6607857,26.324255,53.2232704,26.324255z
		 M58.9270821,27.044632v-2.4275742c0-0.6710358-0.3651237-1.0953674-1.1151047-1.0953674
		c-0.5624886,0-0.9769516,0.2664413-1.2039185,0.5328827v-0.4440689h-0.8980064v3.4341278h0.8980064v-2.3091545
		c0.1480217-0.2072315,0.4243317-0.4045963,0.7795868-0.4045963c0.3848572,0,0.6315651,0.1677589,0.6315651,0.6414318v2.072319
		H58.9270821z M61.4138641,27.1334457c-1.1249733,0-1.8157463-0.828928-1.8157463-1.8058777
		s0.6809044-1.7960091,1.8157463-1.7960091s1.8157463,0.8289261,1.8157463,1.7960091
		C63.2296104,26.3045177,62.5487061,27.1334457,61.4138641,27.1334457z M61.4138641,26.324255
		c0.5624847,0,0.8782654-0.4638062,0.8782654-1.0065556c0-0.5328808-0.3157806-0.9966869-0.8782654-0.9966869
		c-0.5624886,0-0.8782692,0.4638042-0.8782692,0.9966869C60.5355949,25.8604488,60.8513756,26.324255,61.4138641,26.324255z"/>
</g>
<g>
	<path fill="#2566AF" d="M53.4129066,33.2749977h-1.2144623l0.7590256-4.6646957h1.2145844L53.4129066,33.2749977z
		 M51.1767616,28.610302l-1.157814,3.2084122l-0.1370049-0.6908932l0.0001259,0.000248l-0.4086494-2.097765
		c0,0-0.0494118-0.420002-0.5760956-0.420002h-1.9140968l-0.0224571,0.0789852c0,0,0.585331,0.1217823,1.2703629,0.5331745
		l1.0551224,4.0526619h1.2653694l1.9321861-4.6648216H51.1767616L51.1767616,28.610302z M60.729126,33.2749977h1.1151428
		l-0.9722672-4.6648197h-0.976265c-0.4508209,0-0.560627,0.3476315-0.560627,0.3476315l-1.8112755,4.3171883h1.2659988
		l0.2531738-0.692894h1.5438728L60.729126,33.2749977L60.729126,33.2749977z M59.3927574,31.6249352l0.6381149-1.7456436
		l0.3589821,1.7456436H59.3927574z M57.6187897,29.7320557l0.173317-1.0017166c0,0-0.5347939-0.2033882-1.0923042-0.2033882
		c-0.6026764,0-2.0338783,0.2634048-2.0338783,1.5442505c0,1.2051048,1.67976,1.2200775,1.67976,1.8530731
		c0,0.6329994-1.506691,0.519577-2.0039291,0.1204109l-0.1805573,1.0473862c0,0,0.5422859,0.2634087,1.3708115,0.2634087
		c0.8287735,0,2.0790482-0.4291153,2.0790482-1.5970345c0-1.212841-1.6948586-1.3257618-1.6948586-1.853075
		c0.0001221-0.5274353,1.1828957-0.4596806,1.7025948-0.173315H57.6187897z"/>
	<path fill="#E6A540" d="M49.8820686,31.127943L49.4734192,29.03018c0,0-0.0494118-0.420002-0.5760956-0.420002h-1.9140968
		l-0.0224571,0.0789833c0,0,0.9199867,0.1906605,1.8024139,0.9050121
		C49.6069336,30.2769566,49.8820686,31.127943,49.8820686,31.127943z"/>
</g>
<path fill="#FFFFFF" d="M84.7846603,28.3538322v2.893652h-0.9334335v-7.1563454h2.4269333
	c0.5911789,0,1.1512375,0.217802,1.5868378,0.6222916c0.4356079,0.3733749,0.6534119,0.9334354,0.6534119,1.5246124
	s-0.217804,1.1201229-0.6534119,1.5246124c-0.4356003,0.4044895-0.9645462,0.6222916-1.5868378,0.6222916L84.7846603,28.3538322
	L84.7846603,28.3538322z M84.7846603,24.962347v2.4891624h1.5557327c0.3422546,0,0.6845169-0.1244583,0.9023209-0.3733749
	c0.4978333-0.4667168,0.4978333-1.2445812,0.0311127-1.7112999l-0.0311127-0.0311146
	c-0.2489166-0.2489166-0.5600662-0.4044876-0.9023209-0.373373H84.7846603L84.7846603,24.962347z"/>
<path fill="#FFFFFF" d="M90.6653137,26.2069283c0.6845169,0,1.2134628,0.1866875,1.6179581,0.5600624
	c0.4044876,0.373373,0.5911713,0.8712063,0.5911713,1.4934978v2.9869957h-0.8712082v-0.6845207h-0.0311127
	c-0.3733749,0.5600624-0.9023209,0.8400936-1.5246124,0.8400936c-0.5289459,0-0.9956665-0.1555729-1.3690414-0.4667187
	c-0.3422623-0.3111458-0.5600586-0.746748-0.5600586-1.2134666c0-0.4978333,0.1866837-0.9023209,0.5600586-1.2134666
	s0.9023209-0.4356041,1.5246124-0.4356041c0.5600662,0,0.9956665,0.0933437,1.3379288,0.3111458v-0.217802
	c0-0.3111458-0.1244583-0.6222916-0.3733749-0.808979c-0.2489166-0.217802-0.5600662-0.3422604-0.9023209-0.3422604
	c-0.5289536,0-0.9334412,0.217802-1.2134705,0.6534061l-0.8089752-0.4978333
	C89.1407013,26.518074,89.7941055,26.2069283,90.6653137,26.2069283z M89.4829559,29.7539864
	c0,0.2489166,0.1244583,0.4667187,0.3111496,0.591177c0.217804,0.1555729,0.4667206,0.2489147,0.7156372,0.2489147
	c0.3733673,0,0.7467422-0.1555729,1.0267792-0.4356022c0.311142-0.2800312,0.466713-0.6222916,0.466713-0.9956665
	c-0.2800293-0.217802-0.6845169-0.3422604-1.2134628-0.3422604c-0.3733749,0-0.6845245,0.0933437-0.9334412,0.2800312
	C89.6074142,29.2561531,89.4829559,29.4739552,89.4829559,29.7539864z"/>
<path fill="#FFFFFF" d="M97.9150009,26.3625011l-3.0803375,7.0630016h-0.9334412l1.1512375-2.4580498l-2.0224457-4.5738373
	h0.9956665l1.4623795,3.5159435h0.0311127l1.4312744-3.5159435h0.9645538V26.3625011z"/>
<path fill="#4285F4" d="M81.0820312,27.7315407c0-0.2800312-0.0311127-0.5600605-0.0622253-0.8400917h-3.8893204v1.5868416
	h2.2091293c-0.093338,0.4978313-0.3733749,0.96455-0.8089752,1.2445812v1.0267792h1.3379288
	C80.646431,30.0340176,81.0820312,28.9761219,81.0820312,27.7315407z"/>
<path fill="#34A853" d="M77.1304855,31.7453175c1.1201248,0,2.0535583-0.3733749,2.7380829-0.9956665l-1.3379288-1.0267792
	c-0.3733749,0.2489166-0.8400955,0.4044895-1.4001541,0.4044895c-1.0578918,0-1.991333-0.7156353-2.302475-1.7112999h-1.3690414
	v1.0578938C74.1746063,30.8741093,75.5747604,31.7453175,77.1304855,31.7453175z"/>
<path fill="#FBBC04" d="M74.8280106,28.4160614c-0.1866913-0.4978333-0.1866913-1.0578957,0-1.5868416v-1.0578957h-1.3690414
	c-0.5911789,1.1512375-0.5911789,2.5202789,0,3.702631L74.8280106,28.4160614z"/>
<path fill="#EA4335" d="M77.1304855,25.1490345c0.5911789,0,1.1512375,0.2178001,1.5868378,0.6222897l0,0l1.1823578-1.1823521
	c-0.7467499-0.6845207-1.7424164-1.0890102-2.7380829-1.0578957c-1.5557251,0-2.9869919,0.8712082-3.6715164,2.2713623
	l1.3690414,1.0578957C75.1391525,25.8646679,76.0725937,25.1490345,77.1304855,25.1490345z"/>
</svg>
