<?xml version="1.0" encoding="utf-8"?>
<!-- Generator: Adobe Illustrator 27.2.0, SVG Export Plug-In . SVG Version: 6.00 Build 0)  -->
<svg version="1.1" id="Слой_1" xmlns="http://www.w3.org/2000/svg" xmlns:xlink="http://www.w3.org/1999/xlink" x="0px" y="0px"
	 viewBox="0 0 110 40" enable-background="new 0 0 110 40" xml:space="preserve">
<g>
	<path fill="#FFFFFF" d="M71.0946274,22.0935936c-3.7669373,0-6.8528214,2.9311028-7.1458817,6.655735l3.8432999,1.6035671
		c0.3255615-0.2249546,0.7192307-0.3560047,1.1423111-0.3560047c0.0381775,0,0.0758438,0.0010319,0.1129913,0.0030956
		l1.7093353-2.5002861v-0.0350838c0-1.5045071,1.2129974-2.7288513,2.7040863-2.7288513s2.7040863,1.2243443,2.7040863,2.7288513
		s-1.2129974,2.7293663-2.7040863,2.7293663c-0.0206375,0-0.0407639-0.0005169-0.0614014-0.0010319l-2.437851,1.7547398
		c0.0015488,0.032505,0.0025787,0.065012,0.0025787,0.0969982c0,1.1299286-0.9106522,2.0488319-2.0297394,2.0488319
		c-0.9823685,0-1.8042755-0.7078819-1.9900131-1.6448441l-2.7489777-1.1469517
		c0.8513184,3.0373859,3.6167984,5.2642231,6.8992615,5.2642231c3.9604263,0,7.1706543-3.2401581,7.1706543-7.2361794
		C78.2652817,25.3332329,75.0550537,22.0935936,71.0946274,22.0935936z M68.4423447,33.0732841l-0.880722-0.3673553
		c0.1558151,0.3281441,0.4261703,0.6026306,0.7847595,0.7532845c0.7749481,0.3260803,1.6685715-0.0448875,1.9915543-0.8275795
		c0.1563339-0.3787079,0.1573639-0.7966251,0.0025864-1.176363c-0.1547852-0.3797379-0.4473267-0.6758919-0.8224258-0.8337727
		c-0.3730316-0.156332-0.772377-0.1506577-1.1232224-0.017025l0.9101334,0.3797379
		c0.5716705,0.2404308,0.8420334,0.9029083,0.6036606,1.4797401C69.6708221,33.0407829,69.0140152,33.3137169,68.4423447,33.0732841
		z M75.2626648,27.4646683c0-1.0024891-0.8084869-1.8187199-1.8016891-1.8187199
		c-0.9937134,0-1.8022079,0.8162308-1.8022079,1.8187199s0.8084946,1.8182011,1.8022079,1.8182011
		C74.4541779,29.2828693,75.2626648,28.4671555,75.2626648,27.4646683z M72.1102219,27.4615726
		c0-0.7543163,0.6062393-1.365715,1.3533325-1.365715c0.747612,0,1.3538513,0.6113987,1.3538513,1.365715
		s-0.6062393,1.365715-1.3538513,1.365715C72.7164612,28.8272877,72.1102219,28.215889,72.1102219,27.4615726z"/>
</g>
<g>
	<path fill="#8A92B2" d="M84.7687836,27.4452209v-5.3516273l-4.441452,7.3703156L84.7687836,27.4452209z"/>
	<path fill="#62688F" d="M84.7687836,32.0899353v-4.6447144l-4.441452,2.0186882L84.7687836,32.0899353z M84.7687836,27.4452209
		l4.4422684,2.0186882l-4.4422684-7.3703156V27.4452209z"/>
	<path fill="#454A75" d="M84.7687836,27.4452209v4.6447144l4.4422684-2.6260262L84.7687836,27.4452209z"/>
	<path fill="#8A92B2" d="M84.7687836,32.9309883l-4.441452-2.6243801l4.441452,6.2593403V32.9309883z"/>
	<path fill="#62688F" d="M89.2135239,30.3066082l-4.4447403,2.6243801v3.6349602L89.2135239,30.3066082z"/>
</g>
<g id="Layer_x0020_1">
	<g id="_1421344023328">
		<path fill="#F7931A" d="M106.0600128,31.0802364c-0.9664459,3.8765621-4.8927765,6.2357616-8.7697906,5.2690716
			c-3.8753967-0.9664459-6.2345963-4.8930206-5.2677307-8.7692642c0.9660187-3.8769875,4.8923492-6.2363625,8.7681656-5.2699203
			c3.8767395,0.966444,6.2357941,4.8934441,5.269249,8.7701836l0.0000687-0.0000706H106.0600128z"/>
		<path fill="#FFFFFF" d="M102.2319794,28.2987919c0.1440201-0.9629765-0.5891266-1.4806137-1.5916443-1.8259277
			l0.3252258-1.3044376l-0.7940521-0.1978588l-0.316597,1.270092c-0.2087479-0.0520611-0.4231262-0.1011219-0.6361923-0.1497536
			l0.3188934-1.2784767l-0.7935562-0.1978588l-0.3254089,1.3040142c-0.1727448-0.0393314-0.3424149-0.0782032-0.507019-0.1191616
			l0.0009155-0.0041027l-1.0950089-0.2734432l-0.2112274,0.8480968c0,0,0.589119,0.1350422,0.5767059,0.1433525
			c0.3215485,0.0802555,0.3796921,0.293108,0.3700333,0.4618225l-0.3704605,1.486063
			c0.0221405,0.0056229,0.0508652,0.0137596,0.0825577,0.0264912c-0.0264969-0.0065784-0.0546875-0.0137596-0.0839386-0.0207634
			l-0.5192642,2.0817623c-0.0392914,0.0976887-0.1390381,0.244297-0.3638458,0.1886253
			c0.0079575,0.0115299-0.5771332-0.1440258-0.5771332-0.1440258l-0.3942261,0.9089317l1.0333252,0.2575989
			c0.1922379,0.0482101,0.3806152,0.0986481,0.566124,0.1460762l-0.3285828,1.3193989l0.7931366,0.1978607l0.3254013-1.3053932
			c0.2166748,0.0588188,0.4269485,0.1130791,0.6327972,0.1642189l-0.3243027,1.2992401l0.7940903,0.1978607l0.3285446-1.316925
			c1.3540268,0.2562523,2.3721466,0.1529388,2.8006821-1.0717754c0.3453217-0.9860382-0.017189-1.5547829-0.729538-1.9256706
			c0.5188446-0.1196575,0.9096451-0.4609051,1.0138397-1.165823l-0.0002441-0.0001774L102.2319794,28.2987919z
			 M100.4177551,30.8428001c-0.2453995,0.9860363-1.9055862,0.4530144-2.44384,0.3193531l0.4360352-1.7479725
			c0.5382233,0.134367,2.264267,0.40028,2.007843,1.4286194H100.4177551z M100.6633224,28.2845039
			c-0.2238541,0.8969059-1.6056442,0.4412365-2.0538864,0.3295059l0.3953323-1.58531
			c0.4482422,0.1117344,1.8917542,0.3202744,1.6586227,1.2558041H100.6633224z"/>
	</g>
</g>
<g>
	<g>
		<polygon fill="#5B57A2" points="48.1695747,25.2438602 49.9282722,28.3768234 49.9282799,30.2869625 48.1724586,33.4138145 		"/>
		<polygon fill="#D90751" points="54.920208,27.2366486 56.5674934,26.2300777 59.9382286,26.2275314 54.9202232,29.2924252 		"/>
		<polygon fill="#FAB718" points="54.9110794,25.2258034 54.9202042,29.3728981 53.1580086,28.2938385 53.1580086,22.0935936 		"/>
		<polygon fill="#ED6F26" points="59.9382286,26.2275314 56.5674934,26.2300777 54.9110794,25.2258034 53.1580086,22.0935936 		"/>
		<polygon fill="#63B22F" points="54.9202042,33.4313927 54.9202042,31.4189262 53.1582146,30.3602524 53.1585007,36.5659485 		"/>
		<polygon fill="#1487C9" points="56.5633545,32.4340515 49.9282722,28.3768234 48.1695747,25.2438602 59.9315109,32.4301071 		"/>
		<polygon fill="#017F36" points="53.1585007,36.5659485 54.9202042,33.4313927 56.5633545,32.4340515 59.9315109,32.4301071 		"/>
		<polygon fill="#984995" points="48.1724586,33.4138145 53.171917,30.3602524 51.4907227,29.3322334 49.9282799,30.2869625 		"/>
	</g>
</g>
<g>
	<path fill="#8B3FFD" d="M16.5279617,22.1755447c-3.9694281,0-7.1579857,3.2110634-7.1579857,7.1356754
		c0,3.9570599,3.2210932,7.1356831,7.1579857,7.1356831s7.1579895-3.2110519,7.1579895-7.1356831
		C23.6859512,25.3866081,20.4648533,22.1755447,16.5279617,22.1755447z M16.5279617,31.9708862
		c-1.7746248,0-3.1668568-1.7630672-2.496542-3.6142902c0.2555599-0.7057858,0.8305359-1.2785854,1.5366297-1.5332966
		c1.8578615-0.6701927,3.6278906,0.7180996,3.6278906,2.4879208C19.1634026,30.7707863,17.9920959,31.9708862,16.5279617,31.9708862
		z"/>
	<path fill="#8B3FFD" d="M9.369976,24.2486362V34.6278H6.8321438L3.5785124,24.2486362H9.369976z"/>
</g>
<g id="Page-1">
	<g id="Artboard" transform="translate(-91.000000, -154.000000)">
		<g id="Group" transform="translate(91.000000, 154.000000)">
			<path id="Combined-Shape" fill-rule="evenodd" clip-rule="evenodd" fill="#37A72E" d="M40.6563873,24.9836731v3.3136311
				h1.8409081v-1.9636345h2.0863571c0.8780975-0.0065193,1.624012-0.5674362,1.9052811-1.3499966H40.6563873z"/>
			
				<linearGradient id="Combined-Shape_00000042734321544456562280000011307102884393789112_" gradientUnits="userSpaceOnUse" x1="-1343.5670166" y1="-27.0700645" x2="-1343.536377" y2="-27.0700645" gradientTransform="matrix(201.7633057 0 0 79 271122.9375 2162)">
				<stop  offset="0" style="stop-color:#00A0E5"/>
				<stop  offset="1" style="stop-color:#0077C3"/>
			</linearGradient>
			
				<path id="Combined-Shape_00000071547496215866313520000016141875339336809856_" fill-rule="evenodd" clip-rule="evenodd" fill="url(#Combined-Shape_00000042734321544456562280000011307102884393789112_)" d="
				M40.4109306,22.2529964c0.107235,1.3544273,1.3885956,2.4238586,2.9535332,2.4238586c0.0051117,0,3.200943,0,3.200943,0
				c0.0236206-0.124218,0.0359802-0.2524281,0.0359802-0.3835239c0-1.1219749-0.9052086-2.0320358-2.0249977-2.0402813
				L40.4109306,22.2529964z"/>
			
				<path id="Combined-Shape_00000028285111021099417510000002401441004985745055_" fill-rule="evenodd" clip-rule="evenodd" fill="#37A72E" d="
				M37.6863823,24.6446247l0.001442-0.0030918l0.0001984,0.0000477c0.0188637-0.033865,0.0550346-0.0567722,0.0965462-0.0567722
				c0.0599747,0,0.1087875,0.0477982,0.1104126,0.1073761l0.0000496,0.0000114v3.5744247h1.8409004v-6.0136242H37.895031
				c-0.2334518,0.0077686-0.4972038,0.1790752-0.5952644,0.3893585l-1.4650078,3.141716
				c-0.0036201,0.0128441-0.0092735,0.0248318-0.0165939,0.0355949l-0.0004921,0.001049l-0.0001869-0.000061
				c-0.0221672,0.0319042-0.0590744,0.0527897-0.1008682,0.0527897c-0.0677757,0-0.1227226-0.0549469-0.1227226-0.1227283
				v-3.4977188h-1.8409081v6.0136242h1.8409081V28.265934c0.2308884-0.0120583,0.4884529-0.1814365,0.585083-0.3886738
				l1.5036278-3.224535C37.6837616,24.6499672,37.6850166,24.6472645,37.6863823,24.6446247L37.6863823,24.6446247z"/>
			
				<path id="Combined-Shape_00000067918256371910138230000003614688541560293807_" fill-rule="evenodd" clip-rule="evenodd" fill="#37A72E" d="
				M30.8122425,24.7474194l-1.0759315,3.5192013h-1.3243046l-1.076582-3.5213375
				c-0.0103836-0.0563889-0.0597935-0.0991096-0.1191864-0.0991096c-0.0669346,0-0.121191,0.0542583-0.121191,0.1211929
				c0,0.0005112,0,0.0010223,0.0000057,0.0015316l-0.0000057,3.4977226h-1.8409081v-6.0136242h1.5801144h0.4705868
				c0.3387337,0,0.6937008,0.2628746,0.7926846,0.5866413l0.8959236,2.9304295c0.0445766,0.1458015,0.1168976,0.1456451,0.1614208,0
				l0.8959236-2.9304295c0.0990543-0.3239937,0.4539108-0.5866413,0.7926865-0.5866413h0.4704475h1.5799751v6.0136242h-1.84091
				v-3.4977207c0-0.0005112,0-0.0010223,0-0.0015335c0-0.0669346-0.0542564-0.1211929-0.121191-0.1211929
				C30.8716583,24.6461735,30.8217545,24.6899776,30.8122425,24.7474194L30.8122425,24.7474194z"/>
		</g>
	</g>
</g>
<g>
	<path fill="#2566AF" d="M34.4596214,36.4511223h-1.7327156l1.0829277-6.6552792h1.7328911L34.4596214,36.4511223z
		 M31.2692375,29.7958431l-1.6518917,4.5775509l-0.1954689-0.9857216l0.0001793,0.0003548l-0.5830326-2.9929523
		c0,0-0.0704994-0.5992317-0.8219395-0.5992317h-2.7309036l-0.0320415,0.1126919c0,0,0.8351135,0.1737518,1.8124695,0.7606983
		l1.5053787,5.7820683h1.8053455l2.7567158-6.6554585H31.2692375L31.2692375,29.7958431z M44.8979225,36.4511223h1.591011
		l-1.3871689-6.6554565h-1.392868c-0.6431999,0-0.7998657,0.4959774-0.7998657,0.4959774l-2.5842094,6.1594791h1.8062439
		l0.3612099-0.9885712h2.2026978L44.8979225,36.4511223L44.8979225,36.4511223z M42.9912796,34.0969238l0.9104195-2.4905682
		l0.5121727,2.4905682H42.9912796z M40.4603004,31.3962879l0.2472763-1.429184c0,0-0.7630119-0.2901802-1.5584259-0.2901802
		c-0.8598595,0-2.9018059,0.3758087-2.9018059,2.2032337c0,1.7193642,2.3965683,1.7407265,2.3965683,2.6438446
		s-2.1496468,0.7412949-2.8590736,0.1717949l-0.2576027,1.494339c0,0,0.7736931,0.3758125,1.95578,0.3758125
		c1.1824417,0,2.9662514-0.6122322,2.9662514-2.2785416c0-1.7304001-2.4181137-1.89151-2.4181137-2.6438446
		c0.0001755-0.7525101,1.6876755-0.6558418,2.4291496-0.2472744H40.4603004z"/>
	<path fill="#E6A540" d="M29.4220562,33.3878479l-0.5830326-2.9929504c0,0-0.0704994-0.5992317-0.8219395-0.5992317h-2.7309036
		l-0.0320415,0.11269c0,0,1.3125763,0.2720222,2.5715656,1.2912121
		C29.0295086,32.1737175,29.4220562,33.3878479,29.4220562,33.3878479z"/>
</g>
<g>
	<defs>
		<rect id="SVGID_1_" x="3.5785124" y="3.889576" width="102.8029861" height="14.4116335"/>
	</defs>
	<clipPath id="SVGID_00000156565923073338503630000011779153167787935408_">
		<use xlink:href="#SVGID_1_"  overflow="visible"/>
	</clipPath>
	<g clip-path="url(#SVGID_00000156565923073338503630000011779153167787935408_)">
		<path fill="#FA5745" d="M11.9323025,5.9261994h-6.739841v4.6405454h5.5244594v1.5468483H5.1924615v6.1874247h-1.767823V4.3793468
			h8.5076637V5.9261994z M22.2077579,18.3010178l-3.3146744-5.7454672h-2.651741v5.7454672h-1.767828V4.3793468h5.1929932
			c1.149086,0,2.1358032,0.405447,2.9611092,1.215385c0.8253059,0.8099337,1.2374783,1.767827,1.2374783,2.8727183
			c0,0.6043282-0.1104889,1.1567745-0.3314667,1.6573381c-0.2065659,0.4861526-0.4563694,0.8695021-0.7513256,1.1490879
			c-0.2809315,0.2548742-0.5841522,0.4841337-0.9060116,0.6850328c-0.2949581,0.1921549-0.5524464,0.3170557-0.7734261,0.3756628
			l-0.3093681,0.1104898l3.4030666,5.8559561H22.2077579z M16.2413425,5.9261994v5.0825028h3.4251652
			c0.6629333,0,1.2297916-0.2430763,1.7015324-0.729229c0.236639-0.2378979,0.4230309-0.5208454,0.548315-0.832099
			c0.1252842-0.3112431,0.1867733-0.6444683,0.1809139-0.9799242c0-0.7071304-0.2430763-1.303772-0.729229-1.7899241
			c-0.4707794-0.5005646-1.038599-0.7513266-1.7015324-0.7513266H16.2413425z M28.4989166,16.7541695h7.2922859v1.5468483
			h-9.0601139V4.3793468h8.8391323v1.5468526h-7.0713043v4.4195676h6.5188637v1.5468483h-6.5188637V16.7541695z
			 M40.4317474,16.7541695h7.2922859v1.5468483h-9.060112V4.3793468h8.8391342v1.5468526h-7.0713081v4.4195676h6.5198212v1.5468483
			h-6.5188599L40.4317474,16.7541695z"/>
		<path fill="#FFFFFF" d="M52.3680382,4.379591v13.9216175h-1.7678261V4.379591H52.3680382z M58.2239685,18.3012085
			l-5.8559303-7.0712881l5.4139709-6.8503294h2.0992928l-5.5244598,6.8503294l5.9664192,7.0712881H58.2239685z
			 M70.4805832,18.3012085l-1.3258667-3.4251633h-5.7454453l-1.3258705,3.4251633h-1.8792763L65.5076065,4.379591h1.5468445
			l5.304451,13.9216175H70.4805832z M66.2819901,7.2523098l-2.3202705,6.0769053h4.6405449l-2.322197-6.0769053H66.2819901z
			 M73.3484955,8.0257339c0-0.9723048,0.4342651-1.8418064,1.303772-2.6075449s1.9446106-1.1490874,3.2262802-1.1490874
			c1.2077026,0,2.2241974,0.4131336,3.0495071,1.2374787c0.8397141,0.8099341,1.2595749,1.7966504,1.2595749,2.9611101h-1.7678223
			c0-0.765738-0.2430801-1.3998494-0.7292328-1.900414c-0.4861526-0.5005636-1.0904846-0.7513261-1.812027-0.7513261
			c-0.795517,0-1.4584503,0.2286644-1.9888,0.6850328c-0.5159378,0.4419565-0.7734299,0.9502072-0.7734299,1.5247507
			c0,0.6187391,0.2498093,1.1193037,0.7513351,1.5026531c0.5159302,0.3833494,1.1337128,0.6850328,1.8562164,0.9060106
			c0.7215424,0.2065678,1.444046,0.4419575,2.1655884,0.7071314c0.736908,0.2651739,1.3546906,0.6917582,1.8562164,1.2816744
			c0.5159378,0.574544,0.7734222,1.3181648,0.7734222,2.2318621c0,1.0309124-0.4275436,1.9148254-1.2816772,2.651741
			c-0.8550873,0.7369156-1.9743881,1.1048908-3.3588715,1.1048908c-1.4142609,0-2.5412445-0.3900738-3.3809662-1.1711845
			c-0.8397141-0.7811108-1.2595749-1.7899246-1.2595749-3.0274038h1.7678223c0,0.8397188,0.2430801,1.4949665,0.7292328,1.9667082
			c0.5005646,0.4563675,1.2153854,0.6850319,2.143486,0.6850319c0.8983307,0,1.598732-0.2065659,2.0993042-0.6187382
			c0.5159302-0.4275455,0.7734222-0.9578934,0.7734222-1.5910454c0-0.6187391-0.2574921-1.1193027-0.7734222-1.5026331
			c-0.5005722-0.3833494-1.112587-0.6773472-1.8341293-0.883914c-0.7215424-0.2209778-1.4507675-0.4640541-2.1876831-0.729228
			c-0.7135696-0.259573-1.3514328-0.6924019-1.8562164-1.2595768C73.5992584,9.6907578,73.3484955,8.9394312,73.3484955,8.0257339z
			 M84.2898102,8.0257339c0-0.9723048,0.4342651-1.8418064,1.303772-2.6075449
			c0.8685379-0.765738,1.944603-1.1490874,3.2262802-1.1490874c1.207695,0,2.2241974,0.4131336,3.0495071,1.2374787
			c0.8397141,0.8099341,1.2586136,1.7966504,1.2586136,2.9611101h-1.7678299c0-0.765738-0.2421112-1.3998494-0.7282639-1.900414
			c-0.4861526-0.5005636-1.0904846-0.7513261-1.812027-0.7513261c-0.795517,0-1.4584579,0.2286644-1.9888077,0.6850328
			c-0.5159302,0.4419565-0.7734222,0.9502072-0.7734222,1.5247507c0,0.6187391,0.2498016,1.1193037,0.7513275,1.5026531
			c0.5149765,0.3833494,1.1337204,0.6850328,1.8562241,0.9060106c0.7215424,0.2065678,1.4430771,0.4419575,2.1655807,0.7071314
			c0.7359543,0.2651739,1.3546982,0.6917582,1.8562164,1.2816744c0.5149841,0.574544,0.7734299,1.3181648,0.7734299,2.2318621
			c0,1.0309124-0.4275436,1.9148254-1.2816772,2.651741c-0.8550873,0.7369156-1.9743958,1.1048908-3.3588715,1.1048908
			c-1.4142609,0-2.5412521-0.3900738-3.3819275-1.1711845c-0.8387604-0.7811108-1.2586136-1.7899246-1.2586136-3.0274038h1.7678223
			c0,0.8397188,0.2430725,1.4949665,0.7292328,1.9667082c0.5005569,0.4563675,1.2153778,0.6850319,2.1425247,0.6850319
			c0.899292,0,1.598732-0.2065659,2.1002579-0.6187382c0.5149765-0.4275455,0.7734299-0.9578934,0.7734299-1.5910454
			c0-0.6187391-0.2584534-1.1193027-0.7734299-1.5026331c-0.5015259-0.3833494-1.1125793-0.6773472-1.835083-0.883914
			c-0.7205811-0.2209778-1.4507751-0.4640541-2.1867294-0.729228c-0.713562-0.259573-1.3514252-0.6924019-1.8562164-1.2595768
			C84.5396118,9.6907578,84.2898102,8.9394312,84.2898102,8.0257339z M104.5108643,18.3012085l-1.3258743-3.4251633h-5.7450485
			l-1.3258667,3.4251633h-1.8783188L99.539238,4.379591h1.546463l5.3034821,13.9216175H104.5108643z M100.3122787,7.2523098
			l-2.3198853,6.0769053h4.6401596L100.3122787,7.2523098z"/>
	</g>
</g>
</svg>
