<?xml version="1.0" encoding="utf-8"?>
<!-- Generator: Adobe Illustrator 26.5.0, SVG Export Plug-In . SVG Version: 6.00 Build 0)  -->
<svg version="1.1" id="Слой_1" xmlns="http://www.w3.org/2000/svg" xmlns:xlink="http://www.w3.org/1999/xlink" x="0px" y="0px"
	 width="110px" height="40px" viewBox="0 0 110 40" enable-background="new 0 0 110 40" xml:space="preserve">
<g id="Слой_3">
	<path fill="#003087" d="M14.3000002,11.6000004C14.4000006,11,14.5,10.3000002,14.6000004,9.7000008
		c0.1000004-0.6000004,0.3000002-1,1.1000004-1c2.2000008,0,4.3999996,0,6.5,0c0.7000008,0,2.8999996,0.1999998,3.8999996,1l0,0
		c0.7000008,0.6000004,1.2000008,1.3000002,1.2999992,2.1999998c0.2000008,1.3000002,0.1000004,2.5,0,2.8000002
		C27.1999989,15.9000006,26.5,17,25.7999992,18c-1.2000008,1.3999996-2.8999996,2-4.7000008,2.1000004
		c-0.8999996,0.1000004-1.7999992,0-2.7000008,0.1000004c-0.5,0-0.7999992,0.2000008-0.7999992,0.7000008
		c-0.2000008,1-0.2999992,2-0.5,3c-0.1000004,0.7999992-0.2000008,1.6000004-0.3999996,2.5
		c0,0.2000008-0.1000004,0.3999996-0.3999996,0.2999992c-1.1999998,0-2.3000002,0-3.5,0
		c-0.6000004,0-0.8000002-0.2000008-0.6999998-0.7999992c0.1999998-1.3999996,0.3999996-2.7000008,0.6000004-4.1000004
		C13.3000002,18.2999992,13.8000002,14.8999996,14.3000002,11.6000004z"/>
	<path fill="#009CDE" d="M16.3999996,26.6000004l0.1000004-0.5c0.2999992-1.7999992,0.6000004-3.6000004,0.8999996-5.5
		c0.1000004-0.5,0.3999996-0.7999992,0.8999996-0.7999992c1,0,2.1000004,0,3.1000004-0.1000004
		c1.7999992-0.2000008,3.2999992-0.7999992,4.5-2.2999992c0.7999992-1.1000004,1.2999992-2.3000002,1.3999996-3.6000004
		c0.2999992,0,0.2000008,0,0.2000008,0c0.8999996,0.5,1.3999996,1.3000002,1.5,2.2999992
		c0.2000008,2-0.2999992,3.8999996-1.7999992,5.3999996c-1,1-2.2000008,1.3999996-3.5,1.5C23.6000004,23,23.6000004,23,23.5,23
		c-0.5,0-1,0-1.6000004,0.1000004c-0.2999992,0.1000004-0.5,0.2999992-0.6000004,0.6000004
		C21.0999985,24.8000011,20.8999996,25.9000015,20.6999989,27c0,0.2999992-0.1000004,0.6000004-0.1000004,0.7999992
		c-0.1000004,0.6000004-0.3999996,0.7999992-1,0.7999992c-1.1000004,0-2.1000004,0-3.2000008,0
		c-0.2999992-0.2000008-0.3999996-0.3999996-0.2999992-0.7000008c0.1000004-0.3999996,0.1000004-0.6000004,0.2000008-1
		L16.3999996,26.6000004z"/>
	<g>
		<path fill="#012169" d="M27.5,13.8000002h-9l-1.1000004,6.5999994c0,0,0.1000004-0.2999992,0.8999996-0.2999992
			S20.0999985,20.1000004,21,20c1.7999992-0.1000004,3.5-0.7000008,4.7000008-2.1000004
			C27.7999992,15.6999998,27.6000004,13.8000002,27.5,13.8000002z"/>
		<path fill="#003087" d="M46.5999985,15.3000002C46.3999977,14.5,45.8999977,14,45.1999969,13.6000004
			c-0.5-0.3999996-1.9000015-0.5-2.2000008-0.5h-4.5c-0.2000008,0-0.5,0-0.7000008,0.1000004
			c-0.0999985,0.1000004-0.2000008,0.3000002-0.2000008,0.5c-0.0999985,0.6999998-0.2000008,1.3999996-0.2999992,2
			C36.9999962,17.6000004,36.6999969,19.6000004,36.3999939,21.5c-0.2000008,1.2999992-0.5,2.6000004-0.5999985,3.8999996
			c0.0999985,0.2000008,0.2999992,0.2000008,0.5,0.2000008c0.5999985,0,1.2999992,0,1.9000015,0
			c0.5,0,0.7000008-0.2000008,0.7999992-0.7000008C39.0999947,24,39.2999954,23.1000004,39.3999977,22.1999989
			c0.0999985-0.7000008,0.2999992-0.8999996,1-0.7999992c0.9000015,0,1.7999992,0,2.7000008-0.1000004
			c0.2999992,0,0.7000008-0.2000008,1-0.2999992c0.2999992-0.1000004,0.5999985-0.2999992,1-0.6000004
			C46.5999985,19.3999996,47,16.7000008,46.5999985,15.3000002z M41.5,19.1000004c-0.2000008,0-0.4000015,0-0.5999985,0
			c-0.9000015,0-0.9000015,0-0.7999992-0.8999996c0.0999985-0.7000008,0.2000008-1.2999992,0.2999992-2
			c0-0.3000002,0.2000008-0.5,0.5-0.5c0.5,0,1,0,1.5,0.1000004c0.5999985,0.1000004,0.9000015,0.5,0.9000015,1.1000004
			C43.4000015,18.2000008,42.7999992,18.8999996,41.5,19.1000004z"/>
		<path fill="#009CDE" d="M79.0999985,16C79,14.8000002,78.4000015,14,77.2999954,13.5
			c-0.8000031-0.3000002-1.5-0.3999996-2.3000031-0.3999996c-1.4000015,0-2.9000015,0-4.3000031,0
			C70.2999878,13.2000008,70.0999908,13.5,70.0999908,13.9000006c-0.3000031,2.1999998-0.6999969,4.3000002-1,6.500001
			c-0.3000031,1.6000004-0.5,3.2000008-0.8000031,4.7999992c-0.0999985,0.5,0,0.6000004,0.5999985,0.6000004
			c0.4000015,0,0.8000031,0,1.1999969,0c0.1999969,0,0.4000015,0,0.6999969,0c0.5999985,0,0.5999985-0.1000004,0.6999969-0.6000004
			c0.1999969-1,0.3000031-2,0.5-2.8999996c0.0999985-0.5,0.3000031-0.7000008,0.8000031-0.7000008s1.0999985,0,1.5999985,0
			c1.3000031,0,2.5-0.2999992,3.4000015-1.2999992C78.9000015,19.1000004,79.1999969,17.6000004,79.0999985,16z
			 M73.9000015,19.1000004c-0.1999969,0-0.4000015,0-0.6999969,0c-0.9000015,0-0.9000015,0-0.6999969-0.7999992
			c0.0999985-0.7000008,0.1999969-1.3999996,0.3000031-2c0-0.2999992,0.1999969-0.5,0.5-0.5c0.5,0,1,0,1.5,0.1000004
			c0.5999985,0.1000004,0.9000015,0.5,1,1.1000004C75.8000031,18.2000008,75.1999969,19,73.9000015,19.1000004z"/>
		<path fill="#003087" d="M68.3000031,17.6000004c-0.0999985-0.2999992-0.4000015-0.2000008-0.5999985-0.2000008
			c-0.5,0-1.0999985,0-1.5999985,0c-0.4000015,0-0.6999969,0.1000004-0.9000015,0.5
			c-0.5999985,0.8999996-1.1999969,1.7999992-1.9000015,2.7000008c-0.2999992,0.5-0.7000008,1-1,1.5
			c-0.0999985-0.2000008-0.0999985-0.2999992-0.0999985-0.3999996C61.8000031,20.5,61.5000038,19.3000011,61.1000061,18.1000004
			C60.9000053,17.5,60.7000046,17.3999996,60.2000046,17.3999996c-0.5999985,0-1.2000008,0-1.7999992,0
			c-0.2000008,0-0.4000015,0-0.5,0.2000008c0,0.2999992,0.0999985,0.6000004,0.2000008,0.8999996
			c0.7000008,2.1000004,1.4000015,4.1000004,2.0999985,6.2000008c0.0999985,0.2000008,0,0.3999996-0.0999985,0.6000004
			c-0.7000008,0.8999996-1.2999992,1.8999996-2,2.7999992C58.0000076,28.3000011,57.9000053,28.5,58.0000076,28.7000008
			c0.0999985,0.1000004,0.2000008,0.1000004,0.2999992,0.1000004c0.7000008,0,1.4000015,0,2.0999985,0
			c0.2999992,0,0.5-0.1000004,0.5999985-0.3999996c0.4000015-0.7000008,0.9000015-1.2999992,1.4000015-2
			c1.8999977-2.7999992,3.7999992-5.5,5.7000008-8.2999992C68.1999969,18,68.4000015,17.8999996,68.3000031,17.6000004z"/>
		<path fill="#009CDE" d="M88.5999985,17.3999996c-0.5,0-1,0-1.4000015,0c-0.8000031,0-0.8000031,0-0.9000015,0.7999992
			c0,0,0,0-0.0999985,0.1000004c-0.1999969-0.2999992-0.5-0.5-0.8000031-0.7000008
			c-0.4000015-0.2000008-0.9000015-0.2999992-1.3000031-0.2999992c-0.6999969,0-1.4000015,0-2,0.2000008
			c-3.1999969,1.1000004-4.5,5.3999996-2.4000015,7.7000008c1.0999985,1.2000008,3.5999985,1.3999996,5.5-0.2000008
			c0.0999985,0.1000004,0,0.1000004,0,0.2000008c-0.0999985,0.6000004,0,0.7000008,0.5999985,0.7000008
			c0.5,0,1.0999985,0,1.5999985,0c0.4000015,0,0.5999985-0.2000008,0.6999969-0.6000004s0.0999985-0.7999992,0.1999969-1.2000008
			c0.3000031-2,0.5999985-4,1-6C89.1999969,17.5,89.0999985,17.3999996,88.5999985,17.3999996z M85.8000031,21.6000004
			C85.6000061,23,84.5,23.8999996,83.1000061,23.7000008c-1-0.1000004-1.5999985-0.7000008-1.5-1.7000008
			c0-1.5,1.3000031-2.6000004,2.8000031-2.3999996C85.3000031,19.7000008,85.9000015,20.5,85.8000031,21.6000004z"/>
		<path fill="#003087" d="M56.2000008,17.3999996c-0.4000015,0-0.9000015,0-1.2999992,0
			c-0.9000015,0-0.9000015,0-1.2999992,0.8999996c-0.5-0.7000008-1.0999985-0.8999996-1.9000015-1c-0.5-0.1000004-1,0-1.5,0
			c-2,0.3999996-3.4000015,1.6000004-4,3.6000004C45.5,23.1000004,46.2999992,25.5,48.7000008,26
			c0.2000008,0,0.4000015,0.1000004,0.5999985,0.1000004c1.0999985,0.1000004,2.0999985-0.2999992,3-1
			C52.3999977,25,52.3999977,24.8999996,52.5,25c0.0999985,0.1000004,0,0.2000008,0,0.2999992
			c-0.0999985,0.3999996,0.0999985,0.6000004,0.5,0.6000004c0.5999985,0,1.2000008,0,1.7999992,0
			c0.4000015,0,0.7000008-0.2000008,0.7000008-0.6000004C55.9000015,22.8999996,56.2999992,20.5,56.5999985,18
			C56.7999992,17.5,56.5999985,17.3999996,56.2000008,17.3999996z M53.2000008,22.1000004
			c-0.4000015,1-1.2999992,1.7000008-2.4000015,1.7000008c-1.2000008,0-1.9000015-0.7999992-1.7999992-2
			c0.0999985-1.5,1.5-2.5,3-2.2000008C53.0999985,19.7999992,53.5999985,20.8999996,53.2000008,22.1000004z"/>
		<path fill="#009CDE" d="M93.8000031,13.1999998c-0.6999969,0-1.4000015,0-2,0c-0.3000031,0-0.4000015,0.1999998-0.5,0.3999996
			C91.3000031,14.3999996,91,15.1999998,91,16v0.1000004c-0.5,3-1,6.1000004-1.4000015,9.1000004
			c-0.0999985,0.3999996,0.0999985,0.6000004,0.5,0.6000004c0.5999985,0,1.1999969,0,1.9000015,0
			c0.3000031-0.1000004,0.4000015-0.3999996,0.5-0.7000008c0.3000031-2.2000008,0.6999969-4.5,1.0999985-6.6999989
			c0.1999969-1.6000004,0.5-3.1000004,0.6999969-4.6999998C94.1999969,13.3999996,94.0999985,13.1999998,93.8000031,13.1999998z"/>
	</g>
</g>
</svg>
