<?xml version="1.0" encoding="utf-8"?>
<!-- Generator: Adobe Illustrator 27.2.0, SVG Export Plug-In . SVG Version: 6.00 Build 0)  -->
<svg version="1.1" id="Слой_1" xmlns="http://www.w3.org/2000/svg" xmlns:xlink="http://www.w3.org/1999/xlink" x="0px" y="0px"
	 viewBox="0 0 110 40" enable-background="new 0 0 110 40" xml:space="preserve">
<g>
	<defs>
		<rect id="SVGID_1_" x="3.5210145" y="1.7349633" width="18.778717" height="18.778717"/>
	</defs>
	<clipPath id="SVGID_00000121265547058770225780000005305605333852488329_">
		<use xlink:href="#SVGID_1_"  overflow="visible"/>
	</clipPath>
	<g clip-path="url(#SVGID_00000121265547058770225780000005305605333852488329_)">
		<path fill="#1E7F94" d="M12.9103727,1.7349633L12.9103727,1.7349633c5.1855993,0,9.3893576,4.2037587,9.3893576,9.3893585l0,0
			c0,5.1855993-4.2037582,9.3893576-9.3893576,9.3893576l0,0c-5.1855998,0-9.3893585-4.2037582-9.3893585-9.3893576l0,0
			C3.5210145,5.9387221,7.7247729,1.7349633,12.9103727,1.7349633z"/>
		<path fill="none" stroke="#F0CAAB" stroke-linecap="round" d="M10.1289167,11.6993256c0-0.145112,0-0.290225,0-0.4352903
			c0-0.0787764,0.0068541-0.1895237-0.0348349-0.2573147c-0.045351-0.0737066-0.0199995-0.2308846-0.0135679-0.3075962
			c0.0146942-0.1746883,0.0484028-0.3443069,0.0484028-0.5204048c0-0.0121126,0.0039434-0.1975517-0.0435667-0.1131887
			c-0.0772276,0.1373663-0.0852089,0.3369837-0.1315451,0.4875422c-0.0869455,0.2826662-0.1383057,0.5345831-0.1383057,0.8289404
			c0,0.1173668,0,0.2347336,0,0.3521004c0,0.0298576,0.0174179,0.0455847,0.0174179,0.0068073
			c0-0.1212645,0.004694-0.2430906-0.0087328-0.3637438c-0.0376987-0.339613-0.0356321-0.7135448,0.0532379-1.0446596
			C9.923007,10.16257,9.9673719,9.9776936,10.0379801,9.8188715c0.034976-0.0786819,0.051219-0.1941242,0.0735188-0.2785349
			c0.0355387-0.1347837,0.0610781-0.3725691,0.1663799-0.4778709c0.0653028-0.0653028,0.264451-0.1141281,0.3559504-0.1141281"/>
		<path fill="none" stroke="#F0CAAB" stroke-linecap="round" d="M10.668664,8.4260082
			c-0.0007982,0.0328627-0.0522528,0.2320576-0.0522528,0.1083059c0-0.0803728-0.0084972-0.0958652,0.0609369-0.1344557
			c0.0541773-0.0300455,0.1245499-0.0545521,0.1905575-0.0425339c0.1399488,0.025445-0.0680723,0.4421453-0.0251169,0.4962282
			c0.0238962,0.0300922,0.0447874-0.0625801,0.065773-0.0948334c0.0454445-0.0698099,0.0553026-0.0797157,0.1179771-0.1334696
			c0.0998087-0.085537,0.1968946-0.1662855,0.2882528-0.2611647c0.0711718-0.0738945,0.147789-0.1348314,0.0948334,0.0232382
			c-0.0541763,0.1616383-0.1426725,0.3123837-0.2186317,0.4642572c-0.0646458,0.1292915-0.0707493,0.0936117-0.0135202,0.0270882
			c0.0875559-0.1018276,0.2060022-0.1959562,0.3133688-0.2746859c0.0081234-0.0059624,0.1192923-0.0953016,0.1625309-0.0696688
			c0.0613585,0.0364313-0.0047894,0.2220116-0.0145073,0.2583017c-0.0416412,0.1555815-0.0810299,0.3167963-0.1363802,0.468153
			c-0.0114546,0.0312662,0.0256329-0.1022034,0.0309381-0.1151133c0.034318-0.0838003,0.0751619-0.1659575,0.1180239-0.2456732
			c0.0030518-0.0057278,0.0986357-0.1359577,0.0986357-0.1141748c0,0.0152111-0.7402573,0.1760511-0.6451902,0.3027601
			c0.1163349,0.1551123-0.0998554,0.1817312-0.2369871,0.2060499c-0.1786795,0.0316887-0.3496122,0.0187311-0.4652433-0.1353951
			c-0.0311718-0.0415478-0.0448799-0.1430464-0.0474157-0.0541763C10.3477821,9.3664923,10.2802725,9.6201,10.2421045,9.87887
			c-0.0175104,0.1185884-0.0337543,0.2375984-0.0522518,0.3559513c-0.0133791,0.085537-0.0424395,0.0974617-0.0009851,0.0077457
			c0.1078835-0.2332315,0.3045902-0.477684,0.4972134-0.6500254c0.0349283-0.0312195,0.0303278,0.0541763,0.0309381,0.065773
			c0.0097647,0.1877871,0.0038958,0.376936,0.0038958,0.5649109c0,0.0578842-0.0205154,0.1708851,0.0115967,0.0599499
			c0.0304213-0.1051598,0.0740347-0.2133732,0.1141272-0.3133688c0.0884008-0.2203693,0.1655817-0.4859934,0.297925-0.6858454
			c0.0055866-0.0084038,0.0256329-0.0182161,0.0290127-0.0086861c0.0110321,0.0309849,0.0036621,0.0657721,0.0029106,0.0986824
			c-0.0028172,0.1199484-0.0133333,0.2044535-0.0319233,0.3250122c-0.0225821,0.146286-0.0560551,0.2907419-0.08319,0.4362307
			c-0.0073709,0.0395288-0.0643177,0.2162361-0.0328636,0.0725317c0.0292482-0.1337519,0.0655384-0.2678308,0.1122026-0.3965597
			c0.0292015-0.0806541,0.0303755-0.0396223,0.0038509-0.0058212c-0.1259584,0.160511-0.3308811,0.2501335-0.4913921,0.3704576
			c-0.0357742,0.0268536-0.1283998,0.1885386-0.1847363,0.1634693c-0.047369-0.0210323-0.0358667-0.1106081-0.0522518-0.1499023
			c-0.0055866-0.0134258-0.0087318,0.0280275-0.0096712,0.0425339c-0.0054455,0.0845051-0.3013039,2.2170162-0.3129473,2.3008156
			c-0.0504208,0.3634624,0.3788605,0.43853-0.2347336,0c1.0268202,0.7942457,0.5389023,0.3331814,0.5573521,0.3639784
			c0.0203285,0.033802-0.0132389-1.4953957-0.0048351-1.5223904c0.1224842-0.392663,0.3278761-0.7697868,0.4275436-1.1685057
			c0.0190611-0.076148,0.0313139,0.0073233,0.0348349,0.0425806c0.0224409,0.2245464,0.0055399,0.4662285-0.0309381,0.6877241
			c-0.0334253,0.202857-0.1099024,0.4197512-0.1218739,0.6239223c-0.0043659,0.0736122-0.017417-0.0668049-0.017417-0.0880251
			c0-0.2890511,0.1721067-0.6146269,0.3056707-0.8599243c0.0749741-0.137742,0.1594315-0.2682066,0.2582541-0.3898458
			c0.0531435-0.065444,0.0454445,0.0853024,0.0454445,0.105442c0,0.3687668-0.0393887,0.759223,0.0087328,1.1249857
			c0.0021124,0.0160561,0.0086851,0.1465683,0.0086851,0.069622c0-0.1688671,0.0122528-0.337266,0.021266-0.5058985
			c0.0319242-0.5970221,0.1024847-1.204936,0.2476444-1.7856207c0.0024891-0.0100002,0.0499048-0.1881628,0.069622-0.1373663
			c0.0503273,0.129385,0.0096712,0.3421011,0.0096712,0.4778709c0,0.2269878-0.0010796,0.4539757,0,0.6809635
			c0.0007515,0.1467085-0.0078869,0.3193789,0.0270891,0.464303c0.0557718,0.2310724,0.1253939,0.9415188,0.1122026,0.7042017
			c-0.0033798-0.0614996-0.0818758-0.0563354-0.1005602-0.1045027c-0.0082159-0.0211258,0.0280266-0.0838938,0.0347872-0.1025324
			c0.1221085-0.3346367,0.2003689-0.6869717,0.2728081-1.0349884c0.1120615-0.5386677,0.1934681-1.0963011,0.1934681-1.6472692
			c0-0.0611715,0.0317354-0.2243586-0.0696697-0.2273169c-0.1418257-0.004178-0.1638918,0.0734253-0.210885,0.2166595
			c-0.0723448,0.2206507-0.1314516,0.4532719-0.1683035,0.682889c-0.0036631,0.022769-0.0038977,0.0522041,0.0232382,0.0299988
			c0.0830956-0.0679789,0.0999031-0.2220583,0.1460514-0.3143559c0.0201874-0.0404215,0.1215448-0.2200394,0.12286-0.0890112
			c0.0008917,0.0926733-0.0395765,0.2895212,0.0212669,0.3714428c0.0459137,0.0618296,0.12286-0.0673685,0.1470375-0.0947857
			c0.083189-0.0943155,0.5316725-0.4536934,0.6577244-0.4817209c0.0323458-0.0071831-0.2596636,0.3036518-0.1818256,0.3056707
			c0.1887264,0.0048351,0.3722887-0.0269947,0.5639257-0.0145063c0.1501827,0.0098114,0.2964211,0.0667582,0.4459009,0.0667582
			c0.0633307,0,0.1277418-0.0035686,0.1905565,0.0048351c0.3951502,0.0526743,0.7914753,0.135911,1.1733408,0.2485838
			c0.2491932,0.0735178,0.4950542,0.1573191,0.7428865,0.2302275c0.0836115,0.0245523,0.1836081,0.1256762,0.2514944,0.1818247
			c0.0552559,0.0457258,0.1455803,0.0975552,0.130558,0.1799002c-0.0240364,0.1322489-0.0529556,0.3265142-0.0125351,0.4527082
			c0.0054455,0.0170403-0.0066185-0.0417833-0.0232391-0.0483561c-0.2268925-0.0900431-0.5184326-0.0182619-0.7583303-0.03967
			c-0.1360044-0.0121126-0.2066126-0.1505108-0.3192387-0.2273169c-0.1226711-0.0836115-0.2288189-0.2083492-0.3423824-0.3027592
			c-0.3132296-0.2602262-0.6690388-0.5392313-1.0853157-0.5929375c-0.2586298-0.0333796-0.5174475-0.048872-0.7757959-0.0870399
			c-0.1738443-0.0257263-0.3913479-0.0896683-0.5696993-0.0686836c-0.0309381,0.0036154-0.0749741,0.0353985-0.0890112,0.0618763
			c-0.0309849,0.0585899-0.0225344,0.1699944-0.0299988,0.2312126c-0.023098,0.1899471-0.0591536,0.3778744-0.0889645,0.5668354
			c-0.0414543,0.2624331-0.0848331,0.5275421-0.2050638,0.7680035c-0.0164785,0.0329561-0.030139,0.0286837-0.0386839,0.0676966
			c-0.0260553,0.1186819-0.0309849,0.2349224-0.0309849,0.355998c0,0.1032829,0.0538006,0.1678343,0.0976963,0.2582541
			c0.0414066,0.0852547,0.0826263,0.1692438,0.1199493,0.2563295c0.0353498,0.0824852,0.1736565,0.0748806,0.2485828,0.08319
			c0.0484018,0.005352,0.0962887,0.0135202,0.145112,0.0135202c0.0814524,0,0.0024881-0.2133732,0-0.2263308
			c-0.0502319-0.2597561-0.1193848-0.5179157-0.1586323-0.779645c-0.0021133-0.0140371-0.0015965-0.0342712,0.0009861-0.0483551
			c0.0039902-0.0221119,0.0231905-0.0909357,0.0231905-0.0909357c-0.0069008,0.0138025-0.0241766,0.0802326-0.0241766,0.0415945
			c0-0.0515471-0.042675,0.0954895-0.0764303,0.1344557c-0.0251627,0.0290604-0.0280275,0.0437078-0.0280275,0.0812645
			c0,0.1614037-0.0409842,0.3202248-0.0870857,0.4749613c-0.0591526,0.1987257-0.087039-0.0348349-0.087039-0.1093388"/>
		<path fill="none" stroke="#F0CAAB" stroke-width="3" stroke-linecap="round" d="M12.5142355,9.331377
			c0,0.1639376,0.0197649,0.3425236-0.003849,0.5049124c-0.0074654,0.0511723-0.0309849,0.0892925-0.0309849,0.1392918
			c0,0.0766163-0.0162907,0.150135-0.017417,0.2263765c-0.0006571,0.0480738-0.0117846,0.2252512,0.0348339,0.2572689
			c0.214077,0.1471777,0.3854809,0.3608332,0.591013,0.5252409c0.0874147,0.0699511,0.1399488,0.1615906,0.2002287,0.2602253
			c0.0248814,0.0406561,0.0548801,0.0705147-0.0096722,0.0889645c-0.0903254,0.0258207-0.1837492,0.0492001-0.2737465,0.0087328
			c-0.0920153-0.0414076-0.0350685-0.0741291,0.0415955-0.0503273c0.0926256,0.0287781,0.1969414,0.0899029,0.2689114,0.1567078
			c0.0566168,0.0525808,0.1099491,0.147131,0.1480227,0.214735c0.0410786,0.0730495,0.1164284,0.0608902,0.1866608,0.0880251
			c0.1045504,0.0404215,0.1768017,0.0482616,0.2882538,0.0522518c0.1458626,0.0052118,0.197176,0.037323,0.3134165-0.08319
			c0.1897116-0.1967058-0.033473-0.5398874-0.1392918-0.7216187c-0.0768042-0.1318731-0.2066126-0.231636-0.3230877-0.3269377
			c-0.1050196-0.0859127-0.1758156-0.1958618-0.2650137-0.2950134c-0.1355829-0.1506052-0.3201303-0.3304119-0.2950611-0.556179
			c0.0065727-0.0588703,0.0587778-0.0910769,0.0938463-0.1325302c0.0636129-0.0752087,0.080514-0.1187296,0.1799002-0.1518726
			c0.0771341-0.0256805,0.1667547,0.0785885,0.2263775,0.1218739c0.0370874,0.026947,0.1179304,0.0710306,0.1392908,0.1160984
			c0.0397644,0.0839882,0.0813122,0.1464281,0.1605577,0.2011681c0.1514034,0.1045971,0.3040752,0.243701,0.4758997,0.3124304
			c0.079998,0.0320177,0.1014051,0.0797625,0.1576948,0.1547832c0.0207043,0.0276051,0.0684948,0.1326723,0.1228123,0.0783548
			c0.0418301-0.0418301,0.0896225-0.1334696,0.1141281-0.188632c0.0226755-0.0509853-0.0052109-0.0792933-0.0251169-0.1305599
			c-0.0229559-0.0590124-0.0270882-0.1195736-0.0270882-0.1818714c0-0.0318766-0.0450687-0.0366659-0.0609369-0.0715942
			c-0.0513592-0.1130009,0.0711718-0.0594816,0.1315451-0.0415945c0.1112642,0.0330038,0.2175045,0.0650206,0.3298483,0.0899963
			c0.1900406,0.0422058,0.3953857-0.0117826,0.5832672,0.029953c0.0729551,0.016243,0.1480227,0.0422983,0.1480227,0.1315441
			c0,0.0857725,0.0324411,0.1158657,0.1044569,0.1518736c0.0715466,0.0357733,0.0607967,0.0244122,0.0174179,0.0870857
			c-0.0320663,0.0462427-0.0522518,0.0827675-0.0522518,0.1392908c0,0.1413574-0.0331917,0.2803202-0.0348339,0.4217234
			c-0.0003777,0.032299,0.0191059,0.1153955-0.0251179,0.127696c-0.0684948,0.0190125-0.1484928,0.0220175-0.2186317,0.017417
			c-0.092391-0.0061035-0.1880217-0.0111265-0.2785816-0.0309849c-0.0254459-0.0055866-0.1110287-0.0357265-0.1353951-0.0135212
			c-0.015069,0.0136623-0.0044127,0.0875092-0.0038958,0.1044569c0.0033331,0.1054897,0.0606556,0.1878347,0.1237984,0.2689114
			c0.0706549,0.0906534,0.1071329,0.1481171,0.1383524,0.2573156c0.0127697,0.0446453,0.1804161-0.1192923,0.2002277-0.1306057
			c0.07549-0.0431442,0.1402302-0.1035185,0.2340775-0.1035185c0.0670395,0,0.0996208-0.1123438,0.1392899-0.156662
			c0.0247421-0.0276508,0.0438499-0.0501852,0.0870399-0.0309849c0.0298119,0.0132399,0.1254883,0.0309849,0.0928612,0.0309849
			c-0.2186775,0-0.430831-0.0391998-0.6480541-0.0512648c-0.1531401-0.0085449-0.2855768,0.0613117-0.4285297,0.1034698
			c-0.1285868,0.0379801-0.2632303,0.1077909-0.3037453,0.2495699c-0.0063858,0.0224876-0.0183573-0.0443182-0.0183573-0.0676975
			c0-0.0297651-0.0168533-0.088541-0.0357733-0.1547832c-0.0158682-0.0554447-0.0164776,0.0386362-0.0164776,0.0512657
			c0,0.0860062-0.0289669,0.1638441-0.0464306,0.2485828c-0.0609369,0.2959995-0.2368002,0.4603605-0.472003,0.6268339
			c-0.0966167,0.0683546-0.1796188,0.1302299-0.2573156,0.2185841c-0.0778379,0.0884943-0.1633749,0.0791988-0.2727613,0.0812645
			c-0.233325,0.0044136-0.4623318,0.0522528-0.696455,0.0522528c-0.1449718,0-0.2571745-0.0436611-0.3966074-0.0735197
			c-0.1022024-0.0219231-0.1665201-0.1026726-0.2611647-0.1315918c-0.0641756-0.019577-0.1180239-0.0595284-0.1818247-0.0812178
			c-0.0636597-0.0216417-0.1429529-0.0342236-0.2021999-0.0638475c-0.0459614-0.0230036-0.0300455-0.073143-0.0609369-0.0996208
			c-0.0186386-0.0160093-0.0851145-0.018075-0.1073675-0.0193415c-0.0991983-0.005681-0.2035141,0.0341291-0.3017731,0.0145054
			c-0.1047392-0.0209846-0.0469952-0.1308403-0.0880251-0.1983023c-0.0556793-0.0915003-0.1064291-0.1518726-0.1808872-0.2263308
			c-0.0320177-0.0320177-0.0807953-0.1286812-0.1383047-0.1122503c-0.0419235,0.0119724,0.0034742,0.2829485,0.0067606,0.3173141
			c0.0139904,0.1468496,0.0792923,0.435854-0.12286,0.4826593c-0.1329536,0.030797-0.2795219,0.017417-0.4159489,0.017417
			c-0.0361013,0-0.0722046,0-0.1083059,0c-0.0079813,0-0.5214386,0.0442715-0.5189972,0.0406094
			c0.0291548-0.0437069,0.5411091,0.0326757,0.5576811,0.0551624c0.0392475,0.0532379,0.0535192,0.1046915,0.0783548,0.1653938
			c0.0491056,0.1200428,0.0902786,0.2677374,0.2311659,0.2785816c0.1231413,0.0094843,0.2638874,0.0859137,0.3830385,0.1218739
			c0.0995264,0.0299997,0.1945944,0.0699043,0.2921495,0.1044569c0.0573215,0.0203285,0.0137091,0.0172768-0.0193415,0.0135679
			c-0.1419678-0.0159626-0.2829018-0.035821-0.4256201-0.0445051c-0.0380268-0.0023003-0.1698065-0.026432-0.2050638,0
			c-0.004694,0.0034733,0.0131922,0.0618277,0.0135212,0.069622c0.0039434,0.0868979,0.0442705,0.1372252,0.0909357,0.2050638
			c0.0058212,0.0084496,0.1144562-0.0347881,0.1431408-0.0347881c0.0699968,0,0.1399479,0,0.2099466,0
			c0.0661478,0,0.0999498,0.0029106,0.1557217,0.0347881c0.0379333,0.0216885,0.0455389,0.0855827,0.0880251,0.1045027
			c0.1317806,0.0585432,0.278676,0.0522051,0.4227095,0.0522051c0.1137524,0,0.2257671,0.0030985,0.3385334,0.0212669
			c0.0577917,0.0093431,0.1118746,0.0484018,0.170229,0.0484018c0.0603266,0,0.1140804-0.0061026,0.1741257-0.017417
			c0.0594816-0.01122,0.1175547-0.0174179,0.1779757-0.0174179c0.0486841,0-0.1293859,0.0243664-0.1470375,0.0280275
			c-0.1380243,0.0289669-0.2559538,0.0938463-0.3965597,0.0938463c-0.0554914,0-0.1109352,0-0.1663799,0
			c-0.05089,0-0.0787764,0.0105639-0.1218739,0.0184031c-0.010375,0.0018787-0.0634718,0.0318775-0.0454912,0.0318775
			c0.0670404,0,0.1416388-0.0208445,0.2041245-0.0425339c0.2144537-0.0744114,0.4060431-0.1296206,0.6345339-0.1296206
			c0.04319,0,0.2954359-0.0297165,0.3114443,0.0183573c0.0052109,0.0155859-0.0073242,0.0472755,0.0154924,0.0503273
			c0.102438,0.0136604,0.2283964-0.0179338,0.3269377-0.0425816c0.1757679-0.0439425,0.3169842-0.2184906,0.4797955-0.3008347
			c0.0864763-0.0437078,0.1333294-0.0749741,0.1857224-0.1469908c0.0374632-0.0515003,0.0603733-0.1048794,0.1083059-0.1528587
			c0.1172256-0.1171789,0.1610279-0.2880659,0.3144026-0.3743534c0.0797157-0.0448351,0.1476011-0.0933313,0.2253447-0.1392908
			c0.0857248-0.0506096,0.1202774-0.109622,0.1857214-0.175065c0.1242685-0.1242676,0.2472219-0.2491465,0.3714437-0.3733683"/>
		<path fill="none" stroke="#F0CAAB" stroke-width="2" stroke-linecap="round" d="M13.3673992,15.0248957
			c-0.1382113,0-0.2367983-0.0015488-0.3559504-0.069622c-0.0308437-0.0176516,0.0405626,0.0126286,0.0512657,0.0173712
			c0.0959597,0.0426741,0.1701832,0.1336098,0.2785826,0.1576939c0.0290604,0.0064783,0.1983509,0.1201839,0.2002287,0.0860996
			c0.0107965-0.1944056,0-0.393508,0-0.5881491c0-0.0538006-0.0210323-0.1322021,0.0445051-0.1441269
			c0.0801859-0.0145531,0.1753464,0.0110331,0.263278,0c0.0907946-0.0113134,0.1492434-0.245719,0.1981153-0.3221016
			c0.053566-0.0836592,0.1016397-0.1698065,0.1518726-0.2553434c0.0336609-0.0573225,0.0581207-0.1452065,0.1044569-0.1915436
			c0.0158205-0.0158205-0.0277929,0.0577459-0.0309381,0.0038977c-0.0027237-0.046196,0.0388718-0.0644588,0.0522051-0.1045046"/>
		<path fill="none" stroke="#F0CAAB" stroke-linecap="round" d="M10.3995171,12.7849236
			c-0.2076454-0.0161963-0.4152908-0.0338011-0.6231718-0.0465717c-0.0264769-0.0015955-0.0567579,0.0075588-0.0793867-0.0063839
			c-0.0089664-0.0055399-0.0191069-0.0199528-0.0237083-0.0292015c-0.0241299-0.048214-0.0363369-0.0992451-0.0620165-0.147788
			c-0.0506554-0.0956306-0.1316385-0.1573191-0.1888666-0.2463303c-0.0452099-0.0702791-0.1230478-0.0911236-0.1651592-0.1633272
			c-0.0268536-0.0460081-0.0944567-0.0937538-0.1386805-0.1158657"/>
		<path fill="none" stroke="#F0CAAB" stroke-linecap="round" d="M10.974287,13.7045641
			c0.1174612,0.0890112,0.2160025,0.1793842,0.3247786,0.2664232c0.0320168,0.0255861,0.0928602,0.0761013,0.1350651,0.0784483
			c0.046524,0.0025816,0.1420612,0.0213604,0.1642199,0.0656786"/>
		<path fill="none" stroke="#F0CAAB" stroke-linecap="round" d="M16.9030094,11.6353369
			c0.0353985-0.1651115,0.1149731-0.3051062,0.1149731-0.4762745"/>
		<path fill="none" stroke="#F0CAAB" stroke-linecap="round" d="M18.8422871,15.4198122
			c0.1029072,0,0.2031403,0.0004225,0.3054371,0.0117846c0.0201855,0.0022526,0.0880699,0.0009851,0.1048317,0.0144119
			c0.0614548,0.0491533,0.1978817,0.058589,0.2739811,0.0734253c0.0582142,0.0113134,0.1180706,0.0051174,0.1769886,0.006525
			c0.0714073,0.0017366,0.1430492,0.0231447,0.2116833,0.0413132c0.0515003,0.0136147,0.1003246,0.0353041,0.1514053,0.0504684
			c0.045208,0.0133791,0.0998554-0.0187321,0.1415901-0.0301409c0.0510311-0.0139894,0.1109352-0.0149755,0.1560059-0.0439415
			c0.0193863-0.0124416,0.0391045-0.0276518,0.0589638-0.0386381c0.0257263-0.0143185,0.1010284-0.0338478,0.1055374,0.0111275
			c0.0148354,0.1483984-0.0247879,0.2594271-0.1291046,0.3637428c-0.0875549,0.0875559-0.1430473,0.2113075-0.2451553,0.2831841
			c-0.0860538,0.0605602-0.2621517-0.0376511-0.2621517-0.1475086c0-0.0508423-0.1238461-0.087038-0.1606045-0.1068029
			c-0.1274605-0.0686359-0.2872677-0.0177927-0.4188137-0.0825787c-0.1051598-0.0518303-0.2599907-0.0390606-0.3231335-0.1527185
			c-0.0007992-0.001502,0.2743568,0.0099058,0.3297062,0.01507c0.1313114,0.0121593,0.2620564,0.0253038,0.3932266,0.0386372
			c0.1670837,0.0169945,0.3390503,0.0761003,0.4981518,0.1291504"/>
		<path fill="none" stroke="#FFFFFF" stroke-linecap="round" d="M8.9833212,11.9236383
			c0.1095734,0.1095257,0.2223864,0.2549677,0.3586264,0.3336973c0.1378355,0.0796213,0.2730885,0.1713085,0.4151506,0.2443581
			c0.046195,0.0237551-0.0370884,0.0003757-0.0475111-0.0028639c-0.0383081-0.0118771-0.0790586-0.0179806-0.1153946-0.0356321
			c-0.0422525-0.0205154-0.0799036-0.0508909-0.1272726-0.0508909c-0.0333796,0,0.013896,0.0755377,0.0277452,0.0893869
			c0.0405617,0.0405617,0.1047382,0.0809364,0.1555347,0.1091518c0.0454912,0.0252562,0.0942688,0.0577908,0.1425304,0.0808887
			c0.094738,0.0453033,0.1935148,0.0752554,0.2844973,0.1272249c0.0868521,0.0496702,0.1929979,0.0679331,0.2782536,0.1227665
			c0.0282154,0.0181217,0.0543175,0.0434256,0.0837069,0.0588245c0.0281677,0.0147419,0.0163841-0.0308905,0.0215006-0.0424404
			c0.0072308-0.0161963,0.2283497-0.0157261,0.2534199-0.0163841c0.0564766-0.0015488,0.1075077-0.0155869,0.1629047-0.025445
			c0.0687771-0.0123005,0.1161938-0.0212669,0.1696653-0.0730019c0.0585899-0.0566654,0.1294327-0.0988712,0.1866608-0.1560984
			c0.0407505-0.0407495,0.1076498-0.0634718,0.1527176-0.0972738c0.0370884-0.0278397,0.2037964,0.1037521,0.2578793,0.1232815
			c0.0407495,0.0147419,0.0858192,0.010047,0.126709,0.024929c0.0283566,0.0102816,0.0612192,0.0339899,0.0888233,0.0401402
			c0.0551157,0.0122538,0.0984478,0.0438013,0.1476011,0.0695744c0.0815935,0.0427217,0.1753931,0.0798569,0.2629967,0.1080256
			c0.103611,0.0332851,0.1923876,0.034646,0.2799902,0.101264c0.0501852,0.0381203,0.0848331,0.0468531,0.1482105,0.0475101
			c0.142437,0.0014086,0.2700853,0.0196705,0.4089069,0.0452099c0.1021566,0.0188255,0.1976461-0.0234261,0.2935581-0.055397
			c0.1387281-0.0462437,0.2303677-0.1663799,0.3603163-0.2285376c0.0181684-0.0086851,0.0382614-0.0184498,0.0537071-0.0310793
			c0.0015497-0.0012665,0.0202341-0.0138016,0.0169954-0.01474c-0.0672274-0.0192022-0.1460047-0.0183105-0.2149696-0.0333328
			c-0.1893368-0.0412664-0.3538847-0.1291504-0.5282459-0.2092886c-0.04704-0.021596-0.0987759-0.035821-0.1448307-0.0588245
			c-0.1152077-0.0576038-0.2143583-0.1382113-0.3235092-0.205862c-0.0987301-0.0612183-0.168211-0.1203709-0.2211666-0.2262831
			c-0.0281687-0.0563831-0.0826263-0.1184473-0.1295271-0.1606054c-0.0067596-0.0061026-0.0249281-0.0066195-0.0345058-0.0130033
			c-0.0282145-0.0188255-0.0466652-0.041831-0.082016-0.0480747c-0.1333752-0.0237551-0.257926-0.0715933-0.3885317-0.1131411
			c-0.1199017-0.0381212-0.1677408,0.115818-0.2686768,0.1595249c-0.0399036,0.0172768-0.1888666,0.0300932-0.2313538,0.006197
			c-0.0610771-0.0343647-0.1423426-0.0279331-0.2041712-0.0695753c-0.0211267-0.0141773-0.0768051-0.066617-0.0588245-0.0486364
			c0.0190601,0.0190601,0.0607958,0.0124407,0.0848331,0.0124407c0.0371351,0,0.074317,0,0.1114521,0
			c0.043519,0,0.0827198,0.0187788,0.1249714,0.0203753c0.1201382,0.0044594,0.239852,0.0001402,0.3625708,0.0152578
			c0.1007948,0.0124407,0.1804161,0.0469465,0.2629957,0.1091509c0.0494823,0.0372763,0.0888233,0.0608435,0.1436567,0.0882597
			c0.1343155,0.0671339,0.2469406,0.1660042,0.3603172,0.2629957c0.1675529,0.1433764,0.3048258,0.3321028,0.5254278,0.3976393
			c0.1164751,0.0346003,0.2275515,0.081172,0.3461857,0.1097145c0.083847,0.0201883,0.1991024,0.0148821,0.2771282,0.0503273
			c0.0291996,0.0132856,0.0569925-0.0081215,0.0775089-0.0265722c0.0517826-0.0466175,0.1061935-0.0591059,0.174736-0.0599499
			c0.0122051-0.0001421,0.1122961,0.0040369,0.0848799,0.0101871c-0.108119,0.0241776-0.2322464,0.0160551-0.3416328,0.0158205
			c-0.2517281-0.0005159-0.5032225-0.0176039-0.754528-0.0299511c-0.0931892-0.0046015-0.1861439-0.0062447-0.2794275-0.0062447
			c-0.0332384,0-0.0774145,0.0062447-0.1097155-0.0056334c-0.0179329-0.0066195-0.0267591-0.0368061-0.0339422-0.0515003
			c-0.0270414-0.055398-0.0612183-0.1028137-0.1052065-0.1464748c-0.122344-0.1214504-0.2851095-0.2002277-0.4253387-0.2975016
			c-0.0542707-0.0376511-0.1179304-0.0574627-0.1787262-0.0814524c-0.0680733-0.0268545-0.1392918-0.0896683-0.0752096,0.018075
			c0.0548344,0.0922966,0.1187296,0.1786318,0.1724834,0.271493c0.0209379,0.0361958-0.2216825-0.0000935-0.2420578-0.0045071
			c-0.1210756-0.0261021-0.2138901-0.088541-0.2624331-0.2002277c-0.0344124-0.0790596-0.2427616,0.1015453-0.2619162,0.1255827
			c-0.0721569,0.09056-0.0496693,0.1946878-0.1724825,0.2341232c-0.1781626,0.0572748-0.3398943,0.0262899-0.5197945-0.0090132
			c-0.1595726-0.0313616-0.2870798-0.0732851-0.4202681-0.1662865c-0.0539885-0.0376978-0.1107473-0.0680256-0.1657219-0.1046438
			c-0.0245533-0.0163851-0.045867-0.0368061-0.0740824-0.0480738c-0.0398579-0.0159626,0.100419,0.0013609,0.1085882,0.0022535
			c0.1156769,0.0126286,0.2074575-0.0150232,0.3201303-0.0350695c0.0389185-0.0069017,0.0836124-0.0122061,0.1210289-0.0248814
			c0.0733776-0.0248356,0.140605-0.0896683,0.2098522-0.1261463c0.0728607-0.0383549,0.1457224-0.0787773,0.2200394-0.1159582
			c0.0269003-0.0134268,0.0730495-0.0211735,0.0950203-0.0407028c0.0450687-0.0400925,0.1403236-0.0181227,0.1991014-0.0181227
			c0.0622044,0,0.0048351,0.1297617-0.0073709,0.1583986c-0.0484018,0.1133299-0.1343145,0.1713562-0.2301798,0.238678
			c-0.0473232,0.0331907-0.0755844,0.0861006-0.1244564,0.1176491c-0.038496,0.0248814-0.0946913,0.038167-0.1402769,0.044693
			c-0.0226288,0.0032396-0.034318,0.000329-0.0293884-0.0254927c0.0055399-0.0292473,0.0361013-0.0460539,0.0576973-0.062767
			c0.0541773-0.0419235,0.1099491-0.0851622,0.1481647-0.1430941c0.0299988-0.0454922,0.0347872-0.076992,0.0752554-0.1114054
			c0.0484953-0.0413589,0.1014986-0.0918274,0.1657219-0.1046429"/>
		<path fill="none" stroke="#FFDE6C" stroke-width="2" stroke-linecap="round" d="M19.016695,17.0001354
			c-0.1229076-0.0196705-0.2369862-0.0251179-0.352335-0.0775566c-0.0438499-0.0199051-0.1083069-0.0085907-0.1560993-0.0085907
			c-0.0815468,0-0.0947857-0.0237083-0.0947857-0.1120625c0-0.1156292-0.0272751-0.1769886-0.1302299-0.2250156
			c-0.1321087-0.0616417-0.2301807-0.1907921-0.361021-0.2489586c-0.1086807-0.0483093,0.012207,0.2735119,0.0345058,0.3169365
			c0.0578384,0.1126728,0.1328602,0.207365,0.1895714,0.3207893c0.0577908,0.1155834,0.1338921,0.1588192,0.2499447,0.2240753
			c0.0794334,0.044693,0.1766605,0.097086,0.2240295,0.1799946c0.0287323,0.0502815-0.1930923,0.0268059-0.2413063,0.0268059
			c-0.1317787,0-0.2696152-0.0382137-0.3954315-0.0775566c-0.0630035-0.0196705-0.1376019-0.0068989-0.1982098-0.0344582
			c-0.2181149-0.0991039-0.3915825-0.2668457-0.6032658-0.3877792c-0.0979786-0.0560093-0.187788-0.0965233-0.2681141-0.17239
			c-0.0492001-0.0464306-0.084034-0.06563-0.1244564-0.1206532c-0.0377445-0.0512657-0.0922508-0.0929546-0.1378822-0.1340332
			c-0.0697155-0.0627213-0.1002769-0.1383038-0.155159-0.2068462c-0.0475101-0.0593891-0.0471821-0.0259151-0.0172291,0.0306549
			c0.0212193,0.0400925,0.0210781-0.0273228,0.0210781-0.0430965c0-0.0376034-0.0253506-0.0649281-0.0383072-0.0986347
			c-0.0445061-0.1156311-0.1277428-0.1997118-0.16469-0.3198023c-0.0262909-0.0854425-0.0510788-0.1904163-0.0555382-0.2796154
			c-0.0031452-0.0631428-0.0517349-0.1079769-0.0517349-0.1723413c0-0.1261921,0.0037556-0.2530899,0-0.3791885
			c-0.0002823-0.0099535-0.0309391-0.2301331,0.0134258-0.1857691c0.0392952,0.0392952,0.0383091,0.1932335,0.0383091,0.0172291
			c0-0.1499949,0.0131454-0.2782068,0.0507507-0.4097986c0.0157738-0.0551615,0.0170879-0.1069908,0.0450211-0.1628113
			c0.0572739-0.1146441,0.1688671-0.2472677,0.1962852-0.3705502c0.0409374-0.1842661,0.1659546-0.2942629,0.293932-0.422287
			c0.1255836-0.1255827,0.1763802-0.1946411,0.2413063-0.3686733c0.0585918-0.1568966,0.0967579-0.2459068,0.237505-0.3226652
			c0.2533722-0.1382113,0.5637836-0.1876926,0.8483753-0.1876926c0.0866642,0,0.1206532-0.0074644,0.1206532,0.0947857
			c0,0.024271-0.0175114,0.0121593-0.024929,0.0067129c-0.0768986-0.0566654-0.0987759-0.1793833-0.12253-0.2642641
			c-0.0477448-0.1704159,0.0300922-0.1836081,0.1914959-0.2345924c0.1483517-0.0468531,0.2579727-0.2009325,0.4059963-0.2413063
			c0.1939831-0.0529099,0.3621941-0.1540327,0.5400276-0.2393818c0.0853024-0.0409384,0.2018719-0.0391064,0.29492-0.0488253
			c0.0837994-0.0087786,0.1651592-0.0383081,0.2489605-0.0383081c0.0573673,0,0.1448765,0.0008917,0.1963291-0.0268068
			c0.0610313-0.0329094,0.0875568-0.0725327,0.1656303-0.0766163c0.0693378-0.0036631,0.1777382-0.058919,0.2029972,0.0421104
			c0.0679779,0.2719164,0.0619698,0.5609207,0.1378822,0.8311462c0.0314541,0.1119213,0.013567,0.2243118,0.0306549,0.3390026
			c0.0229588,0.153986,0.0248833,0.3015862,0.0248833,0.4576836c0,0.2391949,0.0184021,0.485384-0.0210323,0.7219954
			c-0.0245533,0.1472254-0.1074619,0.1877871-0.229805,0.2489595c-0.0678864,0.0339422-0.1326237,0.0918274-0.2154865,0.0699034
			c-0.0742226-0.0196705-0.1309814-0.0887299-0.1694775-0.1503239c-0.1511688-0.2419167-0.2285843-0.5274-0.2470341-0.8101139
			c-0.0141296-0.2165184,0.0191555-0.4460411-0.1426697-0.6166458c-0.1133308-0.1194324-0.1999454,0.025445-0.2326698,0.1378822
			c-0.1013584,0.3478765-0.1322956,0.7096004-0.1072731,1.0686502c0.0097198,0.1393852,0.0321121,0.2596159,0.0890579,0.3877811
			c0.0143661,0.0323458,0.0439892,0.1503696,0.0105171,0.1771297c-0.0178871,0.0143661-0.0857258-0.0215015-0.1072273-0.0210323
			c-0.0934715,0.0019245-0.174078,0.0609369-0.2700367,0.0507498c-0.0468998-0.005024-0.0870876-0.0269938-0.1292458-0.0459614
			c-0.0451622-0.0203276-0.0897617,0.0309381-0.127367,0.0507498c-0.2313995,0.1217794-0.4812984,0.1361456-0.5477276,0.442379
			c-0.0250225,0.1153955-0.0124874,0.2643118-0.1196671,0.3446846c-0.0282631,0.0212193-0.0678864,0.0080738-0.099575,0.0057735
			c-0.1207466-0.0088253-0.2143593,0.0294352-0.336092-0.0191545c-0.1490078-0.0594816-0.3435097-0.1729984-0.3447304-0.3562317
			c-0.0004692-0.0650682,0.0313606-0.1334696,0.037323-0.1991482c0.003521-0.0383558-0.0016899-0.0766649,0.0047894-0.1149263
			c0.0389652-0.2294292,0.1935139-0.4394684,0.3504581-0.6051435c0.0787296-0.0830498,0.152998-0.2112131,0.2662354-0.2489586"/>
		<path fill="none" stroke="#FFDE6C" stroke-width="0.75" stroke-linecap="round" d="M19.5509968,16.8623466
			c0-0.2145462,0.147459-0.4781055-0.0680733-0.5738773c-0.1025314-0.0455856-0.3185349,0.0074177-0.4240704-0.0399532
			c-0.1306057-0.0585423-0.2940273-0.140934-0.3964176-0.2403202c-0.0308456-0.029952-0.0430527-0.0519228-0.0689659-0.0852079
			c-0.0183105-0.0235205-0.0315018-0.0793867-0.0507488-0.0947857c-0.0415478-0.0332384-0.0526276-0.1556759-0.0689182-0.2077866
			c-0.0298119-0.0953951-0.0430984-0.1932325-0.0430984-0.2920551c0-0.0703735,0.001503-0.1317339,0.0162449-0.1982098
			c0.0227222-0.102109,0.1013584-0.0775566,0.1905575-0.0775566c0.0859108,0,0.1309795-0.0905132,0.216423-0.0996208
			c0.0738945-0.0078869,0.1496677-0.0038033,0.2240791-0.0038033c0.051218,0,0.0937519,0.0236616,0.1455326,0.0162449
			c0.0424404-0.0060568,0.0369949,0.0169001,0.0727692,0.0182152c0.119009,0.0044127,0.239006,0,0.3581104,0
			c0.1002312,0,0.2004623,0,0.3006935,0c0.2036552,0,0.401865-0.0344601,0.6042061-0.0344601
			c0.0359612,0,0.0722504,0.0014086,0.1081657,0c0.0403271-0.0016432,0.0061493-0.0684013,0.0517349-0.0785408
			c0.0176029-0.0038977,0.111639-0.1407938,0.1302299-0.1694784c0.0872269-0.1348314,0.1489162-0.3130884,0.2183037-0.459609
			c0.0468521-0.0989637,0.0418282-0.1981163,0.0766163-0.2959061c0.0430489-0.12117,0.1261463-0.2205553,0.1742649-0.3370304
			c0.0601406-0.1455822-0.0084496-0.6131248,0.0555382-0.4691868c0.0301876,0.0679321-0.0342236-0.1387281-0.0402336-0.1541729
			c-0.0638466-0.1642199-0.1669884-0.3120556-0.2211666-0.4806881c-0.0257721-0.0801859-0.0111732-0.176755,0.0028648-0.257597
			c0.0347404-0.1997118,0.02075-0.4166059,0.0383091-0.6185713c0.009388-0.1078835,0.0011749-0.2016363,0.0689182-0.2882061
			c0.0634708-0.0810776,0.2272224-0.1483994,0.3275013-0.1483994c0.0303726,0,0.0748806,0.0078869,0.1034222-0.003849
			c0.0304222-0.0125351,0.0344582,0.0539417,0.0344582,0.0105162c0-0.0820627-0.0193882-0.7520876-0.0383072-0.7439661
			c-0.0723457,0.0309849-0.150135,0.1407461-0.1781158,0.2144527c-0.0419235,0.1105127-0.0605621,0.1146441-0.1483994,0.1541739
			c-0.0959587,0.04319-0.1748753,0.1208878-0.2307911,0.2097101c-0.0615005,0.0976973,0.1043644,0.0972271,0.1551609,0.1072273
			c0.155817,0.0308437,0.2404137,0.0815458,0.3753395,0.1551113c0.0499496,0.027277,0.2315407,0.0709848,0.2250156,0.068965
			c-0.3293324-0.1013107-0.6830292-0.094738-1.0217037-0.1388216c-0.0828609-0.0107965-0.2973595-0.0060558-0.2413063-0.0680256
			c0.0292015-0.0322523,0.0493412-0.0766172,0.065115-0.1168032c0.0038033-0.0096712,0.0333786-0.0210791,0.0230045-0.0210791
			c-0.1153965,0-0.2297573-0.0015965-0.342804,0.0249281c-0.1297626,0.0304222-0.2859535,0.0629091-0.3916321,0.14746
			c-0.0164318,0.0131454-0.0958195,0.0669937-0.0899963,0.0669937c0.0663815,0,0.1406994-0.0345535,0.2058601-0.0459614
			c0.1059589-0.0184975,0.2107468-0.0210323,0.3178787-0.0210323c0.0634251,0,0.1097145-0.0253506,0.171402-0.0345058
			c0.0446472-0.0065727,0.0991516-0.010704,0.1369438-0.0382614c0.0300922-0.0219707,0.0407486-0.0598574,0.0727673-0.0823917
			c0.0501862-0.0353031,0.1083527-0.0516882,0.0076523-0.0516882c-0.0580273,0-0.2539349-0.0483084-0.2633247,0.0172291
			c-0.0265732,0.1861916-0.3103657,0.3344488-0.4423809,0.4347277c-0.1151123,0.0874624-0.2349682,0.1781626-0.3245888,0.2929945
			c-0.0932369,0.1194334-0.1548309,0.2661419-0.2585373,0.3773117c-0.0438461,0.0469465-0.0766144,0.036665-0.0766144-0.0191545"/>
		<path fill="none" stroke="#F0CAAB" stroke-linecap="round" d="M6.7578926,9.174058
			C6.895113,9.0368328,7.1403255,8.8947248,7.2191072,8.717454c0.0286279-0.0644112,0.054266-0.1391506,0.0737958-0.207552
			c0.0163794-0.0573225,0.0080609-0.134737,0.0299802-0.1867542C7.3810363,8.18503,7.4767842,8.0809021,7.5834708,7.9656944
			C7.6532197,7.8903446,7.733367,7.7971087,7.733367,7.6901169c0-0.0519705,0.0353789-0.1125784,0.042665-0.1672244
			C7.7868204,7.4420028,7.8396964,7.3724747,7.8567429,7.295764C7.8982911,7.1087747,8.0377979,7.3005524,8.1692209,7.34764
			c0.0965652,0.0345998,0.206749,0.0762887,0.2697983,0.1614499C8.5126314,7.6084762,8.6192017,7.7252331,8.72962,7.783494
			c0.079669,0.0420647,0.1800413,0.0830493,0.269803,0.0830493c0.133893,0,0.0838938-0.1189165,0.062252-0.2271757
			C9.0152445,7.4072156,8.9541197,7.2182078,8.72962,7.1308866C8.5931931,7.077837,8.4386911,7.0616403,8.3052683,7.099761
			C8.1825304,7.13483,8.5738974,7.1452994,8.6880722,7.088212c0.124033-0.0620165,0.3167973-0.1583042,0.4105024,0.0103755
			C9.183032,7.2506013,9.386734,7.3183923,9.4721775,7.4721899c0.0260553,0.0468998,0.0903254,0.269803,0.1187286,0.269803
			c0.0443649,0,0.0723448-0.0702791,0.1245499-0.0818748C9.789115,7.6437802,9.7980347,7.6525598,9.7454548,7.5736418
			C9.7006207,7.5064611,9.663579,7.3987651,9.663579,7.3165145c0-0.0473695-0.0194359-0.1134706-0.0622978-0.1349254"/>
		<path fill="none" stroke="#F0CAAB" stroke-width="0.75" stroke-linecap="round" d="M9.7880831,6.8494411
			c0.1917305,0,0.3744469-0.0305629,0.5604029-0.041501c0.0285912-0.0016904,0.1358175-0.1565681,0.1660509-0.1868014
			c0.0436144-0.0436139,0.1249256-0.0830021,0.1867552-0.0830021c0.0311718,0,0.0622978,0,0.0934238,0
			c0.0591059,0,0.0284967-0.0122533,0.010375,0.010375c-0.0292473,0.0365248-0.1984444,0.0518765-0.239851,0.0518765
			c-0.1197615,0-0.2330446,0.0207505-0.3516788,0.0207505c-0.0436134,0-0.2556257,0.0004692-0.2801781,0.0311728
			c-0.0175581,0.021924,0.2217293-0.009953,0.2536535-0.0150232c0.1423426-0.0225811,0.2867508-0.0378389,0.4277792-0.0668521
			c0.0481205-0.0099058,0.1161928,0.0020657,0.1533747-0.0276985c0.0108919-0.0087323,0.1914492-0.0084038,0.1775532-0.0207505
			c-0.0395765-0.0352101-0.2278805-0.0057278-0.2767048-0.0034742c-0.1517782,0.0070891-0.2978773,0.0798564-0.4404545,0.1280241
			C10.055398,6.7049856,9.8916941,6.7530117,9.715456,6.798738c-0.1332827,0.0345531-0.2573624,0.050703-0.3943529,0.050703
			c-0.0619698,0-0.1530466,0.0164781-0.2017775,0.0507493C8.7734213,7.143609,8.2945175,7.2689099,8.0758247,7.6577234
			c-0.0556221,0.098917-0.0053701,0.2960467-0.1037755,0.3747759C7.8907561,8.0975208,7.8570342,8.250145,7.7794876,8.3276539
			C7.5910854,8.5160513,8.2252703,8.0294952,8.4136677,7.8410978c0.016573-0.0165725,0.1914024-0.1936555,0.1914024-0.0899501
			c0,0.102344-0.0892458,0.1630464-0.1556759,0.2294292C8.3553133,8.0746584,8.2671947,8.1825886,8.1911259,8.2919273
			C8.1152372,8.4010324,8.0403662,8.5176477,8.0250893,8.6551552C8.0229158,8.6746845,7.9932599,8.8012066,8.0239353,8.7543068
			c0.0617952-0.0945044,0.1066113-0.195158,0.1775713-0.2859526C8.233017,8.4279795,8.5635691,8.1355009,8.5635691,8.2631025
			c0,0.1653938-0.029952,0.660964-0.02075,0.4958048c0.0017834-0.03197,0.0670395-0.3803625,0.1406527-0.3067036
			C8.7420139,8.510747,8.6735182,8.6759062,8.7929983,8.6759062c0.0891514,0,0.2894268-0.2554379,0.2894268-0.1026258
			c0,0.0995741-0.1445026,0.2151566-0.1706514,0.0610771c-0.0120659-0.0711718-0.01122-0.2803659-0.0380268-0.2132788
			C8.8644514,8.4442701,8.855813,8.5454407,8.8126221,8.5260048c-0.0939407-0.0422993-0.1781626-0.139432-0.2940283-0.1118746
			C8.3602896,8.451828,8.3382711,8.5792894,8.3352671,8.7128057C8.3301973,8.9365072,8.1656809,8.962985,7.9778142,8.8788099
			C7.8652406,8.8283892,7.7272964,8.7647285,7.6307459,8.6862812C7.5878224,8.6513996,7.5465751,8.487978,7.5465751,8.5432806
			c0,0.095068,0.0219989,0.2160501,0.0426602,0.3090038C7.6042495,8.9198885,7.578156,8.9649105,7.5984607,9.0298843
			c0.023633,0.0755844,0.0311351,0.1846418,0.0311351,0.2640295c0,0.084691-0.0427547,0.084034-0.1141558,0.0991507
			C7.4224148,9.4128294,7.3326058,9.4476166,7.2398624,9.4691658c-0.0503602,0.0117359-0.0970674,0.05474-0.1498966,0.0576506
			c-0.085711,0.0047884,0.0325155-0.0621109,0.0830207-0.0369005c0.054491,0.027276,0.1044378,0.0951614,0.1498966,0.1360989
			c0.0539513,0.048543,0.122982,0.0854902,0.1937118,0.0876026C7.5586309,9.7148857,7.5094404,9.781127,7.5465751,9.7599068
			c0.0353699-0.0201874,0.1660366-0.1989594,0.1660366-0.2434654c0-0.0793409,0.0626974-0.1697607,0.0991611-0.238678
			c0.0648708-0.1225309,0.0424676-0.0030041,0.0714903,0.0369005C7.9241729,9.3709059,7.980504,9.4013748,8.053915,9.3803892
			c0.0517492-0.0147886,0.1102076-0.0472746,0.1671772-0.0599508c0.0519238-0.011549,0.064599-0.0203753,0.1118746-0.0518761
			C8.386157,9.2330704,8.4928207,9.2130709,8.53127,9.1636362c0.0379801-0.048872,0.0814056-0.1010294,0.1256762-0.1453009
			c0.0644112-0.0644112,0.0462894-0.1427183,0.0772743-0.217927c0.0168543-0.0409374-0.0560074,0.0134735-0.0761003,0.020751
			c-0.0581675,0.0211725-0.0104218,0.0576029,0.009201,0.0876493c0.0679321,0.1038465,0.0034752,0.1521072,0.1291513,0.1037521
			C8.9265623,8.9625626,9.0579662,8.925005,9.1862249,8.8673077c0.0541296-0.0243654,0.102437-0.0029573,0.1452532-0.0565243
			c0.057744-0.0721569,0.2498035-0.1764259,0.3424768-0.1764259c0.0599508,0,0.1348314-0.0337543,0.1971769-0.0426273
			c0.0868511-0.0124407,0.1572247-0.0457735,0.249052-0.0403748c0.0350227,0.0020657-0.0195761,0.0099058-0.0634251-0.02075
			c-0.0558662-0.0391064-0.1044569-0.041501-0.1694775-0.041501c-0.108964,0-0.2152042-0.02075-0.3263273-0.02075
			c-0.1802759,0-0.3605051,0-0.5407801,0"/>
		<path fill="none" stroke="#FFFFFF" stroke-linecap="round" d="M16.7133923,12.2548943
			c-0.0698109,0-0.1176014,0.0073709-0.1819191,0.036149c-0.0416412,0.0186386-0.0438023,0.0460548-0.0728607,0.0751619
			c-0.0417366,0.0416889-0.086853,0.0744572-0.1163826,0.1276484c-0.0102806,0.0185432-0.0105629,0.0102339-0.0271339,0.0118771
			c-0.0575104,0.0057278-0.1395264,0.1268044-0.1689148,0.1683512c-0.044178,0.0623922-0.1022034,0.1235647-0.1389637,0.1903696
			c-0.0162439,0.0294828-0.0528154,0.0692463-0.0564766,0.1022501c-0.0028639,0.0258675-0.0173702,0.0077467-0.0327682,0.0101881
			c-0.0691071,0.0107975-0.1498079,0.1178827-0.1915436,0.1694775c-0.0881662,0.1090574-0.1589146,0.2264709-0.2378321,0.3434629
			c-0.0227232,0.0337076-0.0484018,0.0778379-0.0790586,0.1050673c-0.0171356,0.0152102-0.0217361,0.0888691-0.0276985,0.1191969
			c-0.0213604,0.1086359-0.043191,0.1985855-0.0824862,0.3016806c-0.0524397,0.1376944-0.0696688,0.2891922-0.1237049,0.4242582
			c-0.0785875,0.1964254-0.1097612,0.4248209-0.1197605,0.6350021c-0.0019712,0.0413609-0.0209389,0.1081181-0.025445,0.1598539
			c-0.0112677,0.130559-0.0152578,0.2593813-0.0152578,0.3903618c0,0.1880693,0.0012674,0.3628998,0.068965,0.5423307
			c0.0285435,0.0757236,0.0409842,0.1527176,0.0694809,0.2276917c0.0471344,0.1240807,0.1291971,0.2353916,0.1965666,0.3490963
			c0.0540829,0.091217,0.1071796,0.1737499,0.1745949,0.2559071c0.0413132,0.0503731,0.0790586,0.1037045,0.1208887,0.153656
			c0.0323458,0.0386848,0.0776958,0.0665703,0.1118269,0.1045036c0.0768051,0.0853481,0.1605577,0.1581631,0.2440748,0.233326
			c0.0368538,0.0331917-0.0824375-0.0256329-0.0937977-0.0305157c-0.0874624-0.0376053-0.1815443-0.0597172-0.2700386-0.0937519
			c-0.0436134-0.0168076-0.098588-0.0289192-0.0112677-0.0022545c0.1094332,0.0334263,0.2136555,0.0862885,0.3135109,0.1412163
			c0.0419703,0.023098,0.0870867,0.0329571,0.1282587,0.0564766c0.012722,0.0073242,0.0274181,0.0082169,0.0372753,0.0181217
			c0.0240841,0.0240841-0.0662403-0.0159626-0.099432-0.0237541c-0.0819235-0.0191555-0.1636572-0.0553513-0.2485838-0.0553513
			c-0.0667114,0-0.1058655,0.0282154-0.1784916,0.0022526c-0.0401869-0.0143661-0.0910769-0.0486355-0.1322031-0.0271339
			c-0.0283079,0.0148354-0.0543175,0.0439415-0.0881186,0.0452099c-0.0313606,0.001173-0.0662889,0.0176048-0.0949268,0.0327682
			c-0.0136604,0.0072289-0.0155859,0.0502338-0.0400925,0.0638485c-0.0274162,0.0152092-0.0621099-0.0051651-0.0864286-0.016386
			c-0.17591-0.0810757-0.3293791-0.1913071-0.4960403-0.2886734c-0.0403271-0.0235691-0.0915461-0.0404224-0.1265221-0.0729103
			c-0.0417347-0.0387306-0.1075077-0.0230503-0.1615906-0.0293407c-0.1483517-0.0173225-0.2805538-0.0335197-0.41576-0.1011238
			c-0.1378822-0.068964-0.2725735-0.14361-0.4158077-0.201683c-0.1973648-0.0800915-0.3815374-0.1840801-0.5762253-0.2689114
			c-0.0353031-0.015398-0.1495256-0.0435658-0.1570368-0.0937996c-0.0103283-0.0689182-0.0769463-0.1369438-0.1107473-0.1954403
			c-0.0940819-0.1629982-0.1616383-0.3442135-0.237833-0.5163679c-0.06042-0.1365681-0.11901-0.2743092-0.16436-0.4168863
			c-0.0117836-0.0369949-0.0138025-0.0832376-0.0158215-0.122016c-0.0013609-0.0253038-0.0117369-0.053237-0.0203285-0.0768518
			c-0.0031443-0.0085907-0.0247412-0.0734243-0.0181208-0.036149c0.0445528,0.249382,0.2455788,0.3216333,0.4316282,0.4474039
			c0.1433764,0.0969448,0.297596,0.1634207,0.4564648,0.2305088c0.121357,0.051219,0.2301798,0.1013575,0.3570299,0.1310749
			c0.066946,0.0156326,0.1349716,0.0440826,0.2044992,0.0462894c0.0647402,0.0021133,0.1343632-0.0741758,0.1734219-0.117507
			c0.0988235-0.1095276,0.1555347-0.2550163,0.2367058-0.3773594c0.0007982-0.001174,0.0222998-0.0440826,0.031642-0.0338955
			c0.0010338,0.0011272,0.0049295,0.0070887,0.0079346,0.0056343c0.0416412-0.0202341,0.0975552-0.0848799,0.1265221-0.1118279
			c0.1956739-0.1820126,0.4094219-0.3483925,0.4988565-0.60674c0.0260077-0.0751619,0.0078869-0.1595249,0.0355854-0.2338896
			c0.0052109-0.0139894,0.0032396-0.010046-0.0158215,0c-0.1053009,0.0556316-0.1968002,0.1402779-0.2858591,0.2180681
			c-0.0233793,0.020422-0.0949268,0.0637531-0.0949268,0.1033764c0,0.0330982,0.0625343-0.0086842,0.073473-0.0163832
			c0.0551147-0.0386848,0.0878839-0.1027203,0.1208878-0.1592913c0.0652084-0.1118279,0.127038-0.2251568,0.1796179-0.343462
			c0.0412664-0.0929079,0.082016-0.180088,0.1468964-0.2587709c0.0685425-0.0830965,0.219758-0.3671713,0.1841726-0.2654848
			c-0.0482616,0.1378832-0.1272726,0.2721977-0.1852989,0.4056206c-0.1530943,0.3519125-0.2947788,0.7074413-0.3886719,1.0801048
			c-0.0370417,0.1470366-0.0734253,0.2960939-0.0819235,0.4480133c-0.0054445,0.0979309-0.0059614,0.2137957,0.0638485,0.2920551
			c0.0605612,0.0678864,0.1527176,0.1100922,0.2338886,0.1468983c0.0229101,0.0103741,0.0952082,0.0282135,0.0700455,0.0282135
			c-0.0277462,0-0.0386848-0.2879715-0.0401402-0.3044968c-0.0141773-0.1630459-0.0078402-0.3214912-0.010704-0.4841146
			c-0.0006104-0.0350218-0.0239897-0.0576973-0.029952-0.0904198c-0.0018311-0.0101404-0.0010328-0.0227222,0.0005636-0.0327215
			c0.0153513-0.0959597,0.0169945,0.0697165,0.0169477,0.0711708c-0.005023,0.3626642-0.0111265,0.7254219,0.0011263,1.0880394
			c0.0055866,0.1652985,0.0022068,0.3621464,0.0621586,0.5220013c0.0476027,0.1268978,0.1792889,0.1799011,0.2982521,0.2225742
			c0.0516415,0.0184975,0.104269,0.0349751,0.1582108,0.0452099c0.0190601,0.0036163,0.1273661,0.0386372,0.0937529-0.0016899
			c-0.0737534-0.088541-0.1645012-0.1640797-0.24403-0.2474575c-0.0607491-0.0637074-0.1178827-0.1304169-0.1824808-0.1903687
			c-0.0298119-0.0276985-0.0840359-0.0596218-0.0999975-0.099432c-0.0126762-0.0317364-0.0038033-0.0817356-0.0033808-0.1152554
			c0.0014086-0.1099491,0.1010303,0.0445518,0.1253958,0.073988c0.0041304,0.0049763,0.1042681,0.1257248,0.0327682,0.0904198
			c-0.1902752-0.0939884-0.3705978-0.2663765-0.5118141-0.4220047c-0.1041279-0.1147842-0.1638908-0.2195225-0.1542196-0.3745422
			c0.0018778-0.0299044,0.0156803-0.0549269,0.0073709-0.0864286c-0.0179806-0.0678844-0.0948801,0.064599-0.0999966,0.0734243
			c-0.083847,0.1443157-0.1013584,0.2879734-0.0198116,0.435009c0.112484,0.2027645,0.2893324,0.3658085,0.4225674,0.5541611
			c0.010047,0.014225,0.0772285,0.0830021,0.0186377,0.0412655c-0.2207899-0.1574135-0.4604073-0.3373585-0.6118107-0.5660839
			c-0.0389652-0.0588722-0.0793867-0.1325321-0.1090097-0.1976929c-0.0028639-0.0062904-0.0041313-0.0235214-0.0101871-0.0271358
			c-0.0045538-0.0027237-0.0042257,0.0099525-0.004508,0.0152588c-0.0031443,0.0611706,0.0077467,0.1253471,0.0197649,0.1847343
			c0.0284033,0.140089,0.0676975,0.2813053,0.1254425,0.4123821c0.0083561,0.0190125,0.0427675,0.070982,0.030468,0.0542221
			c-0.1204653-0.1642666-0.401865-0.20788-0.4660406-0.4146328c-0.014225-0.0458202-0.039999-0.0741291-0.0655375-0.1124382
			c-0.0162439-0.0243187-0.0203753-0.1104183-0.0559139-0.1123905c-0.0696688-0.0038967-0.0463362,0.1358643-0.0463362,0.1711674
			c0,0.0738468-0.0082159,0.0892925-0.0881195,0.0819225c-0.0295763-0.0027695-0.0884008-0.0171356-0.1022501-0.0355854
			c-0.0470877-0.0628147-0.1315451-0.0988235-0.1881151-0.153141c-0.0529566-0.0507965-0.0930967-0.1122494-0.1446438-0.1637974
			c-0.0250692-0.0250683-0.0757246-0.033989-0.0869923-0.067791"/>
		<path fill="#333333" d="M12.2019186,1.7224774c-0.0638323,0.0082084-0.2913475,0.036938-0.4988823,0.0615633
			c-1.0976162,0.1272311-2.4067059,0.5622809-3.4124908,1.1327662C5.75211,4.3697042,4.0558405,6.8486562,3.6128137,9.762639
			c-0.0997803,0.6361609-0.0957892,2.0480108,0,2.6677561c0.0917983,0.5622921,0.3113158,1.4405994,0.4709656,1.8797302
			c0.97785,2.647213,3.1331077,4.760931,5.7832842,5.6638603c1.0337372,0.3570557,1.9078245,0.4965839,3.053278,0.4965839
			c1.5685453,0,2.8616896-0.3037281,4.2307205-1.001421c1.2093315-0.6115379,2.2350483-1.4364719,3.0811825-2.470726
			c0.5867271-0.7223625,1.1933861-1.7894459,1.5246944-2.6882973c0.1676216-0.4596729,0.3871174-1.3338547,0.4709282-1.9002266
			c0.0958195-0.6443672,0.0958195-2.0151796,0-2.6472597c-0.2474461-1.6047516-0.8580933-3.0699277-1.7960606-4.3135262
			c-1.500679-1.978236-3.6758842-3.2751708-6.1384954-3.6486549C13.8981733,1.7388943,12.457386,1.6855395,12.2019186,1.7224774z
			 M14.2573862,2.3791521c3.66397,0.5704901,6.5855532,3.3572557,7.3199224,6.9853945l0.1037903,0.5048389l-0.3273182,0.3242235
			c-0.3312588,0.320097-0.3312588,0.320097-0.4150696,0.2421484c-0.1436577-0.1354494-0.4948978-0.0615807-0.4948978,0.106699
			c0,0.0328302-0.0478859,0.069788-0.1077766,0.0820761c-0.3631992,0.0779953-1.0057831,0.2544832-1.3490486,0.3775969
			c-0.3991261,0.1395292-1.2851734,0.5663729-1.6044731,0.7716093l-0.1676216,0.106699l0.0559044-0.1436567
			c0.0318928-0.0820761,0.0598469-0.2257328,0.0598469-0.328351c0-0.1723604,0.0119591-0.1887751,0.1915874-0.3036814
			c0.8301888-0.5499573,0.8660679-1.2764482,0.0997581-2.0480108l-0.2913456-0.2913933l0.1037903-0.3447666
			c0.2434597-0.7921052,0.6785107-1.6909556,0.9858036-2.0315952l0.1596508-0.1805859l-0.2315006-0.3488612
			c-0.8181839-1.2394757-2.0554695-2.0685289-3.4443846-2.314781c-0.7663555-0.1354396-1.5565844-0.1067128-2.4147263,0.0902932
			c-0.431016,0.098501-0.4031105,0.0656657-0.44701,0.5048199c-0.0359249,0.3734837-0.2434607,1.3749156-0.3991241,1.9454007
			c-0.1516762,0.5294471-0.3272724,0.9357471-0.6665049,1.5144544c-0.187602,0.324224-0.2075815,0.3406396-0.3273191,0.3283515
			c-0.1157045-0.0123348-0.123724-0.0205426-0.1117172-0.1600723c0.0119591-0.1149063-0.0159931-0.1846943-0.123724-0.3324313
			l-0.1357307-0.1846948l0.4509974-0.2134447c0.2474937-0.1189871,0.482935-0.254436,0.5188618-0.2954741
			c0.0399122-0.0451651,0.0758381-0.1724067,0.0878448-0.2996016l0.0159464-0.2216473l-0.311327-0.0287313
			c-0.2434616-0.0246229-0.4669428-0.0082078-0.9897909,0.0697742C9.4040604,6.3561482,9.3761549,6.3561482,9.2244778,6.2863736
			C9.0847607,6.224812,9.0488825,6.224812,8.8612795,6.2740626C8.7455292,6.302794,8.5658998,6.3192091,8.4501953,6.3068976
			c-0.1317434-0.0164199-0.2514668,0-0.3512478,0.0410423C7.9353108,6.4218135,7.5920644,6.684504,7.3086853,6.9594822
			C6.977417,7.2795792,6.6341701,7.9937353,6.6341701,8.3589973c0,0.1559916-0.0917988,0.3160172-0.3911419,0.6854057
			c-0.0079827,0.0123348-0.0957899-0.0697412-0.1875839-0.176487L5.8798294,8.6709337L5.7960134,8.9705343
			c-0.047895,0.1641531-0.1037722,0.3734703-0.131711,0.4638014c-0.0239472,0.0902834-0.047895,0.1723585-0.0558772,0.1846476
			C5.6004424,9.6271906,5.5405741,9.573864,5.472723,9.4958687c-0.1516676-0.1846952-0.1636415-0.1600714-0.2714,0.4268427
			c-0.4270635,2.327116,0.0838113,4.2314692,1.4208732,5.2657223c0.8900428,0.6895332,1.9796295,1.0219641,3.4763689,1.0670843
			c0.7224112,0.024622,0.7263975,0.024622,0.7263975,0.1190319c0,0.0984917-0.0199804,0.1026192-0.3991241,0.1641998
			c-0.7623234,0.1149063-1.6643629,0.6156178-2.5703521,1.4282665l-0.2235103,0.1969814l-0.3711853-0.3078098
			c-3.4085038-2.8483219-4.1708269-7.7775316-1.7840767-11.5000401c0.8221917-1.2764153,1.9437265-2.314786,3.2728014-3.0289185
			c0.9978113-0.5376549,2.187211-0.8988273,3.31672-1.0137432C12.5730906,2.2642362,13.7425575,2.2970667,14.2573862,2.3791521z
			 M14.5408058,4.1029286c0.2075357,0.0369391,0.5627613,0.1272321,0.7902298,0.2052093
			c0.4031105,0.1354394,0.9618835,0.4063187,0.9618835,0.4637766c0,0.0164204-0.0838108,0.1395435-0.183567,0.2749834
			C15.7900515,5.4614244,15.3989,6.09758,15.1554384,6.5859656c-0.1277094,0.258563-0.2354879,0.4720078-0.2394743,0.4802155
			c-0.0039864,0.0040808-0.123723-0.0369577-0.2674274-0.0902839c-0.44701-0.1724062-0.9539127-0.287313-1.6603289-0.3775969
			c-0.175643-0.0205426-0.2115221-0.0369577-0.1915894-0.0944109c0.0079727-0.0369105,0.1077776-0.3283277,0.2194948-0.6484575
			c0.1836166-0.5376549,0.3273201-1.1409755,0.3831778-1.6252713l0.0239658-0.1929026h0.3711729
			C13.9979782,4.0372581,14.3332243,4.06599,14.5408058,4.1029286z M17.9412899,5.9539328
			c0.0598927,0.0820856,0.1077785,0.1723785,0.1077785,0.2011051c0,0.0287313-0.0997581,0.205214-0.2235298,0.3940167
			c-0.3072929,0.4678812-0.6665039,1.2189474-0.8700523,1.8140702c-0.0239677,0.0697412-0.0478859,0.0574532-0.2235298-0.1190338
			l-0.1955757-0.1969833l0.0998039-0.2626901c0.2434616-0.6689906,1.005785-1.9864435,1.1454563-1.9823399
			C17.8095932,5.8061814,17.8774586,5.8718472,17.9412899,5.9539328z M10.9606457,6.4423556
			c0.0998049,0.036911,0.075839,0.1313224-0.0438986,0.1969829c-0.0638323,0.0287504-0.2674274,0.1026187-0.4589691,0.1641526
			c-0.187603,0.0574527-0.3512392,0.1272411-0.3592129,0.1559911c-0.0239658,0.0697412-0.1357307,0.0122881-0.2155552-0.110826
			c-0.0917845-0.1436567-0.0438986-0.2257328,0.1676702-0.2996016C10.3061008,6.4587708,10.8448954,6.3971906,10.9606457,6.4423556z
			 M9.1366806,6.6105886c0.1755962,0.0862036,1.0097704,0.915266,1.0097704,1.0014691
			c0,0.0492458-0.063879,0.077949-0.247448,0.1149068C9.7592859,7.7515869,9.5557375,7.8213754,9.4439735,7.8829088
			L9.2404242,7.9937353L8.9371185,7.8418708c-0.3392792-0.1641521-0.570734-0.3201437-0.7982588-0.5376687
			C8.0550432,7.222126,7.983201,7.1564651,7.9792099,7.1564651s0.0079827,0.1806145,0.0279388,0.4063468
			C8.0550432,8.1250572,8.0231133,8.2933359,7.807591,8.5929375c-0.1596494,0.2257328-0.2075443,0.328352-0.1556582,0.328352
			c0.0558777,0,0.3272772-0.1641531,0.387146-0.2298603c0.1197376-0.14361,0.2354736-0.4145079,0.2594404-0.6238251
			l0.0239191-0.2051907l0.2155552,0.14361c0.1197376,0.0779953,0.2754002,0.1682796,0.3472052,0.1970291
			c0.1157513,0.0492458,0.127758,0.0738688,0.1117649,0.1805677C8.9770298,8.5354843,9.016943,8.5396118,9.3482027,8.4492807
			c0.1197367-0.0328302,0.2993193-0.061533,0.3991241-0.061533c0.2194948,0,0.4988813,0.1518641,0.4988813,0.2667704
			c0,0.0738688-0.0359259,0.0862036-0.2833738,0.106699c-0.2314539,0.0164156-0.359211,0.0574532-0.6785107,0.2175255
			c-0.2155085,0.106699-0.4948959,0.2544832-0.6146326,0.3324308C8.4741144,9.4302082,8.4262295,9.442543,8.2266674,9.4261274
			C7.9353108,9.397378,7.8514948,9.4466228,7.7716703,9.7011061C7.7078104,9.8980885,7.7038188,9.902216,7.58009,9.877593
			c-0.3552203-0.069788-1.1055698-0.4760885-1.1055698-0.5992498c0-0.0943642,0.0838161-0.3160162,0.1237288-0.3160162
			c0.015965,0,0.0598683,0.0492458,0.0917983,0.1108265l0.0558777,0.1149063l0.0239477-0.1026182
			C6.861671,8.6298952,6.8975921,8.490366,6.9973731,8.2112608c0.2913561-0.8290629,0.8900433-1.5431719,1.301146-1.5472994
			c0.0838108-0.0040803,0.2514343-0.0287499,0.371172-0.0615807C8.9610376,6.5285125,8.9730444,6.5285125,9.1366806,6.6105886z
			 M13.3593788,6.926652c0.5747204,0.106699,0.9618855,0.2544355,1.8040333,0.6854057
			c0.8262014,0.4268427,0.8541069,0.4965839,0.0638781,0.1764402c-0.2434607-0.0984912-0.4630022-0.1805677-0.482935-0.1805677
			c-0.0519199,0-0.1437035,0.2708983-0.1117649,0.3242245c0.01196,0.0205426,0.1596508,0.0492454,0.3272724,0.065661
			c0.3552265,0.0328774,0.882061,0.1724067,1.3330564,0.3529744c0.3512402,0.1354485,0.3991261,0.2011099,0.0958195,0.1231136
			c-0.7982492-0.2092705-1.4767609-0.2954741-3.069272-0.3898849c-1.3610096-0.0862031-1.7481747-0.1272411-2.0355349-0.2257328
			l-0.2394743-0.0820761l0.5707808,0.0082078l0.5747204,0.0123348l0.1356831-0.2791052
			c0.1357307-0.2791061,0.1357307-0.2791061,0.3073406-0.2791061c0.0917845,0,0.482935,0.0369577,0.8661137,0.0820761
			c0.383132,0.0410852,0.7024307,0.0739155,0.7104044,0.0657077c0.0199785-0.0205421-0.6106462-0.1929021-0.9498796-0.258563
			c-0.163682-0.0287499-0.6266384-0.0657077-1.0257635-0.0821228c-0.5867262-0.0204959-0.7303839-0.036911-0.7303839-0.0820761
			c0-0.0287032,0.0399132-0.0738688,0.0917845-0.0944114C11.7229691,6.8076181,12.9323025,6.8527365,13.3593788,6.926652z
			 M11.1442623,8.3056717c0.2315016,0.0697412,0.4909086,0.143609,0.5826931,0.1641521
			c0.1317434,0.0328302,1.4248886,0.2421474,1.5246458,0.2462749c0.0159931,0.0040798-0.0438986,0.0410376-0.1316967,0.0902843
			c-0.2514343,0.131321-0.4589691,0.3693886-0.4589691,0.5253334c0,0.0902843,0.1716089,0.0328302,0.2913456-0.0984907
			c0.3392324-0.373517,0.5986872-0.2873135,1.06563,0.3447199c0.2435074,0.328351,0.2953806,0.3735151,0.3313055,0.2749777
			c0.0438995-0.1231146-0.2793865-0.7961855-0.4510431-0.9480495c-0.1596031-0.1354494-0.1396704-0.1354494,0.5867271,0.0204954
			c0.7384043,0.1559916,1.0736494,0.2544832,1.428875,0.4268427c0.5547876,0.2667713,0.7782698,0.5089655,0.7782698,0.8454781
			c0,0.2257318-0.0239201,0.2421484-0.3552265,0.2421484c-0.1915417,0-0.2554207,0.0205412-0.3751583,0.114953
			c-0.1995611,0.1559439-0.2594538,0.2790585-0.1796293,0.365262c0.0838585,0.0820761,0.2155561,0.0492458,0.375205-0.0902834
			c0.1157513-0.1026192,0.2194958-0.1231613,0.4948959-0.1067457c0.1995621,0.0164146,0.3472519,0.1724062,0.4031105,0.43505
			c0.0399132,0.1846943,0.0359268,0.2339401-0.0239182,0.3653088c-0.1317444,0.2790585-0.5508022,0.5089188-0.9978123,0.541749
			c-0.42309,0.0328302-0.4590158,0.0451193-0.4590158,0.1600723c0,0.0820761,0.0199795,0.1025715,0.0998039,0.1025715
			c0.2075357,0,0.1596508,0.114953-0.1955748,0.4555931c-0.7783165,0.7510672-1.3969364,1.7155781-1.7122488,2.6718359
			c-0.0159454,0.0410376-0.0638313,0.0738678-0.111764,0.0738678c-0.0997581,0-0.4789495-0.2011099-0.6545458-0.3447199
			l-0.1197376-0.0985384l0.0838118-0.1189861c0.1077776-0.1477842,0.1796293-0.1600723,0.4630032-0.069788
			c0.2274685,0.069788,0.2354879,0.069788,0.2913475-0.0082073c0.0319395-0.0410395,0.0598917-0.0902843,0.0598917-0.1026192
			c0-0.0122881-0.1237707-0.0656614-0.2754011-0.1190338c-0.2674274-0.0943642-0.2754002-0.1025724-0.1915884-0.1600246
			c0.1277103-0.0862036,0.3871641-0.3406868,0.4310637-0.4268436c0.0318918-0.0533733-0.0399122-0.0328302-0.2714148,0.0861568
			c-0.311326,0.1600723-0.3153124,0.1600723-0.929945,0.1888227c-0.6545925,0.0328302-0.8461351,0.0082073-1.2372856-0.1477852
			c-0.2793875-0.1107779-0.6705389-0.3939648-0.8581409-0.6156168l-0.1436567-0.1764879l0.2714138-0.0328302
			c0.3472052-0.0369101,0.7143908-0.1354485,0.8660669-0.2257328c0.1157513-0.0697403,0.1197376-0.0697403,0.4390364,0.0984917
			c0.4829369,0.258563,0.7263985,0.3201437,1.1734076,0.29144c0.2953806-0.0164614,0.4191036-0.0451651,0.6186666-0.1436558
			c0.558773-0.2708988,0.9858046-0.7223635,0.9858046-1.0425072c0-0.1846485-0.0079737-0.1846485-0.3592119-0.0697422
			c-0.6026745,0.1969833-1.0417109,0.0574532-1.564559-0.4966307c-0.3352461-0.3529739-0.4988823-0.4637537-0.6625185-0.4432573
			c-0.0838108,0.0082073-0.111764,0.0369577-0.1197376,0.1272411c-0.0119591,0.0944109,0.0079737,0.1231146,0.1197376,0.1682796
			c0.0718517,0.0328302,0.2275152,0.1805677,0.3552256,0.3406391c0.3272734,0.410428,0.9498787,0.7510672,1.3729687,0.7510672
			c0.0997581,0,0.1795826,0.0164146,0.1795826,0.0369577c0,0.1436558-0.5986395,0.4062996-1.0057831,0.4432573
			c-0.3551788,0.036911-0.8221684-0.1190338-1.3011179-0.4268427l-0.2115221-0.1395292l-0.1676693,0.1477375
			c-0.2075348,0.1846943-0.4031115,0.2421474-0.8301411,0.2462273c-0.311327,0-0.3631992-0.0122871-0.6146803-0.143609
			c-0.3152657-0.1641989-0.6505585-0.4802151-0.7742825-0.7264442c-0.0758381-0.1559916-0.1077776-0.2996483-0.0678654-0.2996483
			c0.0080204,0,0.1556635,0.0697889,0.3273201,0.1518641c0.4270296,0.2093182,0.6785116,0.2134457,1.065629,0.0123348
			c0.2833738-0.1436558,0.5188618-0.3735161,0.498929-0.4802151c-0.0279531-0.1395292-0.1357307-0.1559448-0.2714138-0.036911
			c-0.2075357,0.1764879-0.43505,0.2790585-0.682498,0.2996016l-0.2275152,0.024622l-0.0279531-0.4802151
			c-0.0159464-0.258563-0.0159464-0.5992022-0.0039864-0.7510672c0.0758381-0.7592745,0.3512392-1.5062599,0.5986862-1.6293745
			c0.2394753-0.1149063,0.375206-0.0779963,0.746377,0.2134447c0.1995621,0.1559448,0.2354879,0.1231136,0.1356831-0.1354485
			c-0.0758381-0.2093182-0.3312588-0.4638004-0.4988813-0.5007114c-0.0798244-0.0164156-0.1197376-0.0492458-0.1197376-0.0985384
			c0-0.106699,0.0838118-0.283186,0.135684-0.283186C10.705225,8.1825104,10.9127607,8.2399635,11.1442623,8.3056717z
			 M15.7501383,8.7612171c1.2771997,0.1723595,2.0993662,0.6813259,2.0993662,1.3092308
			c0,0.2750263-0.1955757,0.586915-0.4589691,0.726491c-0.0958176,0.0533266-0.1197376,0.0533266-0.1357307,0.0082073
			c-0.0239182-0.0739145-0.2075348-0.2626896-0.2793865-0.2873125c-0.0438995-0.0164146-0.0359268-0.0533724,0.0319386-0.1929026
			c0.2235298-0.4514656,0.0079746-0.800312-0.6944561-1.1368713c-0.3512402-0.1682796-0.6864853-0.2791061-1.2173538-0.4104271
			l-0.4190578-0.1026182l0.3791456,0.0205421C15.263217,8.7078447,15.5744963,8.7365942,15.7501383,8.7612171z M9.9069767,8.9951572
			c0,0.0205431-0.0718527,0.2257328-0.1556635,0.4638014c-0.2115221,0.5704517-0.2833738,1.0260448-0.2833738,1.7729845v0.6074562
			l-0.0877981-0.0287495c-0.1716089-0.0533266-0.375205-0.176487-0.5069017-0.2996016l-0.1277103-0.1231136l-0.0359259,0.1026182
			c-0.0518723,0.1395292-0.0478859,0.2051907,0.0199795,0.4391308c0.1436567,0.4842958,0.4031105,0.870101,0.7942152,1.1697016
			l0.2434616,0.1846952l-0.147644-0.0246229c-0.2354879-0.0369577-0.4270763-0.151865-0.6984911-0.4145079
			c-0.4669418-0.4473848-0.6226053-0.8372707-0.6265917-1.5555067c0-0.3447666-0.0120068-0.4802151-0.0478859-0.4802151
			c-0.1197605,0-0.0798483-0.3940134,0.0678186-0.6484489c0.0399122-0.0738678,0.0758381-0.1436567,0.0758381-0.1518641
			S8.2865591,9.9883728,8.1628075,9.9801645C7.9512763,9.9678774,7.9313197,9.9596701,7.9193463,9.8652582
			C7.9113636,9.8078051,7.9353108,9.725729,7.9672365,9.6805639c0.0478945-0.069788,0.0957899-0.082077,0.3432417-0.069788
			c0.2674274,0.0082073,0.311327-0.0040817,0.6505594-0.1682329c0.2035484-0.0985384,0.4749622-0.2462759,0.6066589-0.328352
			C9.8031855,8.9664545,9.9069767,8.9294968,9.9069767,8.9951572z M6.4066691,9.4876614
			c0.4869318,0.398139,1.0217538,0.6238718,1.4687734,0.6238718c0.1277151,0,0.2354784,0.0164156,0.2354784,0.0328302
			c0,0.0164156-0.0359211,0.1477375-0.0838156,0.2872677l-0.0838118,0.2544823h-0.231492
			c-0.2753959,0-0.6745205-0.1190338-1.0576749-0.3160162C6.3308358,10.2018166,5.9756198,9.9760847,5.851891,9.8570499
			L5.7640834,9.7790546l0.0798254-0.3160162C5.9556632,8.9951572,5.947681,9.0074921,6.0594358,9.1552296
			C6.1113219,9.2250175,6.2669759,9.3768349,6.4066691,9.4876614z M21.5453701,10.7189436
			c-0.371172,0.1723595-0.4070988,0.0328312-0.0718536-0.283186l0.2275143-0.2134447l0.0199814,0.2011089l0.0199337,0.2011108
			L21.5453701,10.7189436z M20.9107571,10.9528837c0.0080185,0.0246229-0.123724,0.0656614-0.2913475,0.0944109
			c-0.494894,0.0779495-0.8141937,0.3283052-0.8141937,0.6320333c0,0.1518641,0.1476898,0.3406391,0.2234821,0.2873135
			c0.0239639-0.0164146,0.0838108-0.1067457,0.1317425-0.2011099c0.1676235-0.3447666,0.3911057-0.5417957,0.6745243-0.6074572
			c0.1196899-0.0246229,0.1316967-0.0164156,0.1915436,0.1272421c0.0559063,0.1395283,0.0559063,0.1559439-0.0039864,0.1888208
			c-0.1436577,0.0861568-0.3472061,0.2996016-0.4230442,0.4473391c-0.0998039,0.2051897-0.0958176,0.4309225,0.0159454,0.6525745
			c0.1277122,0.2626438,0.1716099,0.2503557,0.1955757-0.0533724c0.0119591-0.1395302,0.0518723-0.320097,0.0917835-0.3980932
			c0.07584-0.1559439,0.2554684-0.3693895,0.3073406-0.3693895c0.0678673,0,0.0319386,0.4063473-0.0518723,0.5540848
			c-0.0758362,0.1313219-0.0798244,0.1641521-0.0359249,0.3406391c0.0478859,0.2011099,0.1596489,0.4186354,0.2873611,0.5663729
			c0.0758362,0.0903301,0.0758362,0.0944109-0.0798264,0.574626c-0.0877991,0.2708511-0.2434597,0.6771984-0.3472519,0.9029312
			c-0.1795826,0.402173-0.1915894,0.4185886-0.3312588,0.4432116c-0.2793865,0.0451651-1.2173061,0.0246687-1.6364117-0.0410385
			c-0.3432178-0.0492458-0.4270763-0.0533266-0.4509945-0.0082083c-0.0638809,0.1026192-0.0399132,0.5787067,0.0399113,0.7305717
			c0.0997581,0.1929026,0.4150715,0.3570547,0.8141956,0.4186354l0.3073387,0.0492458v0.213398
			c0,0.1477833-0.0239658,0.2421474-0.0758381,0.3078556l-0.0718517,0.0943642l-0.0279522-0.0902843
			c-0.0358791-0.1108265-0.0478859-0.1108265-0.2434616-0.0082073c-0.0877972,0.045166-0.2075367,0.0820751-0.2673798,0.0820751
			c-0.1237259,0-0.1357327,0.0328312-0.0598927,0.1395779c0.0399132,0.0574532,0.0958176,0.0697403,0.2394753,0.061533
			c0.171608-0.0164146,0.1796284-0.0122871,0.1157494,0.0492458c-0.0917854,0.0903301-0.4270763,0.2011089-0.6146317,0.2011089
			c-0.2754002,0-0.2394753,0.2298603,0.0399132,0.2544842l0.1476421,0.0164146l-0.1077309,0.0492458
			c-0.3512383,0.1559448-1.2013588,0.1354485-1.6483688-0.0369568c-0.9539127-0.365263-1.6803102-1.5431728-1.6044722-2.5979681
			c0.071805-0.9603844,0.570735-1.8756037,1.4088964-2.5692167c0.7822552-0.6443682,1.9557095-1.1738291,3.2488537-1.457016
			C20.6753159,10.8913031,20.886837,10.8790159,20.9107571,10.9528837z M21.7529049,11.0842056
			c-0.0119591,0.1395302-0.0239201,0.1559916-0.1516304,0.1806145c-0.1516762,0.0328302-0.1995621-0.0041275-0.1995621-0.1518641
			c0-0.0615807,0.0359249-0.0984917,0.1316967-0.1313686C21.7529049,10.9118462,21.7649097,10.9200535,21.7529049,11.0842056z
			 M5.5006614,11.1293716c0.0199566,0.0164146,0.0598688,0.2872658,0.0878077,0.6033297
			c0.0279384,0.3693428,0.0798249,0.7059011,0.147676,0.9439688c0.5428042,1.9576797,2.2829771,3.1397161,4.6218281,3.1397161
			h0.4310637l-0.01196,0.1108255L10.7650709,16.04212l-0.5587749-0.0082092
			c-2.2590113-0.024622-3.9433117-1.0588751-4.585897-2.8196182c-0.1516676-0.410428-0.2674136-1.0219183-0.2913609-1.5555067
			c-0.0199566-0.3939657-0.0119739-0.4965839,0.03193-0.5253344C5.4288192,11.0883331,5.4447842,11.0883331,5.5006614,11.1293716z
			 M16.3448391,12.6274242c-0.5508013,0.5909948-0.8860941,1.2025328-1.0736494,1.9494724
			c-0.2634411,1.0425072-0.0319386,2.0357227,0.630579,2.7293358l0.2674284,0.2790585l-0.3153143-0.0287018l-0.3112793-0.0246239
			l-0.1676693,0.1559448l-0.1636362,0.1600723l-0.7663097-0.3898869c-0.4230442-0.2134438-0.9379187-0.4514656-1.1454544-0.5294609
			c-0.2075825-0.0779972-0.4270773-0.1888218-0.4909554-0.2462749c-0.2873611-0.2708511-0.5906677-0.9193468-0.6505594-1.3913078
			l-0.0279531-0.2175245l0.375205,0.2544355c0.5427818,0.3653088,0.9698591,0.5704994,1.189353,0.5704994l0.1836166-0.0040808
			l0.111764-0.258563c0.1915903-0.435051,0.6864843-1.2641125,1.0736494-1.7976542
			c0.4190569-0.5704994,1.2851715-1.4939728,1.4328156-1.5226765c0.051918-0.0082073,0.111763-0.0205421,0.1317425-0.0246229
			C16.6481457,12.2908649,16.5204353,12.4386024,16.3448391,12.6274242z M11.3198586,14.7862139
			c-0.0798254,0.1846943-0.1396704,0.3365583-0.1316967,0.3447657c0.3033056,0.1887751,0.7104502,0.4966316,0.6944571,0.5212545
			c-0.01196,0.0204954-0.1556635,0.1149063-0.3192997,0.2093172c-0.1636372,0.0984917-0.2993202,0.188776-0.2993202,0.2011108
			c0,0.0164146,0.0359259,0.061533,0.0838118,0.106699c0.0478859,0.0410366,0.1077785,0.1272411,0.1396704,0.1887741
			c0.0559053,0.1108265,0.0559053,0.1149063-0.0558596,0.1149063c-0.1157503,0-0.2754002-0.1395283-0.3631973-0.320097
			c-0.0438995-0.0820751-0.0279531-0.1149521,0.1636362-0.3201427l0.2115211-0.2298136l-0.1197367-0.0862026
			c-0.2354889-0.1764879-0.3791456-0.3242254-0.3791456-0.3940134c0-0.1477365,0.4789505-0.8085203,0.51089-0.7059479
			C11.4635611,14.4373665,11.399682,14.6056461,11.3198586,14.7862139z M19.893013,15.4223747
			c0.3911514,0,0.7104511,0.0123339,0.7104511,0.0205412c0,0.0287037-0.5188618,0.8208094-0.5547886,0.8413515
			c-0.0199776,0.0123348-0.0558567-0.0287495-0.0838108-0.0944118c-0.0559063-0.1395283-0.1716099-0.1929016-0.4909077-0.2257318
			c-0.2474957-0.0287037-0.4829369-0.1107798-0.5907154-0.213398c-0.0718517-0.0656614-0.1357288-0.3201437-0.0998039-0.3817244
			c0.0120068-0.0204964,0.1077785-0.0164156,0.2115688,0.0041265C19.1027374,15.3977509,19.5058479,15.418293,19.893013,15.4223747z
			 M11.8666725,16.842432c0.7742825,0.0902843,1.5246458,0.3611813,2.6222143,0.9480953l0.6945047,0.3693905L15.3989,17.9916363
			c0.1197376-0.0902824,0.2434616-0.1764851,0.2754002-0.1888199c0.0319395-0.012289,0.199563,0.0574532,0.3671846,0.1600723
			c0.5348091,0.3160172,1.0576572,0.5704994,1.1175499,0.541748c0.047884-0.0164165,0.0558586-0.061533,0.0359249-0.2093163
			l-0.0239658-0.188776l0.1316967,0.024622c0.0678654,0.0164146,0.2874069,0.0369587,0.482935,0.0533733l0.3552265,0.0246239
			l-0.3791447,0.2503548c-0.4549828,0.2996025-1.0656776,0.6197453-1.5845375,0.824934
			c-0.3631992,0.1436577-0.3791456,0.1477394-0.44701,0.0738697c-0.0399132-0.0410385-0.1077785-0.176487-0.1516771-0.2996025
			c-0.0678186-0.1969814-0.0798254-0.2093163-0.0798254-0.0984898c-0.0039854,0.0697403,0.0239668,0.2175255,0.0559053,0.3283501
			c0.0319395,0.1107807,0.0598469,0.2051907,0.0598469,0.2092724c0,0.0246696-1.1015568,0.2708969-1.4567814,0.3242702
			c-0.6066599,0.0943642-1.8439455,0.0943642-2.4705849,0c-0.9339323-0.139576-1.8958178-0.4391766-2.7179861-0.8496056
			c-0.4270773-0.2133961-1.0576935-0.5992012-1.0576935-0.6443672c0-0.036911,0.6705294-0.5253334,0.9858418-0.7223167
			c0.6425858-0.3940125,1.3969355-0.6813259,1.9876022-0.7592735C11.2799454,16.7973137,11.4715347,16.7973137,11.8666725,16.842432
			z"/>
		<path fill="#333333" d="M8.7267094,6.940001C8.6947384,7.0262423,8.9944,7.3384852,9.2540627,7.4945836
			c0.1118746,0.0657721,0.2117767,0.1191506,0.2317295,0.1191506c0.0159616,0-0.0998564-0.1643133-0.2596626-0.3656216
			C8.9344492,6.8783598,8.7866602,6.7879872,8.7267094,6.940001z"/>
		<path fill="#333333" d="M15.6462908,9.680192c-0.1518259,0.0575094-0.243701,0.1150188-0.2517281,0.1643124
			c-0.0199528,0.1109362,0.0999022,0.127368,0.3555746,0.0492954c0.275671-0.0862417,0.3515854-0.1560984,0.275671-0.2464705
			C15.9619141,9.5692558,15.9379244,9.5733871,15.6462908,9.680192z"/>
		<path fill="#333333" d="M10.5964127,9.7869949c-0.0638943,0.1150665-0.0559139,0.1890087,0.0279799,0.2629499
			c0.0998564,0.0903721,0.17976,0.0862875,0.2676907-0.0123472c0.0599041-0.0657253,0.0678854-0.1068039,0.0359144-0.1971769
			C10.880065,9.6966228,10.6603537,9.6596756,10.5964127,9.7869949z"/>
		<path fill="#333333" d="M13.0094776,9.8568516c-0.0759134,0.0821581-0.0638943,0.2588177,0.0239897,0.316328
			c0.0958652,0.0616417,0.2637005,0.0040846,0.2876434-0.1027203c0.031971-0.1150188-0.0679321-0.2793331-0.1717787-0.2793331
			C13.1093807,9.7911263,13.0454388,9.8198576,13.0094776,9.8568516z"/>
		<path fill="#333333" d="M15.9459057,10.0294752c-0.1078844,0.0451632-0.1837969,0.1027193-0.1917782,0.1478834
			c-0.0279799,0.135582,0.0519228,0.16436,0.2596626,0.0862875c0.2357197-0.090373,0.3036518-0.1478825,0.2676907-0.2383022
			C16.2495098,9.9391031,16.1775875,9.9391031,15.9459057,10.0294752z"/>
		<path fill="#333333" d="M11.2236681,10.5922737c-0.1358166,0.0780258-0.2876425,0.4067001-0.2836523,0.6080084
			c0.0160093,0.3204584,0.1997585,0.4642563,0.5633144,0.4272623c0.2357197-0.0246477,0.3275957-0.0821571,0.3275957-0.1971769
			c0-0.0698566-0.0319242-0.0780725-0.2516823-0.0780725c-0.1437988,0-0.2716818-0.0205631-0.2996149-0.0492935
			c-0.095912-0.098588-0.0239897-0.3943996,0.1278362-0.5217676c0.0359612-0.0328617,0.0638943-0.098587,0.0638943-0.1520128
			C11.4713593,10.5142012,11.3874655,10.5019007,11.2236681,10.5922737z"/>
		<path fill="#333333" d="M5.9181032,9.6227283C5.8661709,9.7254477,5.902123,9.8199053,6.0020022,9.8527679
			c0.1518164,0.0492935,0.259686-0.1437979,0.1478209-0.2588177C6.0779104,9.520009,5.9660454,9.5364408,5.9181032,9.6227283z"/>
		<path fill="#333333" d="M17.2243614,13.324295c-0.031971,0.0205154-0.0799046,0.098588-0.1038475,0.1725302
			c-0.0239906,0.0739403-0.0719223,0.1396666-0.1078835,0.1478825c-0.0759125,0.0164776-0.0878849-0.0780258-0.0279808-0.2012615
			c0.031971-0.0616417,0.0279808-0.0862885-0.0159607-0.1027193c-0.091877-0.036994-0.2237492,0.061594-0.2476921,0.1807451
			c-0.0160084,0.0903721-0.0799046,0.1437979-0.2836533,0.2506018c-0.3276405,0.1766605-0.4594669,0.3656683-0.4594669,0.6491337
			c0.0039902,0.3574057,0.1198559,0.558713,0.3635559,0.6285706c0.2277393,0.0657244,0.2437,0.0862408,0.2676907,0.423131
			l0.0279789,0.3163271h-0.119854c-0.1238461,0-0.2956715-0.1109343-0.4274979-0.2793331
			c-0.0439415-0.0575562-0.0878849-0.0822039-0.1118736-0.0575562c-0.0479336,0.0492935,0.0279789,0.525897,0.1078835,0.6491337
			c0.0638943,0.1027184,0.275671,0.1807442,0.4913921,0.1807442c0.0999031,0,0.1398544,0.0205631,0.1637974,0.0985889
			c0.063942,0.1725769,0.2836514,0.1766605,0.2516804,0.0041313c-0.023941-0.135582,0.0559616-0.1314507,0.1798077,0.0040836
			c0.1118736,0.1232834,0.2357197,0.1150665,0.2237015-0.0164318c-0.0079823-0.0780239,0.008028-0.0903721,0.1198559-0.0903721
			c0.1558151,0,0.2716808-0.1109352,0.3675919-0.3368902c0.0918751-0.23417,0.0759125-0.4847727-0.0519695-0.7353745
			c-0.0878849-0.1766605-0.1517792-0.2382545-0.3595657-0.3574057c-0.267643-0.1520138-0.2836533-0.1807451-0.2237015-0.550498
			l0.0239429-0.1520138l0.1957684,0.1027193c0.1078835,0.0533791,0.2197571,0.1355829,0.2437,0.1807451
			c0.0879326,0.1396666,0.1118736,0.090373,0.1078835-0.2177391c-0.0079803-0.4642096-0.0239887-0.4929876-0.2716808-0.5340672
			c-0.2037487-0.036993-0.211729-0.0410786-0.1877403-0.1437979c0.0479336-0.2013083,0.0439434-0.2300386-0.0160084-0.2423859
			C17.3122444,13.2873011,17.2563305,13.2996483,17.2243614,13.324295z M16.9966679,14.3801289
			c-0.0279789,0.2752495-0.0279789,0.2752495-0.1118736,0.2464705c-0.1158638-0.0492935-0.063942-0.4806414,0.0599041-0.4806414
			C17.0086403,14.1459579,17.0166206,14.1746893,16.9966679,14.3801289z M16.5731621,14.4417229
			c-0.0119724,0.0821571-0.0159626,0.0862875-0.0439434,0.0205622c-0.0199986-0.036994-0.0199986-0.1191502,0-0.1848764
			c0.0279808-0.1027193,0.031971-0.1068039,0.0439434-0.0205622C16.5851326,14.3102722,16.5851326,14.3924284,16.5731621,14.4417229
			z M17.0046501,15.3044634c0.0079803,0.028779,0.0199509,0.1520147,0.0319691,0.2670336
			c0.0159626,0.2054396,0.0119724,0.2177391-0.0759125,0.2177391c-0.0838947,0-0.095911-0.0205154-0.095911-0.1396666
			c0-0.0739412-0.0119724-0.1972227-0.0239429-0.2670336c-0.0239906-0.1109352-0.0160084-0.1273661,0.0599041-0.1273661
			C16.9486885,15.2551699,16.99263,15.2798166,17.0046501,15.3044634z M17.4081573,15.4811249
			c0.0559139,0.0862885,0.0599041,0.1273661,0.0239429,0.2053919c-0.0799046,0.1807919-0.1677876,0.127367-0.1677876-0.1026726
			C17.2643127,15.3578892,17.3082542,15.3250265,17.4081573,15.4811249z"/>
		<path fill="#333333" d="M20.5603046,14.6676311c-0.0119705,0.0862885-0.0519218,0.1971769-0.0799026,0.2423859
			c-0.063942,0.098588-0.0439415,0.1396666,0.063942,0.1396666c0.1517792,0,0.2716331-0.4559946,0.1318264-0.5094194
			c-0.0359612-0.0123005-0.0679321-0.0246477-0.0759125-0.0246477
			C20.5962658,14.5156164,20.5762672,14.585474,20.5603046,14.6676311z"/>
		<path fill="#333333" d="M18.6067085,16.598505c-0.1318264,0.0575104-0.3315849,0.1109352-0.4514389,0.1232357
			c-0.187788,0.0205631-0.2117786,0.0328636-0.2117786,0.1191521c0,0.0657253,0.0279808,0.098587,0.1118736,0.1150188
			c0.1438465,0.0328617,0.487402-0.0369473,0.6871624-0.1396675c0.1318722-0.0698566,0.1598072-0.1027203,0.1598072-0.2053909
			C18.9023342,16.4670544,18.9103603,16.4670544,18.6067085,16.598505z"/>
		<path fill="#333333" d="M17.180418,17.08741c-0.1158638,0.1437969,0.1478367,0.2958126,0.5313435,0.2998943
			c0.2557201,0.0041313,0.3915367-0.0533791,0.3915367-0.1684437c0-0.090374-0.0119705-0.0944557-0.3475933-0.0944557
			c-0.1957226,0-0.3874989-0.0246487-0.4354324-0.0534267C17.2483501,17.0340309,17.2243614,17.0340309,17.180418,17.08741z"/>
		<path fill="#333333" d="M14.1080799,16.0932636c-0.1118279,0.1437988,0.0439882,0.3820534,0.1917772,0.2875957
			c0.1398544-0.0904198,0.0878839-0.3451042-0.0719233-0.3451042
			C14.1879826,16.0357552,14.1360598,16.0645332,14.1080799,16.0932636z"/>
		<path fill="#333333" d="M14.5955744,16.6190681c-0.0678844,0.0698566-0.0599041,0.1807919,0.0160093,0.2547321
			c0.0878839,0.0945053,0.1637974,0.0821571,0.2357197-0.0328617c0.0519238-0.0780716,0.0559139-0.1191502,0.0199528-0.1848755
			C14.8193235,16.5615578,14.6714878,16.5410423,14.5955744,16.6190681z"/>
		<path fill="#333333" d="M15.0670614,17.0791931c-0.1118736,0.1437988,0.0439425,0.3820534,0.1917305,0.2875977
			c0.1398544-0.0904198,0.0879316-0.345108-0.0718756-0.345108C15.1469641,17.0216827,15.0949945,17.050415,15.0670614,17.0791931z"
			/>
	</g>
</g>
<path fill="#FFFFFF" d="M29.5289249,5.4268541h3.297533c0.580513,0,1.1039314,0.0523415,1.5702515,0.1570258
	c0.4663162,0.1046834,0.8660164,0.2759833,1.1991005,0.5139003c0.3330841,0.2379174,0.5900345,0.5424509,0.7708511,0.9136014
	s0.271225,0.8184347,0.271225,1.3418517c0,0.5614843-0.1046829,1.0325594-0.3140488,1.413228
	c-0.2093697,0.3806667-0.4948692,0.6899586-0.8565025,0.9278765c-0.3521156,0.2284002-0.7660942,0.3949413-1.2419281,0.4996252
	c-0.4758301,0.1046829-0.980217,0.1570244-1.5131531,0.1570244h-1.3846741v4.1825819h-1.7986546V5.4268541z M32.5837822,9.8378363
	c0.2950134,0,0.5757561-0.0190334,0.8422241-0.0571003c0.266468-0.0475826,0.5043831-0.1237173,0.7137489-0.2284002
	c0.2093697-0.1142015,0.3759117-0.266468,0.49963-0.4568014s0.1855736-0.437767,0.1855736-0.742301
	c0-0.2950163-0.0618553-0.5329337-0.1855736-0.7137513c-0.1237183-0.1903334-0.2902603-0.3378415-0.49963-0.4425254
	c-0.1998482-0.1046834-0.4330063-0.1712999-0.6994743-0.1998501c-0.2569504-0.0380669-0.5234184-0.0571003-0.7994003-0.0571003
	h-1.3133011v2.89783H32.5837822z M40.5604248,5.4268541h1.5559769l4.3538818,10.1067152h-2.0555992l-0.9421577-2.3125534h-4.382431
	l-0.9136009,2.3125534h-2.0127754L40.5604248,5.4268541z M42.844429,11.6793127l-1.5559769-4.1112051l-1.5845299,4.1112051
	H42.844429z M49.0609589,11.1511383l-3.7971535-5.7242842h2.1983528l2.5409584,4.2539568l2.5695-4.2539568h2.0841522
	l-3.7971573,5.7242842v4.382431h-1.7986526V11.1511383z M55.4999466,5.4268541h3.2975273
	c0.5805206,0,1.1039429,0.0523415,1.5702553,0.1570258c0.4663162,0.1046834,0.8660202,0.2759833,1.1991043,0.5139003
	c0.3330841,0.2379174,0.5900307,0.5424509,0.7708511,0.9136014c0.1808128,0.3711505,0.2712212,0.8184347,0.2712212,1.3418517
	c0,0.5614843-0.1046791,1.0325594-0.3140488,1.413228c-0.2093658,0.3806667-0.4948654,0.6899586-0.8565025,0.9278765
	c-0.3521156,0.2284002-0.7660866,0.3949413-1.2419281,0.4996252c-0.4758301,0.1046829-0.980217,0.1570244-1.5131493,0.1570244
	h-1.3846779v4.1825819h-1.7986526V5.4268541z M58.5548019,9.8378363c0.2950172,0,0.5757637-0.0190334,0.8422279-0.0571003
	c0.2664642-0.0475826,0.5043869-0.1237173,0.7137527-0.2284002c0.2093658-0.1142015,0.3759079-0.266468,0.4996223-0.4568014
	c0.1237183-0.1903334,0.1855774-0.437767,0.1855774-0.742301c0-0.2950163-0.0618591-0.5329337-0.1855774-0.7137513
	c-0.1237144-0.1903334-0.2902565-0.3378415-0.4996223-0.4425254c-0.1998558-0.1046834-0.4330139-0.1712999-0.6994781-0.1998501
	c-0.2569504-0.0380669-0.5234146-0.0571003-0.7994041-0.0571003h-1.3133011v2.89783H58.5548019z M66.5313644,5.4268541h1.5559845
	l4.3538742,10.1067152h-2.055603l-0.9421463-2.3125534h-4.3823547l-0.9136047,2.3125534h-2.0127754L66.5313644,5.4268541z
	 M68.8153687,11.6793127l-1.5559692-4.1112051l-1.5844498,4.1112051H68.8153687z M73.4412689,5.4268541h1.7986526v8.5079117
	h4.2967834v1.5988035h-6.0954361V5.4268541z M81.9468002,11.1511383l-3.7971573-5.7242842h2.1983566l2.5409546,4.2539568
	l2.5695038-4.2539568h2.0841522l-3.7971573,5.7242842v4.382431h-1.7986526V11.1511383z M95.2757111,7.7965083
	c-0.2664719-0.3616343-0.6138229-0.623343-1.0420837-0.7851267c-0.4282455-0.1712999-0.8469772-0.2569499-1.2562027-0.2569499
	c-0.5234146,0-0.9992447,0.0951667-1.4275055,0.2855c-0.4282455,0.1903334-0.7993927,0.4520421-1.1134415,0.7851257
	c-0.3045349,0.3330836-0.5424576,0.723268-0.7137604,1.1705527c-0.1617813,0.4472828-0.2426758,0.9326334-0.2426758,1.4560509
	c0,0.5519686,0.0808945,1.0563517,0.2426758,1.5131531c0.1617966,0.4568005,0.3901901,0.8517418,0.6852112,1.1848259
	c0.3045273,0.3235683,0.6661682,0.5757589,1.0848999,0.7565765s0.8898087,0.2712259,1.4132233,0.2712259
	c0.5424576,0,1.0230408-0.1046829,1.4417725-0.3140516c0.4187393-0.2188826,0.7565842-0.504384,1.0135269-0.8565006
	l1.4417877,1.013526c-0.4472809,0.5614843-0.9944916,0.9992514-1.6416321,1.313302
	c-0.6471329,0.304534-1.4037018,0.4568005-2.2697296,0.4568005c-0.7898865,0-1.5179138-0.1284742-2.1840744-0.3854256
	c-0.6566544-0.2664652-1.2228928-0.6328573-1.6987305-1.0991764c-0.4758301-0.4758339-0.8469849-1.0373182-1.1134491-1.684453
	c-0.2664642-0.6566496-0.399704-1.3799181-0.399704-2.1698027c0-0.808917,0.1379929-1.5369434,0.4139786-2.1840773
	c0.2854996-0.656651,0.6709213-1.2133775,1.1562805-1.6701775c0.4948578-0.4568009,1.0753784-0.8089185,1.7415543-1.0563521
	c0.6661606-0.2474332,1.3894348-0.37115,2.1697922-0.37115c0.3235703,0,0.6614151,0.033308,1.0135269,0.0999246
	c0.3521194,0.0571003,0.6899719,0.152267,1.0135269,0.285501c0.3235703,0.1237168,0.6281052,0.2807422,0.9136124,0.4710755
	c0.2854996,0.1903334,0.5281754,0.4187336,0.7280197,0.6852012L95.2757111,7.7965083z M97.9205475,5.4268541h1.7986603V9.50951
	h4.725029V5.4268541h1.7986526v10.1067152h-1.7986526v-4.482357h-4.725029v4.482357h-1.7986603V5.4268541z"/>
<g>
	<polygon fill="#5B57A2" points="3.5210145,26.2667103 5.3263683,29.48279 5.3263764,31.4436016 3.5239758,34.6534081 	"/>
	<polygon fill="#D90751" points="10.4507399,28.3123665 12.1417255,27.2790928 15.601882,27.2764778 10.4507523,30.4226799 	"/>
	<polygon fill="#FAB718" points="10.4413671,26.2481747 10.4507322,30.505291 8.6417894,29.3976021 8.6417894,23.0328693 	"/>
	<polygon fill="#ED6F26" points="15.601882,27.2764778 12.1417255,27.2790928 10.4413671,26.2481747 8.6417894,23.0328693 	"/>
	<polygon fill="#63B22F" points="10.4507322,34.6714516 10.4507322,32.6055984 8.6419983,31.518837 8.6422939,37.889164 	"/>
	<polygon fill="#1487C9" points="12.1374779,33.6476517 5.3263683,29.48279 3.5210145,26.2667103 15.5949879,33.6436043 	"/>
	<polygon fill="#017F36" points="8.6422939,37.889164 10.4507322,34.6714516 12.1374779,33.6476517 15.5949879,33.6436043 	"/>
	<polygon fill="#984995" points="3.5239758,34.6534081 8.6560659,31.518837 6.9302702,30.4635448 5.3263764,31.4436016 	"/>
</g>
<g id="Layer_x0020_1">
	<g id="_1421344023328">
		<path fill="#F7931A" d="M33.7252502,32.2579231c-0.9664459,3.9794044-4.8927765,6.4011917-8.7697906,5.4088554
			c-3.8753967-0.9920845-6.2345963-5.022831-5.2677307-9.0019073c0.9660187-3.9798412,4.8923492-6.4018078,8.7681656-5.4097271
			c3.8767395,0.9920826,6.2357941,5.0232639,5.269249,9.0028515l0.0000687-0.0000725H33.7252502z"/>
		<path fill="#FFFFFF" d="M29.8972168,29.4026871c0.1440201-0.9885235-0.5891266-1.5198936-1.5916443-1.8743687l0.3252258-1.3390427
			l-0.7940521-0.2031078l-0.316597,1.3037872c-0.2087479-0.053442-0.4231262-0.1038055-0.6361923-0.1537266l0.3188934-1.3123951
			l-0.7935562-0.2031078l-0.3254089,1.3386097c-0.1727448-0.0403748-0.3424149-0.0802784-0.507019-0.1223221l0.0009155-0.0042133
			l-1.0950089-0.2806969l-0.2112274,0.8705959c0,0,0.589119,0.1386261,0.5767059,0.1471558
			c0.3215485,0.082386,0.3796921,0.3008842,0.3700333,0.4740753l-0.3704605,1.525486
			c0.0221405,0.0057735,0.0508652,0.0141258,0.0825577,0.027195c-0.0264969-0.0067539-0.0546875-0.0141258-0.0839386-0.0213146
			L24.327179,31.712286c-0.0392914,0.1002808-0.1390381,0.2507782-0.3638458,0.1936302
			C23.9712906,31.9177513,23.3862,31.75807,23.3862,31.75807l-0.3942261,0.9330425l1.0333252,0.2644348
			c0.1922379,0.0494881,0.3806152,0.101265,0.566124,0.1499519l-0.3285828,1.3544006l0.7931366,0.2031097l0.3254013-1.340023
			c0.2166748,0.060379,0.4269485,0.1160774,0.6327972,0.1685753l-0.3243027,1.3337059l0.7940903,0.2031097l0.3285446-1.35186
			c1.3540268,0.2630501,2.3721466,0.1569939,2.8006821-1.1002083c0.3453217-1.0121975-0.017189-1.5960312-0.729538-1.976759
			c0.5188446-0.1228313,0.9096451-0.4731312,1.0138397-1.1967506l-0.0002441-0.0001831L29.8972168,29.4026871z
			 M28.0829926,32.0141869c-0.2453995,1.0121956-1.9055862,0.4650307-2.44384,0.3278236l0.4360352-1.7943439
			c0.5382233,0.1379318,2.264267,0.4109001,2.007843,1.4665203H28.0829926z M28.3285599,29.3880215
			c-0.2238541,0.9207001-1.6056442,0.4529419-2.0538864,0.3382473l0.3953323-1.627367
			c0.4482422,0.1146984,1.8917542,0.3287697,1.6586227,1.2891197H28.3285599z"/>
	</g>
</g>
<g>
	<path fill="#FFFFFF" d="M55.1792526,31.6201305c-0.1391411,1.253809-0.5697021,2.351469-1.2916832,3.2960758
		c-0.7219849,0.943058-1.668911,1.6743164-2.840004,2.1937752c-1.1718712,0.519455-2.5168915,0.7791824-4.037384,0.7791824
		c-1.6588593,0-3.1090088-0.3107452-4.3496742-0.9322357c-1.241436-0.6199493-2.2069168-1.4872551-2.8972054-2.6019211
		s-1.03582-2.4133072-1.03582-3.8943768s0.3455315-2.7797089,1.03582-3.8943768
		c0.6902885-1.114666,1.6557693-1.9819736,2.8972054-2.6026917c1.2406654-0.6207199,2.690815-0.9306927,4.3496742-0.9306927
		c1.5204926,0,2.8655128,0.2597275,4.037384,0.7784119c1.171093,0.519455,2.1180191,1.2507133,2.840004,2.1937752
		c0.721981,0.9446068,1.1525421,2.0422668,1.2916832,3.2960739h-3.95158
		c-0.12677-0.6075783-0.3733597-1.1223965-0.7405357-1.5475483c-0.3679466-0.4236031-0.8456612-0.7498093-1.4346886-0.9786186
		c-0.588253-0.2272606-1.2692642-0.3416653-2.0422668-0.3416653c-0.886631,0-1.6526756,0.1607838-2.29813,0.4838982
		c-0.6462288,0.3231144-1.1401749,0.785368-1.481842,1.3867626c-0.3424377,0.6013947-0.5132713,1.3202858-0.5132713,2.1566715
		s0.1708336,1.5552769,0.5132713,2.1566715c0.3416672,0.6013947,0.8356133,1.0636482,1.481842,1.3867645
		c0.6454544,0.3231125,1.411499,0.4838982,2.29813,0.4838982c0.7730026,0,1.4540138-0.1066742,2.0422668-0.3231163
		c0.5890274-0.2148933,1.0667419-0.5380096,1.4346886-0.9693413c0.3671761-0.4297905,0.6137657-0.9554291,0.7405357-1.5753765
		H55.1792526z"/>
	<path fill="#FFFFFF" d="M66.7108765,23.3366585l6.4785156,14.2479439H68.990448L63.5578041,25.007885h1.1394005
		l-5.4519691,12.5767174h-4.1981659l6.4777412-14.2479439H66.7108765z M59.1308289,34.8497276V31.675787h9.8217468v3.1739407
		H59.1308289z"/>
	<path fill="#FFFFFF" d="M77.25383,29.5670414h5.1868286c0.6338577,0,1.127037-0.1453228,1.4810715-0.4359722
		c0.3555756-0.2921944,0.5318222-0.6972466,0.5318222-1.2167015c0-0.531826-0.1762466-0.93997-0.5318222-1.2244339
		c-0.3540344-0.2844639-0.8472137-0.4282417-1.4810715-0.4282417h-5.7372055l1.7670746-1.8799381v13.2028484h-3.9330215V23.3366585
		h8.4535294c1.0899277,0,2.0391769,0.1932487,2.8508301,0.5797501c0.8101044,0.3864994,1.4424133,0.9183235,1.8984833,1.5954723
		s0.6848831,1.4795227,0.6848831,2.4024868c0,0.8997726-0.2288132,1.6913242-0.6848831,2.3746567
		c-0.4560699,0.6848793-1.0883789,1.2167034-1.8984833,1.5970192c-0.8116531,0.3787689-1.7609024,0.5689278-2.8508301,0.5689278
		H77.25383V29.5670414z M79.3826675,30.9167004h4.4262009l5.1095352,6.667902h-4.5591583L79.3826675,30.9167004z"/>
	<path fill="#FFFFFF" d="M97.78936,23.3366585c1.6835938,0,3.1631165,0.2945118,4.4354706,0.8835392
		c1.2723618,0.5897999,2.2602539,1.4184551,2.9636841,2.4882889c0.7034302,1.0698318,1.0543747,2.3205471,1.0543747,3.7521439
		s-0.3509445,2.6823101-1.0543747,3.7521458c-0.7034302,1.0698318-1.6913223,1.900032-2.9636841,2.4890594
		c-1.2723541,0.5890274-2.7518768,0.8827667-4.4354706,0.8827667h-7.105423V23.3366585H97.78936z M94.5968628,35.9319267
		l-1.8799362-1.8428307h5.3754501c0.8487549,0,1.587738-0.1484184,2.2138672-0.4467964
		c0.6276779-0.296833,1.1115799-0.7188911,1.4532471-1.2630806c0.3416595-0.5441933,0.5132675-1.1842384,0.5132675-1.9185886
		c0-0.7467175-0.171608-1.3898544-0.5132675-1.9278622c-0.3416672-0.5380096-0.8255692-0.9569759-1.4532471-1.2538071
		c-0.6261292-0.298378-1.3651123-0.4467945-2.2138672-0.4467945h-5.3754501l1.8799362-1.8428345V35.9319267z"/>
</g>
</svg>
