<svg width="368" height="134" viewBox="0 0 368 134" fill="none" xmlns="http://www.w3.org/2000/svg">
<path d="M104.571 63.5538C103.383 63.5538 102.392 62.5691 102.392 61.3877V58.237C102.392 57.0554 103.383 56.0708 104.571 56.0708H125.724V49.7692H102.441C98.2305 49.7692 94.8617 53.3139 94.8617 57.2523V62.3723C94.8617 66.5077 98.4286 69.8553 102.441 69.8553H117.501C118.69 69.8553 119.631 70.84 119.631 72.0215V75.763C119.631 76.9447 118.69 77.9291 117.501 77.9291H95.3571V84.2309H119.631C123.792 84.2309 127.161 80.6862 127.161 76.7477V71.037C127.161 66.9015 123.594 63.5538 119.631 63.5538H104.571Z" fill="white"/>
<path d="M162.158 49.7692L145.909 66.163V49.7692H138.33V84.2309H145.909V67.3938L161.91 84.2309H170.926L154.331 66.7538L170.926 49.7692H162.158Z" fill="white"/>
<path d="M180.099 49.7692V84.2309H187.629V49.7692H180.099Z" fill="white"/>
<path d="M199.034 49.7692V84.2309H206.613V56.0708H221.673C222.862 56.0708 223.803 57.0554 223.803 58.237V84.2309H231.332V57.2523C231.332 53.1169 227.766 49.7692 223.803 49.7692H199.034Z" fill="white"/>
<path d="M242.738 49.7692V84.2309H250.268V73.9415H267.506C271.669 73.9415 275.037 70.397 275.037 66.4585V57.2523C275.037 53.1169 271.469 49.7692 267.506 49.7692H242.738ZM267.506 65.4738C267.506 66.6553 266.517 67.5909 265.377 67.5909H250.268V56.0708H265.377C266.517 56.0708 267.506 57.0554 267.506 58.237V65.4738Z" fill="white"/>
<path d="M293.147 49.7692C288.986 49.9169 285.617 53.1661 285.617 57.2523V84.2309H293.147V74.0891H310.337V84.2309H317.915V49.7692H293.147ZM293.147 58.237C293.147 57.0554 294.088 56.0708 295.277 56.0708H310.337V67.7877H293.147V58.237Z" fill="white"/>
<path d="M326.798 49.7692L341.311 71.7262V84.2309H348.841V71.7262L363.308 49.7692H354.886L345.076 65.1291L335.269 49.7692H326.798Z" fill="white"/>
<path fill-rule="evenodd" clip-rule="evenodd" d="M13.0933 57.4C16.6176 49.8322 24.1795 44.6 32.9393 44.6C39.9823 44.6 46.251 47.9822 50.2693 53.2413L58.4999 48.4437C52.8122 40.3063 43.4834 35 32.9393 35C18.8928 35 7.00247 44.4173 3.00504 57.4H13.0933ZM15.6094 80.7586C19.6278 86.0178 25.8965 89.4 32.9393 89.4C41.6993 89.4 49.2612 84.1678 52.7855 76.6H62.8738C58.8764 89.5826 46.9858 99 32.9393 99C22.3954 99 13.0665 93.6937 7.37884 85.5563L15.6094 80.7586ZM46.3248 61.1008L42.5627 60.9669L42.1248 73.7591L45.8869 73.893L45.9856 71.0149L62.6017 71.6066C63.4674 71.6375 64.1938 70.9467 64.2241 70.0635L64.3991 64.9467C64.4295 64.0635 63.7522 63.3225 62.8864 63.2919L46.2701 62.6999L46.3248 61.1008ZM0.128906 62.6571L6.39918 62.8807C12.6695 63.104 15.8593 61.6167 15.8593 61.6167L39.3728 62.4542L39.0444 72.0485L17.7163 71.2887C10.9285 71.0469 4.55016 67.9166 0.128906 62.6571Z" fill="#A3ED29"/>
</svg>
