<?xml version="1.0" encoding="utf-8"?>
<!-- Generator: Adobe Illustrator 27.2.0, SVG Export Plug-In . SVG Version: 6.00 Build 0)  -->
<svg version="1.1" id="Слой_1" xmlns="http://www.w3.org/2000/svg" xmlns:xlink="http://www.w3.org/1999/xlink" x="0px" y="0px"
	 viewBox="0 0 110 40" enable-background="new 0 0 110 40" xml:space="preserve">
<g>
	<path fill-rule="evenodd" clip-rule="evenodd" fill="#036CB5" d="M26.6827488,24.0450497
		c0.4885464,0.2147274,1.0231495,0.2465477,1.4053516,0.2465477c1.1292591,0,1.9831429-0.706625,1.9831429-3.1909943
		c0-1.9480915-0.7020779-2.5769615-1.7242737-2.5769615c-0.6110439,0-1.0535374,0.1692715-1.6642208,0.5060158V24.0450497z
		 M26.6987782,17.8948936c0.4568481-0.2446327,1.2351265-0.5678577,2.0597-0.5678577
		c1.8928261,0,2.9157372,1.3191032,2.9157372,3.7735672c0,2.8687248-1.3740101,4.2645092-3.5861149,4.2645092
		c-0.8096218,0-2.0611362-0.2607841-2.9774647-0.7528V13.9066l1.5881424-0.382884V17.8948936z M9.7143135,17.4931946h0.1073036
		l2.0750141,7.6551552h1.6485491l2.4736052-10.8755779h-1.7860003l-1.5571575,8.114994h-0.1068239l-2.121788-8.114994H9.0880766
		l-1.9838948,8.114994H6.9974165l-1.7096558-8.114994H3.5785124l2.4728978,10.8755779h1.6473432L9.7143135,17.4931946z
		 M21.682188,20.5189877h-3.4947224c0.1671162-1.5331154,0.884985-2.2538548,1.8160248-2.2538548
		C20.827467,18.2651329,21.6063461,18.9088345,21.682188,20.5189877z M22.90308,24.5696049v-1.1659832
		c-0.8389301,0.5051746-1.6020184,0.7971802-2.426115,0.79706c-1.5727062,0-2.3201237-0.8130894-2.3201237-2.6532803h4.9759178
		v-0.5676212c0-2.4996815-1.176033-3.743063-3.0834522-3.743063c-2.2896214,0-3.464695,1.6874294-3.464695,4.0199947
		c0,2.4232426,1.0531769,4.0185604,3.6167374,4.0185604C21.3010616,25.2752724,22.2163124,24.968195,22.90308,24.5696049z
		 M38.6203575,22.8410263h-0.0764427l-3.4185181-8.5747147h-1.8474884v10.8764172h1.3738937v-7.7006149h0.1368484
		l3.1149139,7.7006149h0.976017l3.1142006-7.8849564h0.1376877v7.8849564h1.6484299V14.2663116H41.886116L38.6203575,22.8410263z
		 M50.5149002,21.2562351c0-2.0707073-0.8388062-2.9445686-1.8766747-2.9445686
		c-1.007122,0-1.8778725,0.8738613-1.8778725,2.9445686c0,2.1016903,0.7946663,2.9444466,1.8778725,2.9444466
		C49.7213097,24.2006817,50.5149002,23.3579254,50.5149002,21.2562351z M45.1583366,21.2562351
		c0-2.6853409,1.4656448-4.0195179,3.4798889-4.0195179c2.0153198,0,3.4802475,1.334177,3.4802475,4.0195179
		c0,2.6224155-1.3888474,4.0190372-3.4802475,4.0190372C46.547184,25.2752724,45.1583366,23.8786507,45.1583366,21.2562351z
		 M53.3256073,18.3726768c0.6867676-0.4147415,2.1374588-1.1359596,3.8922348-1.1359596
		c1.8315735,0,2.5171471,0.7212181,2.5171471,2.3007469v5.553587h-1.5862274v-5.2003345
		c0-1.2115612-0.5942917-1.4262886-1.3737679-1.4262886c-0.6097336,0-1.3892059,0.2764549-1.8619652,0.5525494v6.0740738h-1.5874214
		V18.3726768z M66.5902176,20.5189877h-3.4950867c0.1686783-1.5331154,0.8851128-2.2538548,1.816391-2.2538548
		C65.735733,18.2651329,66.5150909,18.9088345,66.5902176,20.5189877z M67.8109818,24.5696049v-1.1659832
		c-0.8379669,0.5051746-1.6023712,0.7971802-2.4256287,0.79706c-1.5722313,0-2.3202438-0.8130894-2.3202438-2.6532803h4.9765167
		v-0.5676212c0-2.4996815-1.1757965-3.743063-3.0842896-3.743063c-2.289856,0-3.4644585,1.6874294-3.4644585,4.0199947
		c0,2.4232426,1.053894,4.0185604,3.6166267,4.0185604C66.2086105,25.2752724,67.1245804,24.968195,67.8109818,24.5696049z
		 M76.0154648,17.2367172h-1.6335983l-1.7391052,5.6447411h-0.0916367l-1.953598-5.6447411h-1.6792908l2.930809,7.6686764
		c-0.3671265,1.1358376-1.0072403,1.9645977-2.0457001,1.9645977v1.2568989c1.7548904,0,2.6849823-1.104496,3.4491425-3.2214966
		L76.0154648,17.2367172z"/>
	<path fill="#036CB5" d="M94.2592163,8.2215576c1.8661575,0,3.6417389,0.4275637,5.2350311,1.1923971
		c0.2498932,0.1127348,0.5014572,0.2476597,0.7505264,0.3827038l-1.0925369,0.967742l-1.6377792-1.6875963l-2.822197,2.4748592
		l-1.6619492-1.7777815l-5.1895676,4.612772l3.3225784,3.6226006l-1.2970963,1.1248341l3.2779694,3.6226006l-1.2970963,1.1242352
		l4.688942,5.1527233l2.775177-2.5201378l2.4137955,2.7007713c-0.4783859,0.3600712-1.0018616,0.7208595-1.5702057,1.0352345
		c-1.7301331,0.9674072-3.7333679,1.5289268-5.8726196,1.5289268c-6.5784149,0-11.9263687-5.2865849-11.9263687-11.7885571
		C82.3326111,13.5317793,87.6814041,8.2215576,94.2592163,8.2215576z M92.0737915,19.2693844l2.8451614-2.5202579
		l2.5498047,2.8125019l-2.8457565,2.5198994L92.0737915,19.2693844z M94.1001129,24.1295052l2.8219528-2.542387l2.5721817,2.8121414
		l-2.8452835,2.5203781L94.1001129,24.1295052z M90.0492554,14.4769716l2.8444443-2.520174l2.5490875,2.812418l-2.8452759,2.5201387
		L90.0492554,14.4769716z M95.2604752,13.1265259l2.1168823-1.8899298l1.912323,2.0926218l-2.1168747,1.9122763
		L95.2604752,13.1265259z M99.0391922,21.7891636l2.1161652-1.8900738l1.912323,2.1144886l-2.1171188,1.8912716
		L99.0391922,21.7891636z M100.90522,26.0421867l2.1171188-1.8904305l1.9106522,2.0924797l-2.1161652,1.9120827
		L100.90522,26.0421867z M101.7703476,16.3215866l1.4109726-1.260128l1.2741241,1.3955441l-1.4107361,1.2596493
		L101.7703476,16.3215866z M99.9494171,12.1590118l1.4110947-1.2822361l1.2750854,1.4172802l-1.412056,1.2600336
		L99.9494171,12.1590118z M103.5681839,20.4845333l1.4109879-1.2600079l1.2973251,1.3950653l-1.4334641,1.2596512
		L103.5681839,20.4845333z M97.2181396,17.3568211l2.1170044-1.8900728l1.9114838,2.0922403l-2.1161652,1.8903122
		L97.2181396,17.3568211z"/>
</g>
</svg>
