<?xml version="1.0" encoding="utf-8"?>
<!-- Generator: Adobe Illustrator 26.5.0, SVG Export Plug-In . SVG Version: 6.00 Build 0)  -->
<!DOCTYPE svg PUBLIC "-//W3C//DTD SVG 1.1//EN" "http://www.w3.org/Graphics/SVG/1.1/DTD/svg11.dtd" [
	<!ENTITY ns_extend "http://ns.adobe.com/Extensibility/1.0/">
	<!ENTITY ns_ai "http://ns.adobe.com/AdobeIllustrator/10.0/">
	<!ENTITY ns_graphs "http://ns.adobe.com/Graphs/1.0/">
	<!ENTITY ns_vars "http://ns.adobe.com/Variables/1.0/">
	<!ENTITY ns_imrep "http://ns.adobe.com/ImageReplacement/1.0/">
	<!ENTITY ns_sfw "http://ns.adobe.com/SaveForWeb/1.0/">
	<!ENTITY ns_custom "http://ns.adobe.com/GenericCustomNamespace/1.0/">
	<!ENTITY ns_adobe_xpath "http://ns.adobe.com/XPath/1.0/">
]>
<svg version="1.1" id="Слой_1" xmlns:x="&ns_extend;" xmlns:i="&ns_ai;" xmlns:graph="&ns_graphs;"
	 xmlns="http://www.w3.org/2000/svg" xmlns:xlink="http://www.w3.org/1999/xlink" x="0px" y="0px" viewBox="0 0 110 40"
	 enable-background="new 0 0 110 40" xml:space="preserve">
<metadata>
	<sfw  xmlns="&ns_sfw;">
		<slices></slices>
		<sliceSourceBounds  bottomLeftOrigin="true" height="27.6550213" width="86.036643" x="14.1777365" y="6.3553704">
			</sliceSourceBounds>
	</sfw>
</metadata>
<g id="Слой_2_00000075157266685228550260000014189436274355169158_">
</g>
<g>
	<path fill="#FFFFFF" d="M88.5620041,14.4738503c0-2.8408489-2.1494293-5.1405821-5.1856689-5.1405821
		c-2.9761276,0-5.0954971,2.209548-5.0954971,5.2457991c0,3.051281,2.1794891,5.2758598,5.3059235,5.2758598
		c1.9840851,0,3.6525269-0.8868237,4.6896515-2.6905384l-2.1043243-0.9770107
		c-0.4960251,0.9018574-1.5782471,1.4880638-2.5853271,1.4880638c-1.277626,0-2.7506638-0.9619808-2.8408508-2.2997351h7.7409439
		C88.5319443,15.0901194,88.5620041,14.8045301,88.5620041,14.4738503z M80.791008,13.6020555
		c0.1803665-1.3527861,1.1122894-2.2396097,2.6003494-2.2396097c1.4730377,0,2.3748932,0.8717947,2.4951401,2.2396097H80.791008z"/>
	<path fill="#FFFFFF" d="M59.5870399,9.3332682c-3.0512772,0-5.2157364,2.1945162-5.2157364,5.2908916
		c0,3.0663118,2.1644592,5.2307673,5.2458038,5.2307673c3.0963707,0,5.2608223-2.1644554,5.2608223-5.1856747
		C64.8779297,11.557847,62.6533508,9.3332682,59.5870399,9.3332682z M59.6171074,17.5551929
		c-1.5331612,0-2.4801102-1.1423512-2.4801102-2.9160032c0-1.8037119,0.9619789-3.0362501,2.4801102-3.0362501
		c1.5331573,0,2.4951324,1.2175064,2.4951324,3.0362501C62.1122398,16.4278717,61.165287,17.5551929,59.6171074,17.5551929z"/>
	<path fill="#FFFFFF" d="M48.7218666,9.3359747c-1.2505035,0-2.1920586,0.4266424-3.1336136,1.4858913h-0.3089485
		c-0.6326065-0.9562674-1.6624336-1.4858913-2.8246651-1.4858913c-1.191658,0-2.2803307,0.5443354-2.9717865,1.4858913h-0.3089485
		l-0.0147095-0.0147114V9.5419397h-2.5892792v10.0922976h2.7952423v-5.1932669c0-1.677146,0.7061653-2.6628361,1.9272461-2.6628361
		c1.1328087,0,1.8684006,0.8385725,1.8684006,2.1185007v5.7376022h2.8099518v-5.1932669
		c0-1.6624327,0.7061691-2.6628361,1.9419594-2.6628361c1.1180992,0,1.8389778,0.8385725,1.8389778,2.1332111v5.7228918h2.8099518
		v-6.0612621C52.5616455,10.9395609,51.1493149,9.3359747,48.7218666,9.3359747z"/>
	<path fill="#FFFFFF" d="M94.7807617,16.1342564h-0.1997681c0-0.1797886-1.2185745-3.3760376-2.0176392-5.3537169
		L92.063942,9.5419922h-2.8166885l3.9953079,10.1281147l-1.5781403,3.8554764h2.7967072l5.7532501-13.9835911h-2.8166885
		l-0.4594574,1.0587587l-1.5581741,3.8554754C94.940567,15.5349598,94.7607803,16.0343742,94.7807617,16.1342564z"/>
	<path fill="#FFFFFF" d="M72.631279,9.3359747c-1.2505035,0-2.3244629,0.5443354-3.0453415,1.5153151h-0.2942352
		l-0.0294266-0.0147114V9.5419397h-2.5892792v10.0922976h2.7952499v-5.1638432c0-1.6477222,0.7944336-2.6775484,2.1037827-2.6775484
		c1.2210846,0,2.1184998,0.9121313,2.1184998,2.3538885v5.4875031h2.7952499v-6.0906858
		C76.4857788,11.0719681,74.8674774,9.3359747,72.631279,9.3359747z"/>
</g>
<g>
	<path fill="#8B3FFD" d="M27.7224464,5.9896083c-4.1518955,0-7.4870243,3.3586698-7.4870243,7.4636865
		c0,4.1389599,3.3691597,7.4636955,7.4870243,7.4636955s7.4870262-3.3586578,7.4870262-7.4636955
		C35.2094727,9.348278,31.8403091,5.9896083,27.7224464,5.9896083z M27.7224464,16.2352219
		c-1.8562012,0-3.3124313-1.8441133-2.6113033-3.7804327c0.2673073-0.7382298,0.8687134-1.3373594,1.6072655-1.6037788
		c1.943264-0.7010012,3.7946568,0.7511091,3.7946568,2.6022844C30.4790325,14.9799547,29.2538834,16.2352219,27.7224464,16.2352219z
		"/>
	<path fill="#8B3FFD" d="M20.2354221,8.1579943v10.8562746h-2.6544914L14.1777363,8.1579943H20.2354221z"/>
</g>
<g>
	<g>
		<circle fill="#EB001B" cx="30.16189" cy="29.6021652" r="4.0424638"/>
		<circle fill="#F79E1B" cx="34.3628807" cy="29.6021652" r="4.0424638"/>
		<path fill="#FF5F00" d="M30.3204174,29.6021652c0,1.4663849,0.7926388,2.7346077,1.9419689,3.4479828
			c1.1493263-0.7133751,1.941967-1.9815979,1.941967-3.4479828c0-1.466383-0.7926407-2.7346077-1.941967-3.4479828
			C31.0734253,26.8279266,30.3204174,28.1357822,30.3204174,29.6021652z"/>
	</g>
</g>
<g>
	<path fill="#21A038" d="M21.3208618,27.1279049c0.1894245,0.2481995,0.3497887,0.5178452,0.4778347,0.803524l-3.6323605,2.7136517
		l-1.5180626-0.9644165v-1.1602383l1.5180626,0.9644146L21.3208618,27.1279049z"/>
	
		<linearGradient id="SVGID_1_" gradientUnits="userSpaceOnUse" x1="15.5403852" y1="9.6635323" x2="14.5096865" y2="12.6035051" gradientTransform="matrix(1 0 0 -1 0 42)">
		<stop  offset="0.14" style="stop-color:#F1E813"/>
		<stop  offset="0.3" style="stop-color:#E6E418"/>
		<stop  offset="0.58" style="stop-color:#C9DA26"/>
		<stop  offset="0.89" style="stop-color:#A2CC39"/>
	</linearGradient>
	<path fill="url(#SVGID_1_)" d="M15.0989771,29.5987759c0-0.052063,0.0012531-0.1037788,0.0037584-0.155201l-0.9199886-0.0456867
		c-0.0031309,0.0666409-0.0050097,0.1339245-0.0050097,0.201828c-0.000391,0.5305634,0.102582,1.0559635,0.3030157,1.5460796
		c0.2004318,0.490139,0.4943771,0.9353313,0.864974,1.3100529l0.6525707-0.6610317
		c-0.2852726-0.287941-0.5115795-0.6301937-0.6659164-1.0070629C15.1780453,30.4108829,15.0987253,30.0068054,15.0989771,29.5987759
		z"/>
	
		<linearGradient id="SVGID_00000048486417072586145920000008917324134413071036_" gradientUnits="userSpaceOnUse" x1="15.6063538" y1="15.0999012" x2="18.2074852" y2="16.0779934" gradientTransform="matrix(1 0 0 -1 0 42)">
		<stop  offset="0.06" style="stop-color:#0FA7DF"/>
		<stop  offset="0.54" style="stop-color:#0098F8"/>
		<stop  offset="0.92" style="stop-color:#0290EA"/>
	</linearGradient>
	<path fill="url(#SVGID_00000048486417072586145920000008917324134413071036_)" d="M18.1654949,26.4910431
		c0.0513477,0,0.1023731,0.0019054,0.153101,0.0044422l0.0460339-0.9326859
		c-0.0659504-0.0031738-0.1323433-0.0047588-0.1991348-0.0047588c-0.5237694-0.0006485-1.0424728,0.1035614-1.526371,0.3066406
		c-0.4839001,0.2030811-0.9234495,0.5010338-1.2934113,0.8767509l0.6525707,0.6613522
		c0.2841339-0.2892056,0.6218739-0.5186424,0.993803-0.6751099C17.3640156,26.5712051,17.7627792,26.4907856,18.1654949,26.4910431z
		"/>
	
		<linearGradient id="SVGID_00000037664038877666143970000005490392473296311946_" gradientUnits="userSpaceOnUse" x1="17.902977" y1="8.9338341" x2="20.8382797" y2="9.5881443" gradientTransform="matrix(1 0 0 -1 0 42)">
		<stop  offset="0.12" style="stop-color:#A2CC39"/>
		<stop  offset="0.28" style="stop-color:#86C239"/>
		<stop  offset="0.87" style="stop-color:#219F38"/>
	</linearGradient>
	<path fill="url(#SVGID_00000037664038877666143970000005490392473296311946_)" d="M18.1654949,32.7065773
		c-0.0513458,0-0.102396,0-0.1534214-0.0041275l-0.0460339,0.9323692c0.0661716,0.0033836,0.1326656,0.0050888,0.1994553,0.0050888
		c0.5235481,0.0005455,1.0420036-0.1037292,1.5256462-0.3068695c0.4836407-0.2031364,0.9229031-0.501133,1.2925835-0.8768425
		l-0.6513195-0.6610317c-0.2841854,0.289053-0.6218929,0.5183582-0.9937477,0.6747684
		C18.9668026,32.6263466,18.5681133,32.7067757,18.1654949,32.7065773z"/>
	
		<linearGradient id="SVGID_00000011026494679997874830000017203744723127831975_" gradientUnits="userSpaceOnUse" x1="17.9688358" y1="16.1172752" x2="20.4809113" y2="15.3523493" gradientTransform="matrix(1 0 0 -1 0 42)">
		<stop  offset="0.06" style="stop-color:#0290EA"/>
		<stop  offset="0.79" style="stop-color:#0C89CA"/>
	</linearGradient>
	<path fill="url(#SVGID_00000011026494679997874830000017203744723127831975_)" d="M19.8940315,27.0333195l0.7753124-0.5791607
		c-0.7086468-0.5815525-1.5932255-0.8981285-2.505085-0.8965073v0.9333191
		C18.7817287,26.4901943,19.3848648,26.6793079,19.8940315,27.0333195z"/>
	<path fill="#21A038" d="M22.1529827,29.5987759c0.000494-0.2427959-0.0204601-0.4851723-0.0626392-0.7241879l-0.8582878,0.6410408
		c0,0.027626,0,0.0552254,0,0.083147c0.0002232,0.4342232-0.0895958,0.8636513-0.2636013,1.260437
		c-0.1740303,0.3967876-0.4283905,0.7520866-0.7465763,1.0428696l0.6190739,0.6934261
		c0.4136639-0.378479,0.7442284-0.8408184,0.9702473-1.3570518C22.0372429,30.7221985,22.1536751,30.1635647,22.1529827,29.5987759z
		"/>
	
		<linearGradient id="SVGID_00000165928709500343366720000001562054978886574514_" gradientUnits="userSpaceOnUse" x1="15.4367256" y1="9.7957058" x2="18.1736088" y2="8.786418" gradientTransform="matrix(1 0 0 -1 0 42)">
		<stop  offset="0.13" style="stop-color:#F1E813"/>
		<stop  offset="0.3" style="stop-color:#EAE616"/>
		<stop  offset="0.53" style="stop-color:#D8DF1F"/>
		<stop  offset="0.8" style="stop-color:#BAD52D"/>
		<stop  offset="0.98" style="stop-color:#A2CC39"/>
	</linearGradient>
	<path fill="url(#SVGID_00000165928709500343366720000001562054978886574514_)" d="M18.1655197,32.7065773
		c-0.4284878,0.0001488-0.8522339-0.0909081-1.2438068-0.2672577c-0.3915539-0.1763535-0.7422047-0.4341011-1.0292387-0.7565098
		l-0.6838827,0.6270809c0.3733988,0.4192963,0.8295879,0.7543564,1.3389854,0.98349
		c0.5093956,0.2291069,1.0606174,0.3471718,1.6179428,0.3465042V32.7065773z"/>
	
		<linearGradient id="SVGID_00000088816966383707175800000004114038410321022080_" gradientUnits="userSpaceOnUse" x1="14.5032034" y1="12.2951832" x2="15.6239967" y2="15.1720505" gradientTransform="matrix(1 0 0 -1 0 42)">
		<stop  offset="0.07" style="stop-color:#A2CC39"/>
		<stop  offset="0.26" style="stop-color:#81C45E"/>
		<stop  offset="0.92" style="stop-color:#0FA7DF"/>
	</linearGradient>
	<path fill="url(#SVGID_00000088816966383707175800000004114038410321022080_)" d="M16.1091499,27.2954464l-0.6187525-0.6934052
		c-0.413785,0.378397-0.7444687,0.8407135-0.9706059,1.356966c-0.2261343,0.5162487-0.3426714,1.0749073-0.3420525,1.6397457
		h0.9212408c-0.0001907-0.4341984,0.0896358-0.8636265,0.2636538-1.2604122
		C15.5366535,27.9415646,15.7909842,27.586256,16.1091499,27.2954464z"/>
</g>
<g id="Page-1">
	<g id="Artboard" transform="translate(-91.000000, -154.000000)">
		<g id="Group" transform="translate(91.000000, 154.000000)">
			<path id="Combined-Shape" fill-rule="evenodd" clip-rule="evenodd" fill="#37A72E" d="M92.4080963,29.1751728v4.3510761
				h2.4172668v-2.5784168h2.739563c1.1530151-0.0085602,2.1324615-0.7450905,2.5017929-1.7726593H92.4080963z"/>
			
				<linearGradient id="Combined-Shape_00000114789142340620238720000006679778282455863690_" gradientUnits="userSpaceOnUse" x1="-901.5115356" y1="554.0863037" x2="-901.4712524" y2="554.0863037" gradientTransform="matrix(201.7633057 0 0 -79 181984.03125 43800)">
				<stop  offset="0" style="stop-color:#00A0E5"/>
				<stop  offset="1" style="stop-color:#0077C3"/>
			</linearGradient>
			
				<path id="Combined-Shape_00000071547496215866313520000016141875339336809856_" fill-rule="evenodd" clip-rule="evenodd" fill="url(#Combined-Shape_00000114789142340620238720000006679778282455863690_)" d="
				M92.0857925,25.5895653c0.1408081,1.7784786,1.8233414,3.1827297,3.8782349,3.1827297c0.0067139,0,4.2031097,0,4.2031097,0
				c0.0310135-0.1631088,0.0472412-0.3314571,0.0472412-0.5035973c0-1.4732475-1.1886139-2.6682339-2.658989-2.67906
				L92.0857925,25.5895653z"/>
			
				<path id="Combined-Shape_00000028285111021099417510000002401441004985745055_" fill-rule="evenodd" clip-rule="evenodd" fill="#37A72E" d="
				M88.5082321,28.7299747l0.0018921-0.0040588l0.0002594,0.000061c0.0247726-0.044466,0.0722656-0.0745449,0.1267776-0.0745449
				c0.0787506,0,0.1428452,0.0627613,0.1449814,0.1409931l0.000061,0.0000134v4.6935196h2.4172592v-7.8963928h-2.4172592
				c-0.3065414,0.0102024-0.6528702,0.2351418-0.7816315,0.511261l-1.9236755,4.1253376
				c-0.0047531,0.0168648-0.0121765,0.0326061-0.0217896,0.0467396l-0.0006485,0.0013752l-0.0002441-0.0000782
				c-0.0291061,0.0418911-0.0775681,0.0693169-0.1324463,0.0693169c-0.0889969,0-0.1611481-0.0721512-0.1611481-0.1611519
				v-4.5928001h-2.4172668v7.8963928h2.4172668v-0.0009003c0.3031769-0.0158348,0.6413803-0.2382431,0.7682648-0.5103607
				l1.9743881-4.2340851C88.5047913,28.73699,88.5064392,28.7334404,88.5082321,28.7299747L88.5082321,28.7299747z"/>
			
				<path id="Combined-Shape_00000067918256371910138230000003614688541560293807_" fill-rule="evenodd" clip-rule="evenodd" fill="#37A72E" d="
				M79.4819107,28.8649521l-1.4127884,4.621006h-1.7389221l-1.4136429-4.6238098
				c-0.0136337-0.0740433-0.0785141-0.1301403-0.1565018-0.1301403c-0.0878906,0-0.1591339,0.0712471-0.1591339,0.1591358
				c0,0.0006714,0,0.0013428,0.0000076,0.0020123l-0.0000076,4.592802h-2.4172668v-7.8963928h2.0748215h0.6179199
				c0.4447861,0,0.9108887,0.3451767,1.040863,0.7703114l1.1764221,3.8478985c0.0585327,0.1914501,0.1534958,0.1912441,0.2119598,0
				l1.1764221-3.8478985c0.1300659-0.4254322,0.5960236-0.7703114,1.040863-0.7703114h0.6177368h2.0746384v7.8963928h-2.4172668
				V28.893158c0-0.0006714,0-0.0013428,0-0.0020142c0-0.0878887-0.0712433-0.1591358-0.1591339-0.1591358
				C79.5599289,28.732008,79.4944,28.789526,79.4819107,28.8649521L79.4819107,28.8649521z"/>
		</g>
	</g>
</g>
<g>
	<path fill="#2566AF" d="M52.6912422,33.4793396h-2.0617905l1.2885933-7.9192448h2.0620003L52.6912422,33.4793396z
		 M48.8949432,25.5600948l-1.9656181,5.4469166l-0.2325935-1.1729317l0.0002136,0.0004234l-0.6937599-3.5613708
		c0,0-0.083889-0.7130375-0.9780426-0.7130375H41.775589l-0.0381279,0.1340923c0,0,0.9937172,0.2067509,2.1566925,0.9051704
		l1.7912788,6.8801918h2.1482162l3.2802658-7.9194546H48.8949432L48.8949432,25.5600948z M65.1119766,33.4793396h1.8931732
		l-1.6506195-7.9194565h-1.6573982c-0.765358,0-0.9517746,0.5901737-0.9517746,0.5901737l-3.0750008,7.3292828h2.1492805
		l0.4298134-1.1763229h2.6210327L65.1119766,33.4793396L65.1119766,33.4793396z M62.8432236,30.6780319l1.0833244-2.9635735
		l0.6094475,2.9635735H62.8432236z M59.8315659,27.4644928l0.294239-1.700613c0,0-0.9079247-0.3452911-1.8544044-0.3452911
		c-1.0231628,0-3.4529114,0.4471836-3.4529114,2.6216717c0,2.0459023,2.8517227,2.0713234,2.8517227,3.1459618
		s-2.5579071,0.8820801-3.4020691,0.2044201l-0.3065262,1.7781429c0,0,0.9206352,0.4471855,2.3272209,0.4471855
		c1.4070091,0,3.5295982-0.7285042,3.5295982-2.711277c0-2.0590382-2.8773575-2.2507477-2.8773575-3.1459637
		c0.0002098-0.8954258,2.008194-0.7803993,2.8904915-0.2942371H59.8315659z"/>
</g>
<path fill="#E6A540" d="M46.6969452,29.8342915l-0.6937599-3.5613708c0,0-0.083889-0.7130375-0.9780426-0.7130375H41.775589
	l-0.0381279,0.1340923c0,0,1.5618591,0.3236828,3.0599556,1.536438
	C46.229847,28.3895741,46.6969452,29.8342915,46.6969452,29.8342915z"/>
</svg>
