<?xml version="1.0" encoding="utf-8"?>
<!-- Generator: Adobe Illustrator 27.2.0, SVG Export Plug-In . SVG Version: 6.00 Build 0)  -->
<svg version="1.1" id="Слой_1" xmlns="http://www.w3.org/2000/svg" xmlns:xlink="http://www.w3.org/1999/xlink" x="0px" y="0px"
	 viewBox="0 0 110 40" enable-background="new 0 0 110 40" xml:space="preserve">
<g id="Page-1">
	<g id="Artboard" transform="translate(-91.000000, -154.000000)">
		<g id="Group" transform="translate(91.000000, 154.000000)">
			<path id="Combined-Shape" fill-rule="evenodd" clip-rule="evenodd" fill="#37A72E" d="M70.9714432,29.5152416v7.8811893
				h4.3784409v-4.6703377h4.9622269c2.0884781-0.0155067,3.8625641-1.3495979,4.5315399-3.2108517H70.9714432z"/>
			
				<linearGradient id="Combined-Shape_00000016076269494886636190000013183502147814797970_" gradientUnits="userSpaceOnUse" x1="-1343.418457" y1="-27.0392017" x2="-1343.345459" y2="-27.0392017" gradientTransform="matrix(201.7633057 0 0 79 271122.9375 2162)">
				<stop  offset="0" style="stop-color:#00A0E5"/>
				<stop  offset="1" style="stop-color:#0077C3"/>
			</linearGradient>
			
				<path id="Combined-Shape_00000071547496215866313520000016141875339336809856_" fill-rule="evenodd" clip-rule="evenodd" fill="url(#Combined-Shape_00000016076269494886636190000013183502147814797970_)" d="
				M70.3876495,23.0205612c0.255043,3.2213917,3.3026505,5.7649403,7.0247192,5.7649403c0.0121613,0,7.6131744,0,7.6131744,0
				c0.0561752-0.2954426,0.0855713-0.6003761,0.0855713-0.9121761c0-2.6685219-2.1529617-4.8330231-4.8162766-4.8526325
				L70.3876495,23.0205612z"/>
			
				<path id="Combined-Shape_00000028285111021099417510000002401441004985745055_" fill-rule="evenodd" clip-rule="evenodd" fill="#37A72E" d="
				M63.9075432,28.7088451l0.0034294-0.0073528l0.0004692,0.0001106c0.0448685-0.0805416,0.1308937-0.1350231,0.2296333-0.1350231
				c0.1426392,0,0.2587357,0.1136799,0.2626114,0.2553825l0.0001068,0.0000248v8.501461h4.3784256v-14.302887h-4.3784256
				c-0.5552444,0.0184784-1.1825562,0.4259167-1.4157829,0.9260559l-3.4843903,7.4723034
				c-0.0086098,0.0305481-0.0220566,0.0590611-0.0394707,0.0846615l-0.0011749,0.002491l-0.0004425-0.0001411
				c-0.0527191,0.0758781-0.1404991,0.1255531-0.2399025,0.1255531c-0.1612015,0-0.2918892-0.1306877-0.2918892-0.2918968
				v-8.3190269h-4.3784409v14.302887h4.3784409v-0.0016289c0.5491524-0.0286827,1.1617432-0.4315338,1.3915749-0.924427
				l3.5762444-7.6692791C63.90131,28.7215519,63.9042969,28.7151222,63.9075432,28.7088451L63.9075432,28.7088451z"/>
			
				<path id="Combined-Shape_00000067918256371910138230000003614688541560293807_" fill-rule="evenodd" clip-rule="evenodd" fill="#37A72E" d="
				M47.5579948,28.9533329l-2.5590134,8.3701153h-3.1497421l-2.5605583-8.3751945
				c-0.0246964-0.1341152-0.1422157-0.2357254-0.283474-0.2357254c-0.1591988,0-0.2882423,0.1290512-0.2882423,0.2882462
				c0,0.001215,0,0.0024319,0.0000114,0.0036449l-0.0000114,8.3190289h-4.3784447v-14.302887h3.7581635h1.1192513
				c0.8056488,0,1.64991,0.6252251,1.8853378,1.3952789l2.1308746,6.9697742c0.1060219,0.346777,0.2780304,0.3464031,0.3839264,0
				l2.1308746-6.9697742c0.2355919-0.7705936,1.0795898-1.3952789,1.8853378-1.3952789h1.1189194h3.7578316v14.302887h-4.3784409
				v-8.3190269c0-0.001215,0-0.0024319,0-0.0036469c0-0.1591949-0.1290474-0.2882462-0.2882423-0.2882462
				C47.6993103,28.7125282,47.580616,28.8167114,47.5579948,28.9533329L47.5579948,28.9533329z"/>
		</g>
	</g>
</g>
<g>
	<circle fill="#EB001B" cx="10.7664471" cy="30.2084942" r="7.1879349"/>
	<circle fill="#F79E1B" cx="18.2568455" cy="30.2084942" r="7.1879334"/>
	<path fill="#FF5F00" d="M11.0511169,30.2084942c0,2.6154118,1.4055634,4.8571949,3.4516325,6.1382122
		c2.0460711-1.2632256,3.4516325-3.5228004,3.4516325-6.1382122s-1.4055614-4.857193-3.4516325-6.1382103
		C12.3855104,25.2623425,11.0511169,27.5930824,11.0511169,30.2084942z"/>
</g>
<g>
	<path fill="#21A038" d="M104.8869705,25.8138924c0.3380508,0.4447975,0.6227188,0.9251785,0.8540192,1.4233532
		l-6.4584732,4.8216076l-2.7043686-1.7080231v-2.0638618l2.7043686,1.7080231l5.604454-4.1988907V25.8138924z"/>
	
		<linearGradient id="SVGID_1_" gradientUnits="userSpaceOnUse" x1="-107.7662582" y1="-872.0309448" x2="-109.5988235" y2="-866.8001709" gradientTransform="matrix(1 0 0 -1 202.3622131 -836.9448853)">
		<stop  offset="0.14" style="stop-color:#F1E813"/>
		<stop  offset="0.3" style="stop-color:#E6E418"/>
		<stop  offset="0.58" style="stop-color:#C9DA26"/>
		<stop  offset="0.89" style="stop-color:#A2CC39"/>
	</linearGradient>
	<path fill="url(#SVGID_1_)" d="M93.8204041,30.2084942c0-0.0889587,0-0.1779175,0-0.2846699l-1.6368561-0.071167
		c0,0.1245422,0,0.2312946,0,0.3558369c0,0.9429722,0.1779175,1.8859425,0.5337524,2.7577496
		c0.3558426,0.8718033,0.8718033,1.6724396,1.5301056,2.3307381l1.1564789-1.174263
		c-0.5159683-0.5159683-0.9073868-1.1208916-1.1920624-1.7969856c-0.2668762-0.6760921-0.4092102-1.3877678-0.4092102-2.1172371
		L93.8204041,30.2084942z"/>
	
		<linearGradient id="SVGID_00000052815080713279003740000012129636392754537892_" gradientUnits="userSpaceOnUse" x1="-107.6311264" y1="-862.3583374" x2="-103.0052338" y2="-860.6146851" gradientTransform="matrix(1 0 0 -1 202.3622131 -836.9448853)">
		<stop  offset="0.06" style="stop-color:#0FA7DF"/>
		<stop  offset="0.54" style="stop-color:#0098F8"/>
		<stop  offset="0.92" style="stop-color:#0290EA"/>
	</linearGradient>
	<path fill="url(#SVGID_00000052815080713279003740000012129636392754537892_)" d="M99.2825241,24.675209
		c0.0889587,0,0.1779175,0,0.2668762,0l0.0889587-1.6546478c-0.1245422,0-0.2312927,0-0.355835,0
		c-0.9251862,0-1.8503647,0.1779194-2.722168,0.551548c-0.8540115,0.3558388-1.6368561,0.8895969-2.2951584,1.5656891
		l1.1564789,1.1742668c0.4981689-0.5159645,1.103096-0.9251785,1.7613983-1.2098503
		c0.6583023-0.2846699,1.3699799-0.4270058,2.0816498-0.4270058H99.2825241z"/>
	
		<linearGradient id="SVGID_00000065756229209380551890000001238778038085631125_" gradientUnits="userSpaceOnUse" x1="-103.5430984" y1="-873.3235474" x2="-98.3300705" y2="-872.149231" gradientTransform="matrix(1 0 0 -1 202.3622131 -836.9448853)">
		<stop  offset="0.12" style="stop-color:#A2CC39"/>
		<stop  offset="0.28" style="stop-color:#86C239"/>
		<stop  offset="0.87" style="stop-color:#219F38"/>
	</linearGradient>
	<path fill="url(#SVGID_00000065756229209380551890000001238778038085631125_)" d="M99.2825241,35.7417831
		c-0.0889664,0-0.1779251,0-0.2668839,0l-0.0889587,1.6546478c0.1245422,0,0.2312927,0,0.3558426,0
		c0.9251785,0,1.8503571-0.1779213,2.7221603-0.5515518c0.8540115-0.3558388,1.6368561-0.889595,2.2951584-1.5656891
		l-1.1564789-1.1742668c-0.4981689,0.5159683-1.103096,0.9251823-1.7613983,1.1920586
		c-0.6583023,0.2846718-1.3699799,0.4270058-2.0816498,0.4270058L99.2825241,35.7417831z"/>
	
		<linearGradient id="SVGID_00000091722749418288589250000003671214217801673118_" gradientUnits="userSpaceOnUse" x1="-103.4348679" y1="-860.550415" x2="-98.9690933" y2="-861.9026489" gradientTransform="matrix(1 0 0 -1 202.3622131 -836.9448853)">
		<stop  offset="0.06" style="stop-color:#0290EA"/>
		<stop  offset="0.79" style="stop-color:#0C89CA"/>
	</linearGradient>
	<path fill="url(#SVGID_00000091722749418288589250000003671214217801673118_)" d="M102.3605194,25.6537647l1.3877716-1.0319309
		c-1.2810135-1.0497246-2.8467026-1.6012726-4.4657669-1.6012726v1.6546478c1.103096,0,2.1706085,0.338047,3.0779953,0.9607639
		V25.6537647z"/>
	<path fill="#21A038" d="M106.3814926,30.2084942c0-0.4270058-0.0355835-0.8718033-0.1067505-1.2810173l-1.5301056,1.1386833
		v0.142334c0,0.7650528-0.1601257,1.5301056-0.4625854,2.2417812c-0.3024673,0.7116776-0.7650528,1.3343964-1.3343964,1.8503609
		l1.103096,1.2276421c0.7294693-0.6760941,1.3166046-1.4945221,1.7258224-2.4197006
		c0.4092102-0.9251785,0.6049194-1.9037361,0.6049194-2.9178734V30.2084942z"/>
	
		<linearGradient id="SVGID_00000063632774526291491070000003420704155354377611_" gradientUnits="userSpaceOnUse" x1="-107.9305878" y1="-871.7800293" x2="-103.055603" y2="-873.5769043" gradientTransform="matrix(1 0 0 -1 202.3622131 -836.9448853)">
		<stop  offset="0.13" style="stop-color:#F1E813"/>
		<stop  offset="0.3" style="stop-color:#EAE616"/>
		<stop  offset="0.53" style="stop-color:#D8DF1F"/>
		<stop  offset="0.8" style="stop-color:#BAD52D"/>
		<stop  offset="0.98" style="stop-color:#A2CC39"/>
	</linearGradient>
	<path fill="url(#SVGID_00000063632774526291491070000003420704155354377611_)" d="M99.2825241,35.7417831
		c-0.7650528,0-1.5123138-0.1601295-2.2061996-0.4803848c-0.6938858-0.3202515-1.3166046-0.765049-1.8325729-1.3521843
		l-1.2098465,1.1208916c0.6583023,0.747261,1.4767303,1.3343925,2.3841171,1.7436066s1.8859406,0.6227188,2.8822937,0.6227188
		v-1.6546478H99.2825241z"/>
	
		<linearGradient id="SVGID_00000029740529017073195940000015614811412190812826_" gradientUnits="userSpaceOnUse" x1="-109.5968323" y1="-867.3470459" x2="-107.6041336" y2="-862.2230225" gradientTransform="matrix(1 0 0 -1 202.3622131 -836.9448853)">
		<stop  offset="0.07" style="stop-color:#A2CC39"/>
		<stop  offset="0.26" style="stop-color:#81C45E"/>
		<stop  offset="0.92" style="stop-color:#0FA7DF"/>
	</linearGradient>
	<path fill="url(#SVGID_00000029740529017073195940000015614811412190812826_)" d="M95.6173859,26.116354l-1.103096-1.2276421
		c-0.7294693,0.6760921-1.3166046,1.4945202-1.7258224,2.4197006c-0.3914185,0.9073887-0.6049194,1.9037361-0.6049194,2.9000816
		h1.6368561c0-0.7650509,0.1601257-1.5301037,0.4625854-2.2417812
		C94.5854568,27.2550373,95.0480423,26.6323204,95.6173859,26.116354z"/>
</g>
<g>
	<path fill="#FFFFFF" d="M92.458374,11.094923c0-3.3944578-2.5682983-6.1423502-6.196228-6.1423502
		c-3.5560989,0-6.0884781,2.6401324-6.0884781,6.2680712c0,3.6458979,2.6042175,6.3039894,6.3399124,6.3039894
		c2.3707352,0,4.3643112-1.0596428,5.6035461-3.2148552l-2.5144043-1.1674051
		c-0.5926895,1.0776072-1.8858032,1.7780495-3.0891418,1.7780495c-1.5266037,0-3.2866974-1.1494455-3.394455-2.7478943h9.2494507
		C92.4224548,11.8312874,92.458374,11.4900436,92.458374,11.094923z M83.1730042,10.0532379
		c0.2155151-1.6164093,1.3290482-2.6760526,3.1070938-2.6760526c1.7600937,0,2.8376999,1.0416856,2.9813766,2.6760526H83.1730042z"
		/>
	<path fill="#FFFFFF" d="M57.8369293,4.9525728c-3.6458931,0-6.232151,2.6221714-6.232151,6.3219509
		c0,3.6638584,2.5862579,6.2501097,6.2680779,6.2501097c3.6997719,0,6.2860184-2.5862513,6.2860184-6.196229
		C64.1588745,7.6106653,61.5007858,4.9525728,57.8369293,4.9525728z M57.8728561,14.776741
		c-1.8319359,0-2.9634209-1.3649664-2.9634209-3.4842577c0-2.1552095,1.1494446-3.6279378,2.9634209-3.6279378
		c1.8319283,0,2.981369,1.4547668,2.981369,3.6279378C60.8542252,13.4297333,59.7227364,14.776741,57.8728561,14.776741z"/>
	<path fill="#FFFFFF" d="M44.8544121,4.9558072c-1.4941978,0-2.619236,0.5097837-3.744278,1.7754536h-0.3691521
		C39.985096,5.5886412,38.7545815,4.9558072,37.36586,4.9558072c-1.4238815,0-2.7247086,0.6504121-3.5509109,1.7754536h-0.3691559
		l-0.0175743-0.0175786V5.2019095h-3.0938644v12.0590267h3.3399658v-6.2053013c0-2.0039787,0.8437767-3.1817541,2.3028145-3.1817541
		c1.3535652,0,2.2325058,1.0019884,2.2325058,2.5313425v6.8557129h3.3575401v-6.2053013
		c0-1.9863977,0.8437805-3.1817541,2.3203964-3.1817541c1.3359871,0,2.1973457,1.0019884,2.1973457,2.5489197v6.8381357h3.3575401
		v-7.2424459C49.4424629,6.871891,47.7549057,4.9558072,44.8544121,4.9558072z"/>
	<path fill="#FFFFFF" d="M99.8890076,13.0789003h-0.2387009c0-0.2148256-1.4560394-4.0339413-2.41082-6.3970199L96.642746,5.201972
		h-3.3655853l4.7738876,12.1018248l-1.8856812,4.6068115h3.3417206l6.8744049-16.7086372h-3.3655853l-0.548996,1.2650838
		l-1.861824,4.6068091C100.0799561,12.3628159,99.8651276,12.9595537,99.8890076,13.0789003z"/>
	<path fill="#FFFFFF" d="M73.4231567,4.9558072c-1.494194,0-2.7774429,0.6504121-3.6388016,1.8106112h-0.3515778
		l-0.0351562-0.0175786V5.2019095h-3.0938644v12.0590267h3.3399734v-6.1701431c0-1.9688215,0.9492493-3.1993341,2.5137558-3.1993341
		c1.4590454,0,2.5313416,1.0898819,2.5313416,2.8126011v6.5568762h3.3399734V9.9833326
		C78.028801,7.0301013,76.0951309,4.9558072,73.4231567,4.9558072z"/>
</g>
<g>
	<path fill="#8B3FFD" d="M19.7627411,0.9573194c-4.9609947,0-8.9460545,4.0131888-8.9460545,8.9181681
		c0,4.9455376,4.0257225,8.9181795,8.9460545,8.9181795s8.9460545-4.013175,8.9460545-8.9181795
		C28.7087955,4.9705081,24.6830692,0.9573194,19.7627411,0.9573194z M19.7627411,13.1995411
		c-2.2179279,0-3.9579401-2.2034836-3.1201801-4.5171423c0.3193989-0.882092,1.0380039-1.5979767,1.9204807-1.9163146
		c2.3219566-0.8376083,4.5341377,0.8974814,4.5341377,3.1094031C23.0565147,11.6996546,21.5926151,13.1995411,19.7627411,13.1995411
		z"/>
	<path fill="#8B3FFD" d="M10.8166866,3.5482683V16.520153H7.6449022l-4.06639-12.9718847H10.8166866z"/>
</g>
</svg>
